<svg xmlns="http://www.w3.org/2000/svg" width="65.867" height="65.867"><g data-name="Group 36310"><g data-name="Group 36309"><path data-name="Path 38306" d="M59.435 5.66H53.3v-1.8a3.859 3.859 0 10-7.719 0v1.8h-21.61v-1.8a3.859 3.859 0 10-7.719 0v1.848a1.284 1.284 0 00-.343-.048h-5.125a6.44 6.44 0 00-6.432 6.432v21.913a1.286 1.286 0 102.573 0V18.911H53.3a1.286 1.286 0 100-2.573H6.924v-4.245a3.864 3.864 0 013.859-3.859h5.126a1.289 1.289 0 00.343-.048v1.655a3.859 3.859 0 007.719 0V8.233h21.613v1.608a3.859 3.859 0 107.719 0V8.233h6.132a3.864 3.864 0 013.859 3.859v48.886a2.316 2.316 0 11-4.633 0V57.65a1.287 1.287 0 00-1.286-1.286H42.41a1.286 1.286 0 100 2.573h13.678v2.041a4.86 4.86 0 00.585 2.316H4.889a2.318 2.318 0 01-2.316-2.316v-2.042h28.794a1.286 1.286 0 000-2.573H18.513a10.549 10.549 0 10-13.747 0h-3.48A1.287 1.287 0 000 57.65v3.329a4.894 4.894 0 004.889 4.889h56.089a4.895 4.895 0 004.889-4.889V12.093a6.44 6.44 0 00-6.432-6.433zM21.4 9.841a1.286 1.286 0 11-2.573 0V3.859a1.286 1.286 0 112.573 0zm29.331 0a1.286 1.286 0 01-2.573 0V3.859a1.286 1.286 0 012.573 0zM3.664 48.371a7.976 7.976 0 117.976 7.976 7.985 7.985 0 01-7.976-7.976z" fill="#521e81"/></g></g><g data-name="Group 36312"><g data-name="Group 36311"><path data-name="Path 38307" d="M60.246 16.715a1.286 1.286 0 10.377.91 1.3 1.3 0 00-.377-.91z" fill="#521e81"/></g></g><g data-name="Group 36314"><g data-name="Group 36313"><path data-name="Path 38308" d="M38.42 56.74a1.287 1.287 0 10.377.91 1.294 1.294 0 00-.377-.91z" fill="#521e81"/></g></g><g data-name="Group 36316"><g data-name="Group 36315"><path data-name="Path 38309" d="M29.106 39.108a4.889 4.889 0 104.889 4.889 4.894 4.894 0 00-4.889-4.889zm0 7.2a2.316 2.316 0 112.316-2.316 2.318 2.318 0 01-2.316 2.316z" fill="#521e81"/></g></g><g data-name="Group 36318"><g data-name="Group 36317"><path data-name="Path 38310" d="M41.113 39.108a4.889 4.889 0 104.889 4.889 4.894 4.894 0 00-4.889-4.889zm0 7.2a2.316 2.316 0 112.316-2.316 2.318 2.318 0 01-2.316 2.316z" fill="#521e81"/></g></g><g data-name="Group 36320"><g data-name="Group 36319"><path data-name="Path 38311" d="M53.119 39.108a4.889 4.889 0 104.889 4.889 4.894 4.894 0 00-4.889-4.889zm0 7.2a2.316 2.316 0 112.316-2.316 2.318 2.318 0 01-2.316 2.316z" fill="#521e81"/></g></g><g data-name="Group 36322"><g data-name="Group 36321"><path data-name="Path 38312" d="M17.098 25.729a4.889 4.889 0 104.889 4.889 4.894 4.894 0 00-4.889-4.889zm0 7.2a2.316 2.316 0 112.316-2.316 2.318 2.318 0 01-2.316 2.316z" fill="#521e81"/></g></g><g data-name="Group 36324"><g data-name="Group 36323"><path data-name="Path 38313" d="M41.113 25.729a4.889 4.889 0 104.889 4.889 4.894 4.894 0 00-4.889-4.889zm0 7.2a2.316 2.316 0 112.316-2.316 2.318 2.318 0 01-2.316 2.316z" fill="#521e81"/></g></g><g data-name="Group 36326"><g data-name="Group 36325"><path data-name="Path 38314" d="M53.119 25.729a4.889 4.889 0 104.889 4.889 4.894 4.894 0 00-4.889-4.889zm0 7.2a2.316 2.316 0 112.316-2.316 2.318 2.318 0 01-2.316 2.316z" fill="#521e81"/></g></g><g data-name="Group 36328"><g data-name="Group 36327"><path data-name="Path 38315" d="M29.106 25.729a4.889 4.889 0 104.889 4.889 4.894 4.894 0 00-4.889-4.889zm0 7.2a2.316 2.316 0 112.316-2.316 2.318 2.318 0 01-2.316 2.316z" fill="#521e81"/></g></g><g data-name="Group 36330"><g data-name="Group 36329"><path data-name="Path 38316" d="M16.223 45.236a1.287 1.287 0 00-1.819 0l-4.189 4.19-1.432-1.432a1.287 1.287 0 10-1.819 1.819l2.341 2.346a1.286 1.286 0 001.819 0l5.1-5.1a1.287 1.287 0 00-.001-1.823z" fill="#521e81"/></g></g></svg>