<svg xmlns="http://www.w3.org/2000/svg" width="806.369" height="741.796"><g data-name="Group 36334"><path data-name="Path 2633" d="M555.46 139.37c104.457 45.95 156.817 66.128 184.08 143.018 19.395 66.833 14.503 92.669-11.455 155.592-66.9 162.172-259.237 244.31-429.593 183.461S44.268 379.797 111.169 217.624s273.608-153.338 444.29-78.255z" fill="#521e81"/><g data-name="Group 6631" opacity=".14"><g data-name="Group 6593"><path data-name="Path 8080" d="M472.967 240.651a4.84 4.84 0 01-2.715-.834 107.433 107.433 0 00-60.363-18.436 109.877 109.877 0 00-11.736.63 4.86 4.86 0 11-1.044-9.662 119.747 119.747 0 0112.78-.686 117.1 117.1 0 0165.8 20.1 4.859 4.859 0 01-2.725 8.887z" fill="#efe8f4"/></g><g data-name="Group 6594"><path data-name="Path 8081" d="M305.527 291.24a4.866 4.866 0 01-4.49-6.713 118.423 118.423 0 0165.485-64.616 4.86 4.86 0 013.584 9.034 108.65 108.65 0 00-60.083 59.286 4.862 4.862 0 01-4.496 3.009z" fill="#efe8f4"/></g><g data-name="Group 6595"><path data-name="Path 8082" d="M409.889 447.042a117.589 117.589 0 01-116.907-104.058 4.859 4.859 0 019.654-1.112 108 108 0 00167.616 77.015 4.858 4.858 0 115.44 8.051 117.09 117.09 0 01-65.803 20.104z" fill="#efe8f4"/></g><g data-name="Group 6596"><path data-name="Path 8083" d="M511.899 382.478a4.862 4.862 0 01-4.389-6.941 108.072 108.072 0 00-17.7-118.781 4.86 4.86 0 017.192-6.538 117.79 117.79 0 0119.287 129.481 4.858 4.858 0 01-4.39 2.779z" fill="#efe8f4"/></g><g data-name="Group 6597"><path data-name="Path 8084" d="M409.888 377.819a48.473 48.473 0 01-8.3-96.228 4.86 4.86 0 011.654 9.578 38.755 38.755 0 1023.437 73.116 4.86 4.86 0 014.216 8.758 48.048 48.048 0 01-21.007 4.776z" fill="#efe8f4"/></g><g data-name="Group 6598"><path data-name="Path 8085" d="M451.478 347.373a4.862 4.862 0 01-4.634-6.327 38.823 38.823 0 00-9.555-39.1 4.859 4.859 0 116.871-6.871 48.535 48.535 0 0111.95 48.9 4.864 4.864 0 01-4.632 3.398z" fill="#efe8f4"/></g><g data-name="Group 6599"><path data-name="Path 8086" d="M531.515 202.508a4.835 4.835 0 01-3.3-1.291 174.186 174.186 0 00-130.33-45.873 4.861 4.861 0 11-.655-9.7 183.9 183.9 0 01137.581 48.433 4.857 4.857 0 01-3.3 8.426z" fill="#efe8f4"/></g><g data-name="Group 6600"><path data-name="Path 8087" d="M247.411 258.344a4.861 4.861 0 01-4.4-6.921 185.4 185.4 0 01105.9-95.867 4.86 4.86 0 013.217 9.172 175.61 175.61 0 00-100.312 90.816 4.858 4.858 0 01-4.405 2.8z" fill="#efe8f4"/></g><g data-name="Group 6601"><path data-name="Path 8088" d="M280.6 458.402a4.843 4.843 0 01-3.5-1.493 183.254 183.254 0 01-51.343-127.561c0-4.719.183-9.485.538-14.167a4.86 4.86 0 019.691.74 177.446 177.446 0 00-.511 13.427 173.585 173.585 0 0048.631 120.826 4.859 4.859 0 01-3.5 8.228z" fill="#efe8f4"/></g><g data-name="Group 6602"><path data-name="Path 8089" d="M409.889 513.482a182.727 182.727 0 01-75.95-16.342 4.86 4.86 0 014.012-8.854 174.606 174.606 0 00185.888-26.894 4.858 4.858 0 116.352 7.353 184.066 184.066 0 01-120.302 44.737z" fill="#efe8f4"/></g><g data-name="Group 6603"><path data-name="Path 8090" d="M564.989 424.163a4.86 4.86 0 01-4.2-7.3 174.638 174.638 0 00-.01-175.035 4.859 4.859 0 018.4-4.886 184.352 184.352 0 01.012 184.8 4.86 4.86 0 01-4.202 2.421z" fill="#efe8f4"/></g><g data-name="Group 6604"><path data-name="Path 8091" d="M273.147 386.82a4.863 4.863 0 01-4.537-3.116 151.551 151.551 0 0125.472-151.781 4.86 4.86 0 017.433 6.261 141.833 141.833 0 00-23.835 142.03 4.865 4.865 0 01-4.533 6.608z" fill="#efe8f4"/></g><g data-name="Group 6605"><path data-name="Path 8092" d="M409.891 480.684a151.875 151.875 0 01-122.674-62.7 4.86 4.86 0 017.874-5.7 142.122 142.122 0 00114.8 58.678 4.86 4.86 0 110 9.719z" fill="#efe8f4"/></g><g data-name="Group 6606"><path data-name="Path 8093" d="M491.059 456.158a4.861 4.861 0 01-2.7-8.9 141.462 141.462 0 0063.145-117.9 4.86 4.86 0 019.719 0 151.167 151.167 0 01-67.47 125.992 4.838 4.838 0 01-2.694.808z" fill="#efe8f4"/></g><g data-name="Group 6607"><path data-name="Path 8094" d="M549.955 291.239a4.858 4.858 0 01-4.643-3.438 142.488 142.488 0 00-99.432-95.453 4.859 4.859 0 112.463-9.4 152.261 152.261 0 01106.26 102 4.862 4.862 0 01-4.647 6.286z" fill="#efe8f4"/></g><g data-name="Group 6608"><path data-name="Path 8095" d="M345.696 202.519a4.86 4.86 0 01-2.138-9.227 149.9 149.9 0 0163.642-15.25 4.86 4.86 0 01.167 9.719 140.179 140.179 0 00-59.543 14.265 4.852 4.852 0 01-2.128.493z" fill="#efe8f4"/></g><g data-name="Group 6609"><path data-name="Path 8096" d="M475.351 290.069a4.852 4.852 0 01-4.029-2.138 74.226 74.226 0 00-76.37-31.161 4.859 4.859 0 11-1.948-9.52 83.932 83.932 0 0186.368 35.241 4.858 4.858 0 01-4.021 7.578z" fill="#efe8f4"/></g><g data-name="Group 6610"><path data-name="Path 8097" d="M357.792 393.524a4.847 4.847 0 01-3.207-1.209 83.811 83.811 0 012.813-128.293 4.86 4.86 0 116.092 7.573 74.091 74.091 0 00-2.488 113.42 4.859 4.859 0 01-3.209 8.51z" fill="#efe8f4"/></g><g data-name="Group 6611"><path data-name="Path 8098" d="M416.98 412.837a4.859 4.859 0 01-.426-9.7 73.655 73.655 0 0067.417-73.789 4.86 4.86 0 019.719 0 83.322 83.322 0 01-76.273 83.47 4.246 4.246 0 01-.437.019z" fill="#efe8f4"/></g><g data-name="Group 6612"><path data-name="Path 8099" d="M174.288 257.682a4.864 4.864 0 01-4.622-6.36A252.683 252.683 0 01393.704 77.35a4.86 4.86 0 01.614 9.7c-98.388 6.226-184.952 73.448-215.408 167.272a4.861 4.861 0 01-4.622 3.36z" fill="#efe8f4"/></g><g data-name="Group 6613"><path data-name="Path 8100" d="M327.674 567.892a4.82 4.82 0 01-1.613-.278 252.052 252.052 0 01-168.133-221.439 4.86 4.86 0 019.7-.638 242.338 242.338 0 00161.659 212.908 4.861 4.861 0 01-1.611 9.446z" fill="#efe8f4"/></g><g data-name="Group 6614"><path data-name="Path 8101" d="M409.888 581.86a4.86 4.86 0 110-9.719 242.183 242.183 0 00235.786-184.635 4.86 4.86 0 119.437 2.321 253.748 253.748 0 01-88.292 137.359 249.843 249.843 0 01-156.931 54.674z" fill="#efe8f4"/></g><g data-name="Group 6615"><path data-name="Path 8102" d="M656.616 355.814c-.14 0-.282 0-.424-.016a4.862 4.862 0 01-4.424-5.26c.6-7 .912-14.129.912-21.19a242.545 242.545 0 00-85.622-185.063 4.858 4.858 0 116.294-7.4 252.237 252.237 0 0189.047 192.462c0 7.339-.319 14.749-.947 22.024a4.86 4.86 0 01-4.836 4.443z" fill="#efe8f4"/></g><g data-name="Group 6616"><path data-name="Path 8103" d="M535.078 120.486a4.836 4.836 0 01-2.455-.667 240.224 240.224 0 00-88.914-30.924 4.86 4.86 0 011.339-9.627 249.944 249.944 0 0192.495 32.168 4.859 4.859 0 01-2.465 9.05z" fill="#efe8f4"/></g><g data-name="Group 6617"><path data-name="Path 8104" d="M216.177 88.58a4.859 4.859 0 01-3.015-8.673 317.984 317.984 0 01336.332-35.985 4.86 4.86 0 01-4.276 8.728 308.263 308.263 0 00-326.03 34.885 4.836 4.836 0 01-3.011 1.045z" fill="#efe8f4"/></g><g data-name="Group 6618"><path data-name="Path 8105" d="M97.076 334.208a4.86 4.86 0 01-4.859-4.859 316.884 316.884 0 0147.815-167.686 4.859 4.859 0 118.249 5.137 307.162 307.162 0 00-46.346 162.549 4.858 4.858 0 01-4.859 4.859z" fill="#efe8f4"/></g><g data-name="Group 6619"><path data-name="Path 8106" d="M327.673 636.107a4.829 4.829 0 01-1.277-.173 318.317 318.317 0 01-219.894-212.115 4.859 4.859 0 119.279-2.885c30.957 99.519 112.635 178.309 213.161 205.623a4.86 4.86 0 01-1.269 9.549z" fill="#efe8f4"/></g><g data-name="Group 6620"><path data-name="Path 8107" d="M409.888 647.024a4.86 4.86 0 110-9.719c105.784 0 202.931-53.325 259.87-142.646a4.86 4.86 0 118.195 5.225c-58.731 92.133-158.944 147.14-268.065 147.14z" fill="#efe8f4"/></g><g data-name="Group 6621"><path data-name="Path 8108" d="M708.639 427.234a4.866 4.866 0 01-4.642-6.3 308.421 308.421 0 00-93.29-325.052 4.859 4.859 0 016.339-7.365 318.142 318.142 0 0196.232 335.3 4.864 4.864 0 01-4.639 3.417z" fill="#efe8f4"/></g><g data-name="Group 6622"><path data-name="Path 8109" d="M163.711 469.935a4.85 4.85 0 01-4.257-2.509A286.117 286.117 0 01278.359 75.41a4.858 4.858 0 114.476 8.624A276.4 276.4 0 00167.96 462.728a4.856 4.856 0 01-4.249 7.207z" fill="#efe8f4"/></g><g data-name="Group 6623"><path data-name="Path 8110" d="M409.889 615.274a284.709 284.709 0 01-196.774-78.48 4.859 4.859 0 016.688-7.05 276.756 276.756 0 00252.083 68.828 4.859 4.859 0 012.171 9.472 287.383 287.383 0 01-64.168 7.23z" fill="#efe8f4"/></g><g data-name="Group 6624"><path data-name="Path 8111" d="M587.19 552.311a4.858 4.858 0 01-3.071-8.626A275.3 275.3 0 00686.093 329.35a278.74 278.74 0 00-4.023-47.234 4.86 4.86 0 019.578-1.652 288.585 288.585 0 014.163 48.886 284.97 284.97 0 01-105.558 221.871 4.834 4.834 0 01-3.063 1.09z" fill="#efe8f4"/></g><g data-name="Group 6625"><path data-name="Path 8112" d="M645.334 180.647a4.862 4.862 0 01-4.074-2.2 275.588 275.588 0 00-231.375-125.3 278.747 278.747 0 00-48.6 4.26 4.86 4.86 0 01-1.7-9.571 288.682 288.682 0 0150.295-4.408 285.284 285.284 0 01239.512 129.7 4.862 4.862 0 01-4.062 7.52z" fill="#efe8f4"/></g><g data-name="Group 6626"><path data-name="Path 8113" d="M263.346 178.649a4.859 4.859 0 01-3.333-8.395 218.988 218.988 0 01199.019-53.93 4.86 4.86 0 01-2.179 9.472 209.265 209.265 0 00-190.173 51.529 4.848 4.848 0 01-3.334 1.324z" fill="#efe8f4"/></g><g data-name="Group 6627"><path data-name="Path 8114" d="M208.691 406.452a4.861 4.861 0 01-4.573-3.219 219.042 219.042 0 0122.418-192.91 4.86 4.86 0 118.146 5.3 209.325 209.325 0 00-21.417 184.326 4.864 4.864 0 01-4.574 6.5z" fill="#efe8f4"/></g><g data-name="Group 6628"><path data-name="Path 8115" d="M409.888 547.924c-68.97 0-132.468-31.548-174.215-86.555a4.859 4.859 0 117.74-5.876 207.4 207.4 0 00166.475 82.712 212.67 212.67 0 0024.063-1.368 4.859 4.859 0 111.1 9.655 222.178 222.178 0 01-25.163 1.432z" fill="#efe8f4"/></g><g data-name="Group 6629"><path data-name="Path 8116" d="M522.729 515.744a4.859 4.859 0 01-2.573-8.984 207.82 207.82 0 0098.588-177.411 4.859 4.859 0 019.718 0 217.481 217.481 0 01-103.167 185.66 4.837 4.837 0 01-2.566.735z" fill="#efe8f4"/></g><g data-name="Group 6630"><path data-name="Path 8117" d="M613.16 268.041a4.866 4.866 0 01-4.62-3.357 209.529 209.529 0 00-112.021-125.43 4.86 4.86 0 014.035-8.842A219.275 219.275 0 01617.78 261.677a4.867 4.867 0 01-4.622 6.364z" fill="#efe8f4"/></g></g></g></svg>