<svg xmlns="http://www.w3.org/2000/svg" width="38.533" height="25.845"><g data-name="egypt (3)"><path data-name="Path 38163" d="M0 17.23v5.046a3.561 3.561 0 003.692 3.569h30.767a3.561 3.561 0 003.692-3.569V17.23z" fill="#2e2f30"/><path data-name="Path 38164" d="M34.459 0H3.692A3.561 3.561 0 000 3.569v5.046h38.151V3.569A3.561 3.561 0 0034.459 0z" fill="#cc3434"/><path data-name="Rectangle 3085" fill="#f5feff" d="M0 8.329h38.533v9.341H0z"/><path data-name="Path 38165" d="M34.337 25.845a3.667 3.667 0 003.815-3.569V17.23H24.245z"/><path data-name="Path 38166" d="M34.459 0H3.692l10.215 8.615h24.244V3.569A3.561 3.561 0 0034.459 0z" fill="#ba2b2b"/><path data-name="Path 38167" d="M24.306 17.23h13.845V8.615H13.845z" fill="#d9e2e1"/><path data-name="Path 38168" d="M34.459 0H3.692l28.49 8.615h5.969V3.569A3.561 3.561 0 0034.459 0z" fill="#a32323"/><path data-name="Path 38169" d="M38.152 10.338V8.615h-6.277z" fill="#c9d3d1"/><path data-name="Path 38170" d="M38.151 22.214a3.5 3.5 0 01-3.692 3.63H3.692A3.664 3.664 0 010 22.152"/><g data-name="Group 36155"><path data-name="Path 38171" d="M22.152 15.937c-.062-.861-.062-1.723-.123-2.584a6.687 6.687 0 00-.062-1.108 16.258 16.258 0 00-.123-1.785.51.51 0 00-.492-.185c-.492.062-.923.554-1.415.492a1.969 1.969 0 01-.308-.8v-.492a.767.767 0 00-.246-.677 1.469 1.469 0 00-.554-.123c-.062 0-.123.062-.185.123-.246-.123-.615-.185-.554.185.246-.123.492.185.492.431a1.634 1.634 0 01-.369 1.292c-.554 0-.923-.431-1.415-.492-.431-.062-.554.246-.554.677a7.448 7.448 0 01-.062 1.169 6.687 6.687 0 01-.062 1.108v.615c-.062.369 0 .861-.062 1.231a3.785 3.785 0 01-.062.861 2.953 2.953 0 01.738 0c0 .062.062.062.062.185-.185.062-.185.185-.369.246.123.062.123.308.246.369 0 .123 0 .185.062.185.123.062.492.123.677.185a15.781 15.781 0 003.815-.062c.246-.062.369-.062.369-.308.123-.062.123-.246.246-.369a.85.85 0 01-.246-.185c-.062-.062-.062 0-.123-.062 0-.062 0-.123.062-.123a2.051 2.051 0 01.617.001zm-5.169-.123c-.062.062-.123.062-.185.123-.062-.123.062-.246.185-.246zm3.138.246a2.966 2.966 0 01-.738 0 .187.187 0 010-.246h.738c.308-.062.677-.123.923-.185.062 0 .062.123.062.185a2.6 2.6 0 01-.738.185c0-.247-.246-.185-.246.061zm.246 0l-.123.123a.191.191 0 00-.123-.062c.001-.245.247-.307.247-.061zm-1.723-2.154c.062.062.123.123.185.123 0 .123-.062.246-.062.369-.06-.122-.307-.368-.122-.492zm-.308.308a3 3 0 01-.062-.738l.369.369a1.631 1.631 0 01-.306.369zm.492 1.415c.062-.308.062-.677.123-.985a4.657 4.657 0 01-.062.923c0 .123.123.123.123.246l.185-.185c0-.308-.062-.677-.062-.985a4.749 4.749 0 01.123.923c.062.062.123.062.123.123.062 0 .062-.062.123-.062.062.062 0 .123.062.185h-.246c-.062 0-.062.062-.123.062h-.369c-.062-.123-.246-.062-.369-.062 0-.062 0-.123.062-.123 0-.062.062.062.123.062.063-.06.124-.06.186-.122zm.985-1.415c-.123-.062-.185-.246-.308-.369l.369-.369c.002.246-.06.49-.06.738zm.246-1.108c.062.308.308.615.123.923-.123-.062-.185-.246-.308-.308a1.04 1.04 0 01.186-.614zm-.492.923c-.062.123-.123.308-.185.431-.062-.123-.062-.246-.123-.369.062-.062.123-.062.185-.185a.132.132 0 01.124.124zm-.615 2.215c-.062 0-.123-.062-.185-.123 0-.062.062-.062.062-.185.124.001.185.186.124.309zm0-.308h.246c-.062.062-.062.185-.185.123.001-.06-.06-.06-.06-.122zm.308 0c.062 0 .062.123.123.185 0 .062-.123.062-.123.123-.123-.061-.061-.245 0-.307zm.738-.308c.062 0 .123.123.123.185h-.185c.001-.061.063-.122.063-.184zm.308.123a.32.32 0 01.123-.246c.062.062.123.123.123.185-.061.001-.184.062-.246.062zm.308-.062c-.062-.062-.123-.185-.246-.308a.875.875 0 00-.123.369h-.062a.467.467 0 01-.123-.246c-.062.062-.062.185-.123.308h-.185a.858.858 0 010-.677.614.614 0 01.246.308c.062-.123.062-.246.123-.369a.614.614 0 01.246.308c.062-.123.123-.308.185-.431h.062l.185.738zm-.246-.431c-.123-.062-.123-.185-.246-.308-.062.123-.062.246-.123.369-.123-.062-.185-.246-.308-.308a.78.78 0 00-.062.369c-.062-.185-.123-.431-.185-.677.062 0 .185.185.246.246.062-.185.062-.369.123-.492.123.062.123.185.185.246l.185-.369c.123.062.185.185.308.246.123.311-.061.496-.123.68zm-.185-.923c-.062.123-.062.185-.123.308-.123-.062-.123-.185-.185-.246a1.47 1.47 0 00-.123.554c-.123-.123-.308-.185-.308-.369 0-.062.062-.185.062-.246.062-.062.062-.123.123-.246.062.062.123.185.246.246a1.7 1.7 0 01.062-.554c.123.062.185.185.308.308a.226.226 0 00.062-.185 1.4 1.4 0 01.185.677c-.124-.06-.186-.183-.309-.245zm.123-.923a5.927 5.927 0 010-1.046h.062c0 .615.062 1.231.062 1.846a1.817 1.817 0 01-.124-.798zm-1.231.738a2.882 2.882 0 01-1.292-2.646 2.019 2.019 0 001.292-.369l.369.185a2.055 2.055 0 00.923.185 2.882 2.882 0 01-1.291 2.648zm-.8-.431a.741.741 0 01-.308.308c-.246-.246.062-.615.062-.923a.713.713 0 01.247.618zm-.492-1.354c.123.123.062.431.062.677a3.055 3.055 0 01-.123 1.108c0-.551.062-1.228.062-1.784zm.123 1.538c0 .062.062.123.062.185l.308-.308a1.528 1.528 0 01.062.554c.062-.062.123-.185.246-.246.062.185.123.308.185.492-.062.185-.185.246-.308.369l-.185-.554c-.123.062-.062.246-.185.246-.062-.123-.062-.185-.123-.308-.123.062-.185.185-.308.246 0-.062.062-.123.062-.185.062-.18.062-.364.185-.488zm0 .492a2.049 2.049 0 01.185.369c.062-.062.062-.185.185-.246a4.243 4.243 0 00.185.492l.246-.246a2.186 2.186 0 00-.123.615c-.062-.062-.062-.246-.062-.369-.123.062-.185.246-.308.308a.875.875 0 01-.123-.369c-.123.062-.123.185-.246.308-.062-.185-.246-.369-.185-.615.124-.059.185-.182.247-.243zm-.123.923a1.08 1.08 0 01.246-.308.875.875 0 01.123.369c.123-.062.185-.246.246-.308a.862.862 0 010 .677h-.185c-.062-.062-.062-.185-.123-.308-.062.062-.123.185-.185.246h-.062a.875.875 0 01-.123-.369c-.062.062-.123.185-.185.246a.226.226 0 01-.185-.062 5.714 5.714 0 01.246-.8 3.824 3.824 0 00.188.621zm.431.492h-.185c0-.062.062-.123.062-.185.062.004.062.127.123.189zm-.369-.062c-.123 0-.185-.062-.246-.062 0-.123.123-.123.123-.246.062.126.123.189.123.312zm0 .062a4.974 4.974 0 00.923.062c.062.062 0 .123 0 .246a2.965 2.965 0 01-.738 0c0-.246-.185-.308-.185-.062-.246-.062-.615-.062-.615-.185v-.185c0-.062-.062-.062.062-.062a5.8 5.8 0 00.553.19zm.123.246a.06.06 0 00-.062.062c-.123 0-.123-.308.062-.246zm3.2-.369c.123 0 .185.123.185.246-.062 0-.123-.062-.185-.062zm-.369-.062c-.123-.431-.246-.8-.369-1.231.123.062.185.185.246.246 0-1.046-.123-2.154-.123-3.261a.953.953 0 01-.492.123 1.776 1.776 0 01-1.046-.369 2.416 2.416 0 01-.8.369.755.755 0 01-.738-.123c-.062 1.108-.123 2.154-.123 3.261.123-.062.185-.185.308-.246-.123.431-.246.923-.369 1.292-.246-.062-.554-.246-.615.185h-.492c.062 0 .062-.123.185-.246.062-1.661.123-3.261.185-4.984a.47.47 0 00-.308.123c0-.246.123-.492.369-.492.554-.062.985.492 1.538.492 0 .062-.062.062-.123.123.123 0 .308 0 .369-.062 0 .062-.062.123-.123.185a.55.55 0 00.492-.246l.185.185.185-.185a.78.78 0 00.554.246c0-.062-.123-.123-.123-.185a.915.915 0 00.369.062c0-.062-.123-.062-.123-.123.615 0 .923-.554 1.538-.492.246 0 .369.185.369.492-.123-.062-.185-.123-.308-.123.062 1.354.123 3.015.185 4.369 0 .185-.062.431 0 .554s.246.185.308.308h-.615c.12-.243-.188-.306-.495-.243z" fill="#db9c00"/><g data-name="Group 36152" fill="#996a00"><path data-name="Path 38172" d="M20.122 11.506a1.776 1.776 0 01-1.046-.369 2.416 2.416 0 01-.8.369.756.756 0 01-.738-.123v.246l.308.246v-.308a2.019 2.019 0 001.292-.369l.369.185a2.055 2.055 0 00.923.185 3.264 3.264 0 01-.615 1.969h.062l.062-.062v.123a.7.7 0 01.185-.492h.062c0 .246.185.554.123.8l.062.062a1.528 1.528 0 01-.062-.554 5.929 5.929 0 010-1.046h.062c0 .554.062 1.169.062 1.723l.308.246c0-.985-.062-1.969-.123-2.954a.953.953 0 01-.496.123z"/><path data-name="Path 38173" d="M22.03 13.353a6.687 6.687 0 00-.062-1.108 16.258 16.258 0 00-.123-1.785.51.51 0 00-.492-.185c-.492.062-.923.554-1.415.492a1.969 1.969 0 01-.308-.8v-.492a.767.767 0 00-.246-.677 1.47 1.47 0 00-.554-.123c-.062 0-.123.062-.185.123-.246-.123-.615-.185-.554.185.246-.123.492.185.492.431a1.634 1.634 0 01-.369 1.292c-.554 0-.923-.431-1.415-.492-.308 0-.431.123-.492.308a.415.415 0 01.369-.246c.554-.062.985.492 1.538.492 0 .062-.062.062-.123.123.123 0 .308 0 .369-.062 0 .062-.062.123-.123.185a.55.55 0 00.492-.246l.185.185.185-.185a.78.78 0 00.554.246c0-.062-.123-.123-.123-.185a.915.915 0 00.369.062c0-.062-.123-.062-.123-.123.615 0 .923-.554 1.538-.492.246 0 .369.185.369.492-.123-.062-.185-.123-.308-.123.062 1.354.123 3.015.185 4.369v.185l.369.308a12.587 12.587 0 00.001-2.154z"/><path data-name="Path 38174" d="M16.615 10.83v-.185a.226.226 0 00-.185.062z"/></g><path data-name="Path 38175" d="M16.676 10.707c-.062 1.6-.123 3.2-.185 4.738.123-.062.246-.246.369-.308.062-1.477.123-2.708.185-4.123a1.631 1.631 0 00-.369-.307z" fill="#db9c00"/><path data-name="Path 38176" d="M16.676 10.892l.369.308v-.185a1.631 1.631 0 00-.369-.308z" fill="#996a00"/><path data-name="Path 38177" d="M21.475 10.707c-.062.123-.308.185-.369.308v.554c.123 1.108.062 2.338.123 3.507l.185.185c.062.062.123.185.185.123a116.519 116.519 0 00-.124-4.677z" fill="#db9c00"/><path data-name="Path 38178" d="M21.475 10.707c-.062.123-.308.185-.369.308v.554c.062.985.062 2.092.123 3.2l.369.308a99.98 99.98 0 00-.123-4.37z" fill="#996a00"/><path data-name="Path 38179" d="M16.984 15.014c.062-.123.246-.185.308-.308s0-.308 0-.492c.062-.923.123-2.031.123-2.892-.123-.062-.185-.185-.308-.246 0 1.29-.061 2.646-.123 3.938z" fill="#db9c00"/><path data-name="Path 38180" d="M17.107 11.261l.308.246v-.185c-.123-.062-.185-.185-.308-.246.062.062 0 .123 0 .185z" fill="#996a00"/><path data-name="Path 38181" d="M20.737 11.322c.062 1.108.062 2.277.123 3.384l.246.246.062.062c-.062-1.292-.123-2.708-.185-3.877-.061.062-.184.123-.246.185z" fill="#db9c00"/><path data-name="Path 38182" d="M20.983 11.076c-.062.062-.185.123-.246.246.062 1.046.062 2.092.123 3.138l.308.246c-.062-1.23-.123-2.522-.185-3.63z" fill="#996a00"/><path data-name="Path 38183" d="M17.845 11.568a2.933 2.933 0 001.231 2.461 2.75 2.75 0 001.169-2.461 1.666 1.666 0 01-1.169-.369 1.837 1.837 0 01-1.231.369z" fill="#db9c00"/><path data-name="Path 38184" d="M17.845 11.568c0 .123.062.185.062.308l1.784 1.538a2.99 2.99 0 00.554-1.846 1.666 1.666 0 01-1.169-.369 1.837 1.837 0 01-1.231.369z" fill="#996a00"/><g data-name="Group 36153" fill="#db9c00"><path data-name="Path 38185" d="M17.107 15.752c.062 0 .123.062.185.062 0-.123-.123-.123-.185-.062z"/><path data-name="Path 38186" d="M20.861 15.813c.062 0 .123-.062.185-.062 0-.061-.185-.061-.185.062z"/><path data-name="Path 38187" d="M17.661 15.876c-.062-.062-.123-.062-.246-.062a.37.37 0 00.246.062z"/><path data-name="Path 38188" d="M20.491 15.876c.062 0 .246 0 .246-.062a.636.636 0 00-.246.062z"/><path data-name="Path 38189" d="M19.814 15.996h.246c0-.121-.184-.121-.246 0z"/><path data-name="Path 38190" d="M18.338 15.937c-.062 0-.246-.062-.246.061.062-.061.246.001.246-.061z"/><path data-name="Path 38191" d="M18.707 15.937c-.062 0-.246 0-.246.062a.37.37 0 00.246-.062z"/><path data-name="Path 38192" d="M19.445 15.999a.465.465 0 01.246.061c0-.123-.184-.123-.246-.061z"/></g><g data-name="Group 36154" fill="#f5feff"><path data-name="Path 38193" d="M21.291 16.429c-.185 0-.123-.308-.246-.369a.226.226 0 00-.185.062c.185-.123.246.185.246.369-.062 0-.062-.062-.123-.062-.123 0-.123.123-.246.123 0-.062-.062-.062-.185-.062-.062-.062 0-.185-.062-.185 0 .062.062.123.062.185-.062.062-.062.062-.062.123h-.123c0-.062 0-.123-.062-.123 0 .062-.123.062-.062.123a.19.19 0 01.123.062c0 .061-.062.061-.062.123.062 0 .062-.062.123-.123.123 0 .246-.062.308 0 .062 0 .062-.123.123-.123.123.123.246-.062.308-.062h.185v-.062c-.06-.06.001.001-.06.001zm-1.046.185c0-.062 0-.062.062-.062v.062s0 .061-.062 0zm.308 0v-.123c.062 0 .062.062 0 .123zm.185-.062h-.062c-.124-.061.062-.123.062-.002zm-.062.062a.06.06 0 01.062-.062c0 .062-.062.123-.062.062zm.185-.062c0-.123.123-.123.185-.062-.001.06-.124.06-.185.06z"/><path data-name="Path 38194" d="M17.169 16.184c-.062-.062-.062-.062-.123-.062v.062z"/><path data-name="Path 38195" d="M17.107 16.245h-.123c.062.062.062.062.123 0z"/><path data-name="Path 38196" d="M19.569 16.43v-.062h-.062a.06.06 0 00.062.062z"/><path data-name="Path 38197" d="M18.153 16.799c-.062-.062-.062-.123-.123-.185.123-.062.062-.246 0-.246s-.062.062-.123.062c0 .062.062.062.062.123-.062 0-.185.062-.246 0 0-.062 0-.123-.062-.123 0 .062.062.185-.062.246.062 0 .062-.062.123-.062.062.062.185 0 .246 0 .123.062.123.246.185.185.123 0 .123-.308.062-.431-.001.123.122.431-.062.431zm-.246-.246c0-.185.246 0 .062.062z"/><path data-name="Path 38198" d="M18.4 16.737c0-.123.062-.308 0-.369 0 .062-.062.246 0 .369z"/><path data-name="Path 38199" d="M19.876 16.491c-.062.062.062.062 0 .123 0 .062-.062.062-.123.062-.123-.062 0-.308-.062-.369 0 .062.062.185 0 .308-.062 0-.123 0-.123.062h.369s.062-.186-.061-.186z"/><path data-name="Path 38200" d="M19.63 16.491c0-.062-.062 0-.062 0-.123 0 .062.061.062 0z"/><path data-name="Path 38201" d="M20.061 16.491c-.062.062.062.123.062.185s-.062.061-.062.123c.062 0 .123-.246 0-.308zm.062.185a.06.06 0 01-.061-.062c-.001-.061.061 0 .061.062z"/><path data-name="Path 38202" d="M21.168 16.552c.062 0 .123.062.123 0-.061 0-.123-.062-.123 0z"/><path data-name="Path 38203" d="M19.261 16.737h-.062c0-.061 0-.123-.062-.123a.54.54 0 01-.431-.062c0 .062.062.123-.062.185-.062 0-.062-.123-.123-.123-.062.062.062.123.062.123 0 .062-.062.123-.123.185.062 0 .123-.123.185-.185h.369c0 .062.062.062.123.123.062 0 .062-.123.062-.123.123 0 .185 0 .246-.061.001-.124-.184-.062-.184.061zm-.185.123c-.062 0-.062-.062-.062-.123h-.246c0-.246.246 0 .369-.123.062.123.001.184-.061.246zm.246-.123c-.062-.061.062-.123.062-.061s0 .061-.062.061z"/><path data-name="Path 38204" d="M17.108 16.737v-.062s0-.062-.062 0c0-.061 0 .001.062.062z"/><path data-name="Path 38205" d="M17.169 16.737c.062.062.123 0 .123-.061-.061-.062-.123-.005-.123.061z"/><path data-name="Path 38206" d="M17.353 16.737h.062c0-.123-.123-.057-.062 0z"/><path data-name="Path 38207" d="M19.691 16.798c-.062 0-.062.123 0 .123z"/><path data-name="Path 38208" d="M19.753 16.86a.06.06 0 00.062.062c.123-.062-.062-.185-.062-.062z"/><path data-name="Path 38209" d="M17.538 16.43c.123.185-.123.246-.185.123 0-.062.062-.062.062-.123-.062 0-.062.123-.062.123-.246 0-.062-.308-.062-.431h-.062a.338.338 0 01-.185.308c0 .123.123.123.246.185a.37.37 0 00.246.062c.002-.124.125-.247.002-.247z"/></g></g></g></svg>