<svg xmlns="http://www.w3.org/2000/svg" width="15.491" height="19.567"><g data-name="Group 36158"><g data-name="Group 36157" fill="#521e81" stroke="#521e81" stroke-width=".5"><path data-name="Path 38210" d="M7.745.25a7.288 7.288 0 00-7.5 7.043 7.725 7.725 0 00.636 2.712 11.15 11.15 0 00.866 1.523l5.139 7.317a1.009 1.009 0 001.708 0l5.14-7.318a11.1 11.1 0 00.866-1.523 7.723 7.723 0 00.635-2.712A7.288 7.288 0 007.745.25zm6.047 9.433a10.216 10.216 0 01-.79 1.388l-5.14 7.318c-.1.145-.134.145-.235 0l-5.14-7.318a10.22 10.22 0 01-.79-1.388 7.013 7.013 0 01-.567-2.39 6.626 6.626 0 0113.227 0 7.019 7.019 0 01-.564 2.39z"/><path data-name="Path 38211" d="M7.745 3.565a3.736 3.736 0 103.968 3.729 3.859 3.859 0 00-3.968-3.729zm0 6.629a2.906 2.906 0 113.086-2.9 3 3 0 01-3.086 2.9z"/></g></g></svg>