<svg xmlns="http://www.w3.org/2000/svg" width="32.783" height="31.448"><g data-name="7Muqee.tif"><g data-name="Group 2871"><path data-name="Path 4675" d="M7.76 31.449h-.078c-.186-.041-.374-.077-.558-.125a2.345 2.345 0 01-1.591-3.151q1.234-3.813 2.478-7.623c.218-.672.148-.887-.408-1.292l-2.542-1.849-3.988-2.894a2.274 2.274 0 01-1.02-2.42A2.321 2.321 0 012.54 10.21q4-.006 8 0c.692 0 .886-.142 1.1-.794l1.255-3.867c.414-1.277.824-2.555 1.246-3.829A2.324 2.324 0 0117.249.174a2.5 2.5 0 011.452 1.708q1.2 3.742 2.424 7.478c.241.74.393.851 1.172.851h7.92a2.4 2.4 0 012.211 1.114 2.327 2.327 0 01-.741 3.2q-3.212 2.345-6.435 4.675c-.654.475-.711.67-.459 1.445.825 2.541 1.657 5.081 2.47 7.625a2.314 2.314 0 01-1.63 3.06l-.473.118h-.078a4.853 4.853 0 01-2.34-1.2q-2.822-2.056-5.65-4.1c-.584-.424-.814-.427-1.39-.01q-2.779 2.016-5.556 4.035a5.357 5.357 0 01-2.386 1.276z" fill="#cebc19"/></g></g></svg>