<svg xmlns="http://www.w3.org/2000/svg" width="25.332" height="25.332"><g data-name="calendar (4)" fill="#521e81"><path data-name="Path 38282" d="M3.959 15.833h2.638a.792.792 0 00.792-.792v-2.638a.792.792 0 00-.792-.792H3.959a.792.792 0 00-.792.792v2.64a.792.792 0 00.792.79zm0 0"/><path data-name="Path 38283" d="M3.959 22.166h2.638a.792.792 0 00.792-.792v-2.638a.792.792 0 00-.792-.792H3.959a.792.792 0 00-.792.792v2.64a.792.792 0 00.792.79zm0 0"/><path data-name="Path 38284" d="M11.347 15.833h2.639a.792.792 0 00.792-.792v-2.638a.792.792 0 00-.792-.792h-2.639a.792.792 0 00-.792.792v2.64a.792.792 0 00.792.79zm0 0"/><path data-name="Path 38285" d="M11.347 22.166h2.639a.792.792 0 00.792-.792v-2.638a.792.792 0 00-.792-.792h-2.639a.792.792 0 00-.792.792v2.64a.792.792 0 00.792.79zm0 0"/><path data-name="Path 38286" d="M18.736 15.833h2.64a.792.792 0 00.792-.792v-2.638a.792.792 0 00-.792-.792h-2.64a.792.792 0 00-.792.792v2.64a.792.792 0 00.792.79zm0 0"/><path data-name="Path 38287" d="M22.166 3.167h-1.055V1.055A1.056 1.056 0 0020.055 0H19a1.056 1.056 0 00-1.055 1.055v2.112H7.389V1.055A1.056 1.056 0 006.333 0H5.278a1.056 1.056 0 00-1.056 1.055v2.112H3.167A3.17 3.17 0 000 6.333v15.833a3.17 3.17 0 003.167 3.167h19a3.17 3.17 0 003.167-3.167V6.333a3.17 3.17 0 00-3.167-3.167zm1.055 19a1.057 1.057 0 01-1.055 1.055h-19a1.057 1.057 0 01-1.055-1.055V10.6h21.11zm0 0"/></g></svg>