<svg xmlns="http://www.w3.org/2000/svg" width="61.767" height="62"><g data-name="doctor (2)" fill="#fff"><path data-name="Path 38220" d="M32.767 35.5a1.5 1.5 0 101.5-1.5 1.5 1.5 0 00-1.5 1.5z"/><path data-name="Path 38221" d="M25.767 35.5a1.5 1.5 0 101.5-1.5 1.5 1.5 0 00-1.5 1.5z"/><path data-name="Path 38222" d="M57.853 18.328l-3.657-.812a3.019 3.019 0 01-2.195-1.98l-.1-.286A7 7 0 0055.767 9V7a7 7 0 00-14 0v2a7 7 0 003.863 6.249l-.1.286a3.018 3.018 0 01-2.2 1.98l-3.656.812a4.968 4.968 0 00-3.122 2.186A7.95 7.95 0 0033.767 20h-6a7.964 7.964 0 00-2.6.443 4.969 4.969 0 00-3.08-2.116l-3.657-.812a3.017 3.017 0 01-2.195-1.98l-.1-.286A7 7 0 0020 9V7A7 7 0 106 7v2a7 7 0 003.867 6.249l-.1.286a3.017 3.017 0 01-2.2 1.98l-3.657.812a4.97 4.97 0 00-3.915 4.881V31a1 1 0 001 1h18.772v.556a3.987 3.987 0 002 7.444h.525a9.009 9.009 0 002.323 3.551l-6.162 1.681a5.012 5.012 0 00-3.686 4.824V61a1 1 0 001 1h30a1 1 0 001-1V50.055a5.011 5.011 0 00-3.685-4.824L36.92 43.55A9 9 0 0039.242 40h.525a3.987 3.987 0 002-7.444V32h19a1 1 0 001-1v-7.792a4.968 4.968 0 00-3.914-4.88zM43.767 7a5 5 0 0110 0v2a4.99 4.99 0 01-.063.626A7.763 7.763 0 0048.939 8h-.343a7.768 7.768 0 00-4.766 1.626A4.971 4.971 0 0143.767 9zm.774 4.646A5.792 5.792 0 0148.597 10h.343a5.784 5.784 0 014.053 1.646 4.969 4.969 0 01-8.451 0zM48.767 16a6.96 6.96 0 001.241-.117l.1.285a4.956 4.956 0 00.718 1.364l-2.059 2.054-2.053-2.053a4.93 4.93 0 00.719-1.366l.094-.284a6.94 6.94 0 001.24.117zm-15 6a6.006 6.006 0 016 6h-18a6.006 6.006 0 016-6zm3.765 16.765l-.635-.318a13.942 13.942 0 00-12.261 0l-.636.318A6.989 6.989 0 0123.767 37v-3h14v3a6.945 6.945 0 01-.234 1.765zM26.767 58a1 1 0 011 1v1h-2v-1a1 1 0 011-1zm1-1.816V48.3l2.168 3.252a1 1 0 001.664 0l2.168-3.252v7.882A2.947 2.947 0 0031.952 60h-2.185v-1a3 3 0 00-2-2.817zm.654-10.505a8.73 8.73 0 004.691 0L30.767 49.2zM33.767 59a1 1 0 111 1 1 1 0 01-1-1zm-3-15a6.994 6.994 0 01-5.985-3.389l.75-.375a11.9 11.9 0 0110.472 0l.749.375A7 7 0 0130.767 44zm8-12h-17v-2h18v2zM8 7a5 5 0 1110 0v2a4.99 4.99 0 01-.063.626A7.763 7.763 0 0013.172 8h-.344a7.763 7.763 0 00-4.761 1.626A4.99 4.99 0 018 9zm.775 4.646A5.784 5.784 0 0112.828 10h.339a5.784 5.784 0 014.053 1.646 4.969 4.969 0 01-8.45 0zM13 16a6.96 6.96 0 001.241-.117l.1.285a4.956 4.956 0 00.718 1.364l-2.054 2.054-2.054-2.054a4.956 4.956 0 00.718-1.364l.1-.285A6.96 6.96 0 0013 16zM2 30v-6.792a2.983 2.983 0 012.349-2.929l3.657-.812a4.964 4.964 0 001.457-.59l2.83 2.83a1 1 0 001.414 0l2.83-2.83a4.964 4.964 0 001.457.59l3.657.812a2.967 2.967 0 011.679 1.068A8 8 0 0019.767 28v2zm19.767 8a2 2 0 110-4v3a8.935 8.935 0 00.059 1zm-2.789 9.161l6.789-1.852v10.875a3 3 0 00-2 2.816v1h-1v-7h-2v3h-4v-5.945a3.006 3.006 0 012.211-2.894zM16.767 58h4v2h-4zm24 2v-2h4v2zm4-9.945V56h-4v-3h-2v7h-1.183a2.947 2.947 0 00-1.817-3.816V45.309l6.79 1.852a3.008 3.008 0 012.21 2.894zm-5-12.055h-.059a8.935 8.935 0 00.059-1v-3a2 2 0 010 4zm20-8h-18v-2a7.992 7.992 0 00-3.42-6.549 2.979 2.979 0 011.77-1.171l3.656-.812a4.97 4.97 0 001.458-.59l2.83 2.83a1 1 0 001.413 0l2.83-2.83a4.964 4.964 0 001.457.59l3.657.812a2.983 2.983 0 012.349 2.928z"/><path data-name="Path 38223" d="M51.767 26h6v2h-6z"/><path data-name="Path 38224" d="M3.767 26h6v2h-6z"/></g></svg>