<svg xmlns="http://www.w3.org/2000/svg" width="16.465" height="21.074"><g fill="#521e81"><path d="M5.471 18.011a1.878 1.878 0 01-1.932 1.815h-.28a1.819 1.819 0 110-3.631l8.6-.006a4 4 0 003.3-1.874h-.131a2.892 2.892 0 01-1.264-.288 2.782 2.782 0 01-2.128.918H6.798v-1.388a5.715 5.715 0 005.235-5.532V2.908A2.041 2.041 0 0010.308.944v1.314a.747.747 0 01.4.65v5.117a4.61 4.61 0 01-9.2 0V2.832a.747.747 0 01.4-.65V.868A2.041 2.041 0 00.183 2.832v5.193a5.72 5.72 0 005.294 5.539v1.386H3.259a3.068 3.068 0 100 6.125h.28a3.169 3.169 0 003.259-3.062v-.575H5.471z"/><ellipse cx="1.439" cy="1.352" rx="1.439" ry="1.352" transform="translate(13.588 10.369)"/><path d="M3.229 2.91h.754a1.506 1.506 0 001.548-1.455A1.506 1.506 0 003.983 0h-.754v2.91zM8.982 0h-.766a1.506 1.506 0 00-1.548 1.455A1.506 1.506 0 008.216 2.91h.766z"/></g></svg>