<svg xmlns="http://www.w3.org/2000/svg" width="28.418" height="43"><defs><linearGradient id="a" x1=".5" x2=".5" y2="1" gradientUnits="objectBoundingBox"><stop offset="0" stop-color="#ec3f80"/><stop offset=".331" stop-color="#eb3b7b"/><stop offset=".726" stop-color="#e72e6c"/><stop offset="1" stop-color="#e3215e"/></linearGradient></defs><path data-name="Path 7114" d="M90.367 118.6l-1.1-.636a.29.29 0 01-.106-.4l1.4-2.416a.29.29 0 01.4-.106l1.1.636a.29.29 0 01.106.4l-1.404 2.422a.29.29 0 01-.396.1z" transform="translate(-81.696 -95.777)" fill="url(#a)"/><path data-name="Path 7115" d="M111.659 130.9l-1.1-.636a.29.29 0 01-.106-.4l1.395-2.416a.29.29 0 01.4-.106l1.1.636a.29.29 0 01.106.4l-1.395 2.416a.29.29 0 01-.4.106z" transform="translate(-99.272 -105.925)" fill="url(#a)"/><path data-name="Path 7116" d="M96.57 112.114l.544-.941a.435.435 0 00-.159-.594l-7.782-4.493a.435.435 0 00-.594.159l-.544.941a.435.435 0 00.159.594l7.782 4.493a.435.435 0 00.594-.159z" transform="translate(-80.751 -88.361)" fill="url(#a)"/><path data-name="Path 7117" d="M113.97 20.271l-9.086 15.737-6.564-3.79 9.086-15.737a.725.725 0 01.99-.265l5.309 3.065a.724.724 0 01.265.99z" transform="translate(-89.291 -14.143)" fill="url(#a)"/><path data-name="Path 7118" d="M163.075 11.32l.939-1.626a.725.725 0 00-.265-.99l-3.138-1.812a.725.725 0 00-.99.265l-.939 1.626z" transform="translate(-139.119 -6.446)" fill="url(#a)"/><path data-name="Path 7126" d="M3.411 0A3.411 3.411 0 110 3.411 3.411 3.411 0 013.411 0z" transform="translate(15.874 11.919)" fill="url(#a)"/><circle data-name="Ellipse 103" cx="1.526" cy="1.526" r="1.526" transform="translate(17.76 13.805)" fill="url(#a)"/><path data-name="Path 7119" d="M102.185 90.763c.01.108.017.218.017.328A3.406 3.406 0 01100.568 94a7.868 7.868 0 11-9.306 12.679h-4.8a11.463 11.463 0 1015.719-15.915z" transform="translate(-79.505 -75.761)" fill="url(#a)"/><path data-name="Path 7120" d="M62.28 174.956H49.033a.456.456 0 01-.456-.456v-1a.456.456 0 01.456-.456H62.28a.456.456 0 01.456.456v1a.456.456 0 01-.456.456z" transform="translate(-48.228 -143.683)" fill="url(#a)"/><path data-name="Path 7121" d="M116.728 184v10.372h9.072l-3.119-9.814a.8.8 0 00-.763-.558z" transform="translate(-104.486 -152.731)" fill="url(#a)"/><circle data-name="Ellipse 104" cx="1.47" cy="1.47" r="1.47" transform="translate(14.371 34.146)" fill="url(#a)"/><path data-name="Path 7122" d="M118.886 239.685h-11.619a.456.456 0 01-.456-.456v-1.1a.456.456 0 01.456-.456h11.619a.456.456 0 01.456.456v1.1a.456.456 0 01-.456.456z" transform="translate(-96.3 -197.034)" fill="url(#a)"/><g data-name="Group 4448"><path data-name="Path 7123" d="M150.1 83.778a1.875 1.875 0 10-1.875 1.875 1.877 1.877 0 001.875-1.875zm-1.875 1.177a1.177 1.177 0 111.177-1.177 1.178 1.178 0 01-1.179 1.176z" transform="translate(-128.937 -68.447)" fill="url(#a)"/><path data-name="Path 7124" d="M128.751 198.47a1.819 1.819 0 101.819 1.819 1.821 1.821 0 00-1.819-1.819zm0 2.94a1.121 1.121 0 111.121-1.121 1.123 1.123 0 01-1.121 1.121z" transform="translate(-112.91 -164.672)" fill="url(#a)"/><path data-name="Path 7125" d="M28.418 24.721a11.75 11.75 0 00-5.415-9.925 3.757 3.757 0 00-1.489-2.49l3.468-6a1.075 1.075 0 00-.393-1.467l-.155-.09.764-1.324a1.075 1.075 0 00-.393-1.467L21.666.144a1.073 1.073 0 00-1.467.393l-.764 1.324-.155-.09a1.075 1.075 0 00-1.467.393L8.902 17.599l-.307-.177a.785.785 0 00-1.072.284l-.544.941a.785.785 0 00.287 1.071l.743.429-.849 1.471a.64.64 0 00.234.873c1.2.694 1.2.722 1.42.722a.638.638 0 00.554-.32l.849-1.471 1.507.87-.849 1.471a.639.639 0 00.234.873l1.1.636a.638.638 0 00.873-.234l.849-1.471 1.116.644a.783.783 0 001.071-.287l.543-.941a.783.783 0 00-.287-1.071l-.307-.177 1.711-2.963a3.738 3.738 0 003.259-.12 7.514 7.514 0 01-2.434 13.32l-.078-.247a1.145 1.145 0 00-1.1-.8h-2.579a.8.8 0 00.011-.107v-1a.806.806 0 00-.8-.8H.805a.806.806 0 00-.8.8v1a.805.805 0 00.8.8h6.218a11.82 11.82 0 004.87 3.93v4.737h-.926a.806.806 0 00-.8.8v1.1a.806.806 0 00.8.8h11.619a.806.806 0 00.8-.8v-1.1a.806.806 0 00-.8-.8h-1.34l-1.343-4.225a11.8 11.8 0 008.514-11.344zM20.804.886a.375.375 0 01.513-.137l3.138 1.812a.376.376 0 01.138.513l-.764 1.324-3.789-2.192zM9.614 21.075l-.82 1.42-1-.577.82-1.42.955.552zm3.716 2.145l-.82 1.42-1-.577.819-1.42.322.186zm2.73-.584l-.544.941a.085.085 0 01-.117.031l-7.783-4.492a.086.086 0 01-.032-.117l.544-.941a.086.086 0 01.075-.043.085.085 0 01.043.012l7.783 4.493a.084.084 0 01.04.052.085.085 0 01-.009.065zm1.11-4.2l-1.7 2.951-5.959-3.441 8.906-15.433a.376.376 0 01.513-.138l5.308 3.065a.377.377 0 01.138.513l-3.46 5.992a3.81 3.81 0 00-1.632-.376 3.76 3.76 0 00-2.116 6.868zm-.947-3.105a3.062 3.062 0 113.062 3.062 3.066 3.066 0 01-3.062-3.062zm8.6 9.39a8.223 8.223 0 00-3.166-6.477 3.741 3.741 0 001.366-2.557v-.031a11.115 11.115 0 01-3.33 19.745l-.2-.641-.674-2.122a8.179 8.179 0 006.004-7.917zm-24.128 6.1v-1a.107.107 0 01.107-.107h13.25a.107.107 0 01.107.107v1a.107.107 0 01-.107.107H.805a.107.107 0 01-.107-.111zm7.2.8h4v3.166a11.121 11.121 0 01-4-3.165zm14.8 9.472v1.1a.107.107 0 01-.107.107H10.967a.107.107 0 01-.107-.107v-1.1a.107.107 0 01.107-.107h11.619a.107.107 0 01.107.108zm-10.1-.8v-8.671h4.839a.449.449 0 01.43.314l.178.559.789 2.481 1.688 5.312z" fill="none"/></g></svg>