<svg xmlns="http://www.w3.org/2000/svg" width="24.975" height="37.791"><path data-name="Path 7114" d="M7.621 20.062l-.968-.559a.255.255 0 01-.093-.348l1.226-2.124a.255.255 0 01.348-.093l.968.559a.255.255 0 01.093.348l-1.226 2.124a.255.255 0 01-.348.093z" fill="#fff"/><path data-name="Path 7115" d="M10.886 21.947l-.968-.559a.255.255 0 01-.093-.348l1.226-2.124a.255.255 0 01.348-.093l.968.559a.255.255 0 01.093.348l-1.226 2.124a.255.255 0 01-.348.093z" fill="#fff"/><path data-name="Path 7116" d="M13.903 20.875l.478-.827a.382.382 0 00-.14-.522l-6.84-3.949a.382.382 0 00-.522.14l-.478.827a.382.382 0 00.14.522l6.84 3.949a.382.382 0 00.522-.14z" fill="#fff"/><path data-name="Path 7117" d="M21.69 5.386l-7.985 13.832-5.769-3.332 7.985-13.831a.637.637 0 01.87-.233l4.666 2.694a.637.637 0 01.233.87z" fill="#fff"/><path data-name="Path 7118" d="M21.054 4.284l.825-1.429a.637.637 0 00-.233-.87L18.888.392a.637.637 0 00-.87.233l-.825 1.429z" fill="#fff"/><path data-name="Path 7126" d="M16.951 10.476a3 3 0 11-3 3 3 3 0 013-3z" fill="#fff"/><circle data-name="Ellipse 103" cx="1.341" cy="1.341" r="1.341" transform="translate(15.608 12.133)" fill="#fff"/><path data-name="Path 7119" d="M19.933 13.185c.009.1.015.191.015.289a2.993 2.993 0 01-1.436 2.555 6.915 6.915 0 11-8.179 11.143H6.118a10.074 10.074 0 1013.815-13.987z" fill="#fff"/><path data-name="Path 7120" d="M12.35 27.485H.707a.4.4 0 01-.4-.4v-.88a.4.4 0 01.4-.4H12.35a.4.4 0 01.4.4v.88a.4.4 0 01-.4.4z" fill="#fff"/><path data-name="Path 7121" d="M10.759 27.481v9.115h7.972l-2.741-8.625a.7.7 0 00-.67-.49z" fill="#fff"/><circle data-name="Ellipse 104" cx="1.292" cy="1.292" r="1.292" transform="translate(12.631 30.01)" fill="#fff"/><path data-name="Path 7122" d="M19.85 37.485H9.638a.4.4 0 01-.4-.4v-.968a.4.4 0 01.4-.4H19.85a.4.4 0 01.4.4v.968a.4.4 0 01-.4.4z" fill="#fff"/><g data-name="Group 4448"><path data-name="Path 7123" d="M18.597 13.474a1.648 1.648 0 10-1.643 1.649 1.649 1.649 0 001.643-1.649zm-1.643 1.034a1.034 1.034 0 111.034-1.034 1.035 1.035 0 01-1.034 1.034z" fill="#fff"/><path data-name="Path 7124" d="M13.923 29.704a1.6 1.6 0 101.6 1.6 1.6 1.6 0 00-1.6-1.6zm0 2.584a.985.985 0 11.985-.985.987.987 0 01-.985.985z" fill="#fff"/><path data-name="Path 7125" d="M24.975 21.726a10.327 10.327 0 00-4.758-8.72 3.3 3.3 0 00-1.309-2.186l3.048-5.278a.945.945 0 00-.345-1.289l-.136-.079.67-1.168a.945.945 0 00-.345-1.289L19.042.127a.943.943 0 00-1.289.345l-.672 1.163-.137-.079a.945.945 0 00-1.289.346L7.823 15.467l-.27-.156a.69.69 0 00-.941.252l-.478.827a.69.69 0 00.252.941l.653.377-.746 1.298a.562.562 0 00.206.767c1.057.61 1.055.635 1.248.635a.561.561 0 00.487-.281l.746-1.293 1.325.765-.746 1.293a.561.561 0 00.206.767l.968.559a.561.561 0 00.767-.206l.746-1.293.981.566a.688.688 0 00.941-.252l.478-.827a.689.689 0 00-.252-.941l-.271-.159 1.5-2.6a3.286 3.286 0 002.864-.106 6.6 6.6 0 01-2.141 11.7l-.069-.217a1.007 1.007 0 00-.963-.7h-2.267a.7.7 0 00.01-.094v-.883a.708.708 0 00-.707-.707H.707a.708.708 0 00-.707.707v.88a.708.708 0 00.707.707h5.465a10.389 10.389 0 004.28 3.454v4.159h-.814a.708.708 0 00-.707.707v.968a.708.708 0 00.707.707H19.85a.708.708 0 00.707-.707v-.965a.708.708 0 00-.707-.707h-1.177l-1.18-3.713a10.374 10.374 0 007.483-9.97zM18.284.779a.33.33 0 01.451-.121l2.758 1.592a.331.331 0 01.121.451l-.672 1.163-3.33-1.922zM8.449 18.522l-.72 1.248-.878-.507.72-1.248.84.485zm3.266 1.884l-.72 1.248-.878-.507.72-1.248.283.163zm2.4-.513l-.478.827a.075.075 0 01-.1.027l-6.84-3.949a.076.076 0 01-.028-.1l.478-.827a.076.076 0 01.065-.038.075.075 0 01.038.01l6.84 3.949a.074.074 0 01.035.046.075.075 0 01-.011.057zm.974-3.687l-1.5 2.593-5.238-3.024 7.836-13.569a.33.33 0 01.451-.121l4.665 2.696a.331.331 0 01.121.451l-3.041 5.267a3.348 3.348 0 00-1.434-.33 3.3 3.3 0 00-1.86 6.037zm-.831-2.731a2.691 2.691 0 112.691 2.691 2.694 2.694 0 01-2.691-2.692zm7.565 8.251a7.227 7.227 0 00-2.783-5.693 3.287 3.287 0 001.2-2.247v-.027a9.769 9.769 0 01-2.935 17.354l-.179-.564-.593-1.865a7.188 7.188 0 005.29-6.958zm-21.2 5.358v-.878a.094.094 0 01.094-.094h11.632a.094.094 0 01.094.094v.88a.094.094 0 01-.094.094H.707a.094.094 0 01-.094-.095zm6.326.707h3.513v2.783a9.774 9.774 0 01-3.523-2.782zm12.995 8.325v.968a.094.094 0 01-.094.094H9.639a.094.094 0 01-.094-.094v-.968a.094.094 0 01.094-.094h10.212a.094.094 0 01.093.094zm-8.878-.71v-7.614h4.257a.4.4 0 01.378.276l.156.492.693 2.181 1.479 4.665z" fill="none"/></g></svg>