<svg data-name="Group 6572" xmlns="http://www.w3.org/2000/svg" width="562.947" height="97.063"><g data-name="Group 6572"><g data-name="Group 4773" fill="#521e81"><path data-name="Path 8039" d="M77.047 28.077c-.509 2.035-1.164 4.681-1.946 7.938s-1.663 6.841-2.611 10.742-1.923 8.028-2.917 12.393-2.025 8.616-3.077 12.766-2.1 8.108-3.144 11.884-2 7.056-2.871 9.849a3.1 3.1 0 01-1.969 1.583 15.429 15.429 0 01-4.974.577 40.719 40.719 0 01-4.467-.249 17.882 17.882 0 01-4.342-1.018 12.7 12.7 0 01-3.6-2.035 9.22 9.22 0 01-2.487-3.177q-2.444-6.479-4.817-14.417t-4.7-16.2q-2.342-8.26-4.58-16.2t-4.432-14.417q.153 1.781.374 6.095t.577 10.041c.227 3.811.463 7.926.7 12.325s.488 8.707.748 12.9.5 8.085.712 11.692.42 6.547.6 8.831a15.259 15.259 0 01-.043 4.828 1.449 1.449 0 01-1.5 1.018h-6.989c-4.829 0-8.323-.95-10.459-2.861s-3.383-4.726-3.687-8.446c-.079-1.018-.158-2.736-.237-5.145s-.113-5.269-.136-8.571-.043-6.92-.066-10.867-.046-7.938-.033-12.008q-.053-8.26-.058-13.784c-.01-3.686-.033-6.751-.056-9.216s-.046-4.444-.046-5.97-.023-2.884-.079-4.071-.1-2.307-.148-3.37-.134-2.4-.271-4a1.419 1.419 0 01.646-1.459 2.652 2.652 0 011.357-.441h17.785A19.168 19.168 0 0128.071 7.2a14.466 14.466 0 015.608 4.9 32.76 32.76 0 014.015 8.571q1.694 5.275 3.38 12.517t3.8 16.713q2.12 9.464 5.247 21.281 1.391-7.87 2.352-13.083t1.627-8.707c.442-2.329.816-4.251 1.109-5.778s.565-2.94.791-4.252.5-2.737.792-4.252.644-3.426 1.051-5.721.905-5.145 1.515-8.571 1.368-7.768 2.294-13.026a3.658 3.658 0 01.771-1.459 2.815 2.815 0 012.227-.7h19.821a21.789 21.789 0 016.615.826 10.049 10.049 0 014.071 2.352 8.971 8.971 0 012.216 3.743 24.351 24.351 0 01.938 5.145q.24 2.918.464 9.464t.329 14.734q.1 8.192.259 16.961t.2 16.26l.091 12.71c.034 3.471.034 5.507 0 6.095a2.662 2.662 0 01-.386 1.459c-.224.294-.723.441-1.491.441h-6.988q-7.244 0-10.46-2.861a10.717 10.717 0 01-3.595-7.429q-.119-1.391-.1-5.088.016-3.68.113-8.639t.249-10.866c.1-3.935.158-7.859.17-11.748s.023-7.689.011-11.375-.063-6.947-.13-9.74z"/><path data-name="Path 8040" d="M144.121 97.063a38.692 38.692 0 01-14.755-2.477 25.817 25.817 0 01-9.77-6.8 28.586 28.586 0 01-5.665-10.1 54.238 54.238 0 01-2.419-12.393 59.566 59.566 0 01.612-14.926 31.8 31.8 0 015.212-13.026 28.486 28.486 0 0110.991-9.215c4.681-2.329 10.65-3.494 17.945-3.494q16.011 0 23.575 7.813t8.731 21.914a72.783 72.783 0 01.144 8.706 44.271 44.271 0 01-1.378 9.464 41.512 41.512 0 01-3.563 9.148 27.75 27.75 0 01-6.275 7.881 29.216 29.216 0 01-9.645 5.461 41.2 41.2 0 01-13.74 2.044zm1.381-55.519c-3.224 0-5.71.826-7.486 2.476a14.24 14.24 0 00-3.82 5.97 25.9 25.9 0 00-1.3 7.372 62.888 62.888 0 00.091 6.547q.695 8.379 3.685 12.325a9.494 9.494 0 007.949 3.935 9.242 9.242 0 007.078-2.793 17.337 17.337 0 003.891-6.739 32.586 32.586 0 001.482-8.254 56.533 56.533 0 00-.023-7.237q-.526-6.36-3.178-9.973-2.649-3.629-8.369-3.63z"/><path data-name="Path 8041" d="M220.73 97.063q-9.785 0-15.74-2.861a23.927 23.927 0 01-13.691-16.52 65.177 65.177 0 01-1.528-9.215c-.089-1.1-.17-3.257-.216-6.479s-.089-6.943-.1-11.183-.046-8.74-.1-13.535-.092-9.317-.1-13.592-.056-8.073-.112-11.375-.147-5.586-.25-6.864c-.158-1.865-.112-2.94.113-3.245s.986-.441 2.251-.441h4.951a19.908 19.908 0 016.423.893 11.822 11.822 0 014.263 2.409 9.9 9.9 0 012.453 3.494 14.42 14.42 0 01.983 4.252c.126 1.436.2 4.24.249 8.39s.092 9.023.126 14.609a21.533 21.533 0 016.795-8.447q3.969-2.731 10.832-2.737 11.569 0 18.353 7.621t8.038 22.739a72.988 72.988 0 01.146 8.639 49.312 49.312 0 01-1.266 9.34 39.138 39.138 0 01-3.323 9.023 24.77 24.77 0 01-6.163 7.689 30.737 30.737 0 01-9.657 5.337 40.475 40.475 0 01-13.73 2.059zm1.131-55.519q-4.578 0-6.978 2.408a14.325 14.325 0 00-3.515 5.846 24.828 24.828 0 00-1.177 7.3c-.043 2.59.023 4.851.181 6.8q.729 8.769 3.449 12.518a8.8 8.8 0 007.553 3.743c3.053 0 5.36-.95 6.942-2.861a17.237 17.237 0 003.382-6.8 33.026 33.026 0 001.052-8.005c.032-2.714-.025-4.828-.146-6.355q-.6-7.107-3.052-10.867-2.479-3.728-7.69-3.727z"/><path data-name="Path 8042" d="M264.826 10.923a8.9 8.9 0 013.019-8.006Q271.289 0 277.512 0c3.642 0 6.356.746 8.119 2.228a8.236 8.236 0 012.963 5.914 9.234 9.234 0 01-2.848 7.814c-2.161 2.08-5.485 3.109-9.974 3.109q-10.278-.018-10.946-8.142zm16.021 84.873a21.249 21.249 0 01-6.478-.825 10.513 10.513 0 01-4.127-2.352 9.1 9.1 0 01-2.34-3.743 21.187 21.187 0 01-1-5.145c-.1-1.266-.194-3.064-.26-5.4s-.1-5.552-.1-9.656-.034-9.317-.079-15.627-.124-14.123-.215-23.44c-.067-1.866.045-2.963.36-3.3.239-.26.9-.384 2-.384h4.951a23.44 23.44 0 016.479.758 9.972 9.972 0 014.128 2.284 9.419 9.419 0 012.34 3.686 19.668 19.668 0 01.972 4.828c.1 1.267.182 3.178.215 5.722s.09 5.993.159 10.358.114 9.781.135 16.26.035 14.293.035 23.44a3.185 3.185 0 01-.463 2.035 3 3 0 01-2.115.509z"/></g></g><g data-name="Group 6573"><g data-name="Group 4775" fill="#521e81"><path data-name="Path 8043" d="M389.245 28.076c-.51 2.035-1.166 4.681-1.947 7.938s-1.663 6.841-2.613 10.742-1.92 8.028-2.916 12.393-2.023 8.616-3.076 12.766-2.1 8.108-3.143 11.884-2 7.056-2.874 9.849a3.1 3.1 0 01-1.963 1.583 15.452 15.452 0 01-4.977.577 40.781 40.781 0 01-4.469-.249 17.89 17.89 0 01-4.34-1.018 12.687 12.687 0 01-3.6-2.035 9.226 9.226 0 01-2.488-3.177q-2.443-6.479-4.817-14.417t-4.7-16.2q-2.34-8.26-4.58-16.2t-4.432-14.417q.154 1.781.373 6.095t.577 10.041c.225 3.811.463 7.926.7 12.325s.486 8.707.745 12.9.5 8.085.712 11.692.419 6.547.6 8.831a15.163 15.163 0 01-.046 4.828 1.447 1.447 0 01-1.5 1.018h-6.99c-4.827 0-8.322-.95-10.458-2.861s-3.381-4.726-3.686-8.446c-.08-1.018-.158-2.736-.238-5.145s-.114-5.269-.135-8.571-.045-6.92-.066-10.867-.048-7.938-.034-12.008q-.052-8.26-.057-13.784c-.011-3.686-.034-6.751-.057-9.216s-.044-4.444-.044-5.97-.024-2.884-.08-4.071-.1-2.307-.149-3.37-.135-2.4-.271-4a1.423 1.423 0 01.644-1.459 2.66 2.66 0 011.356-.441h17.789a19.173 19.173 0 018.266 1.583 14.45 14.45 0 015.607 4.9 32.783 32.783 0 014.015 8.571q1.7 5.275 3.379 12.517t3.8 16.713q2.12 9.464 5.248 21.281 1.391-7.87 2.352-13.083t1.626-8.707c.442-2.329.814-4.251 1.109-5.778s.566-2.94.792-4.252.5-2.737.79-4.252.646-3.426 1.051-5.721.907-5.145 1.516-8.571 1.368-7.768 2.3-13.026a3.637 3.637 0 01.768-1.459 2.819 2.819 0 012.228-.7h19.822a21.771 21.771 0 016.613.826 10.02 10.02 0 014.072 2.352 8.981 8.981 0 012.217 3.743 24.382 24.382 0 01.938 5.145q.235 2.918.463 9.464t.328 14.734q.1 8.192.259 16.961t.206 16.26q.048 7.5.089 12.71c.032 3.471.032 5.507 0 6.095a2.672 2.672 0 01-.385 1.459c-.227.294-.721.441-1.493.441h-6.988q-7.242 0-10.458-2.861a10.732 10.732 0 01-3.6-7.429q-.117-1.391-.1-5.088c.013-2.454.045-5.337.114-8.639s.147-6.92.248-10.866.158-7.859.171-11.748.021-7.689.011-11.375-.057-6.947-.124-9.74z"/><path data-name="Path 8044" d="M442.863 95.796q-7.122 0-10.393-2.793a11.242 11.242 0 01-3.709-8.006c-.135-1.7-.249-4.591-.339-8.706s-.133-8.786-.147-14.044-.044-10.8-.1-16.644-.089-11.353-.089-16.52-.037-9.7-.1-13.591-.156-6.558-.281-8.006c-.1-1.266.519-1.911 1.876-1.911h44.722a2.748 2.748 0 011.425.385 1.656 1.656 0 01.746 1.4l.113 7.5a10.2 10.2 0 01-1.584 6.162q-1.643 2.358-7.362 2.352h-17.536l.2 17.911h18.048a2.755 2.755 0 011.425.385 1.641 1.641 0 01.745 1.4l.115 7.5a10.26 10.26 0 01-1.585 6.162q-1.643 2.357-7.359 2.352h-11.057l.168 18.929h27.952a2.589 2.589 0 011.436.441 1.657 1.657 0 01.746 1.334l.113 7.5a10.217 10.217 0 01-1.583 6.163q-1.645 2.358-7.361 2.352z"/><path data-name="Path 8045" d="M491.224 7.482a1.737 1.737 0 01.7-1.459 2.34 2.34 0 011.3-.441q8.635 0 16.159-.577t11.825-.577a66.865 66.865 0 0118.285 2.16 29.793 29.793 0 0112.369 6.739 28.722 28.722 0 017.4 11.816 71.631 71.631 0 013.346 17.4 95.567 95.567 0 01-.426 20.138 44.767 44.767 0 01-5.87 17.47 33.745 33.745 0 01-13.026 12.257q-8.446 4.648-21.913 4.636c-4.15 0-7.948-.091-11.4-.249a33.33 33.33 0 01-8.954-1.526 13.574 13.574 0 01-6.027-3.81 11.767 11.767 0 01-2.615-6.988c-.089-1.1-.156-2.748-.213-4.952s-.1-4.828-.147-7.881-.068-6.411-.068-10.1-.011-7.564-.011-11.624q-.017-12.585-.068-20.071t-.2-11.749c-.1-2.838-.2-4.975-.271-6.411a107.796 107.796 0 01-.175-4.201zm29.378 69.507q7.125 0 11.117-3.053a18.115 18.115 0 005.9-7.746 31.648 31.648 0 002.192-10.289 75.308 75.308 0 00-.113-10.55 57.042 57.042 0 00-1.47-9.34 19.636 19.636 0 00-2.962-6.671 11.869 11.869 0 00-5.1-4 19.825 19.825 0 00-7.735-1.334c-.937 0-2.114.045-3.551.124s-3.155.215-5.179.385q.137 4.7.284 11.115t.282 13.467c.091 4.7.158 9.442.227 14.225s.078 9.215.078 13.275a41.14 41.14 0 003.46.317 49.57 49.57 0 002.573.077z"/></g></g></svg>