<svg id="appointment" xmlns="http://www.w3.org/2000/svg" width="65.867" height="65.867" viewBox="0 0 65.867 65.867">
  <g id="Group_36310" data-name="Group 36310">
    <g id="Group_36309" data-name="Group 36309">
      <path id="Path_38306" data-name="Path 38306" d="M59.435,5.66H53.3v-1.8a3.859,3.859,0,1,0-7.719,0v1.8H23.971v-1.8a3.859,3.859,0,1,0-7.719,0V5.708a1.284,1.284,0,0,0-.343-.048H10.784a6.44,6.44,0,0,0-6.432,6.432V34.005a1.286,1.286,0,1,0,2.573,0V18.911H53.3a1.286,1.286,0,1,0,0-2.573H6.924V12.093a3.864,3.864,0,0,1,3.859-3.859h5.126a1.289,1.289,0,0,0,.343-.048V9.841a3.859,3.859,0,0,0,7.719,0V8.233H45.584V9.841a3.859,3.859,0,1,0,7.719,0V8.233h6.132a3.864,3.864,0,0,1,3.859,3.859V60.978a2.316,2.316,0,1,1-4.633,0V57.65a1.287,1.287,0,0,0-1.286-1.286H42.41a1.286,1.286,0,1,0,0,2.573H56.088v2.041a4.86,4.86,0,0,0,.585,2.316H4.889a2.318,2.318,0,0,1-2.316-2.316V58.936H31.367a1.286,1.286,0,0,0,0-2.573H18.513a10.549,10.549,0,1,0-13.747,0H1.286A1.287,1.287,0,0,0,0,57.65v3.329a4.894,4.894,0,0,0,4.889,4.889H60.978a4.895,4.895,0,0,0,4.889-4.889V12.093A6.44,6.44,0,0,0,59.435,5.66ZM21.4,9.841a1.286,1.286,0,1,1-2.573,0V3.859a1.286,1.286,0,1,1,2.573,0Zm29.331,0a1.286,1.286,0,0,1-2.573,0V3.859a1.286,1.286,0,0,1,2.573,0ZM3.664,48.371a7.976,7.976,0,1,1,7.976,7.976A7.985,7.985,0,0,1,3.664,48.371Z" fill="#521e81"/>
    </g>
  </g>
  <g id="Group_36312" data-name="Group 36312" transform="translate(58.05 16.338)">
    <g id="Group_36311" data-name="Group 36311">
      <path id="Path_38307" data-name="Path 38307" d="M453.436,127.377a1.286,1.286,0,1,0,.377.91A1.3,1.3,0,0,0,453.436,127.377Z" transform="translate(-451.24 -127)" fill="#521e81"/>
    </g>
  </g>
  <g id="Group_36314" data-name="Group 36314" transform="translate(36.224 56.364)">
    <g id="Group_36313" data-name="Group 36313">
      <path id="Path_38308" data-name="Path 38308" d="M283.776,438.506a1.287,1.287,0,1,0,.377.91A1.294,1.294,0,0,0,283.776,438.506Z" transform="translate(-281.58 -438.13)" fill="#521e81"/>
    </g>
  </g>
  <g id="Group_36316" data-name="Group 36316" transform="translate(24.217 39.108)">
    <g id="Group_36315" data-name="Group 36315">
      <path id="Path_38309" data-name="Path 38309" d="M193.134,304a4.889,4.889,0,1,0,4.889,4.889A4.894,4.894,0,0,0,193.134,304Zm0,7.2a2.316,2.316,0,1,1,2.316-2.316A2.318,2.318,0,0,1,193.134,311.2Z" transform="translate(-188.245 -304)" fill="#521e81"/>
    </g>
  </g>
  <g id="Group_36318" data-name="Group 36318" transform="translate(36.224 39.108)">
    <g id="Group_36317" data-name="Group 36317">
      <path id="Path_38310" data-name="Path 38310" d="M286.467,304a4.889,4.889,0,1,0,4.889,4.889A4.894,4.894,0,0,0,286.467,304Zm0,7.2a2.316,2.316,0,1,1,2.316-2.316A2.318,2.318,0,0,1,286.467,311.2Z" transform="translate(-281.578 -304)" fill="#521e81"/>
    </g>
  </g>
  <g id="Group_36320" data-name="Group 36320" transform="translate(48.231 39.108)">
    <g id="Group_36319" data-name="Group 36319">
      <path id="Path_38311" data-name="Path 38311" d="M379.8,304a4.889,4.889,0,1,0,4.889,4.889A4.894,4.894,0,0,0,379.8,304Zm0,7.2a2.316,2.316,0,1,1,2.316-2.316A2.318,2.318,0,0,1,379.8,311.2Z" transform="translate(-374.912 -304)" fill="#521e81"/>
    </g>
  </g>
  <g id="Group_36322" data-name="Group 36322" transform="translate(12.21 25.729)">
    <g id="Group_36321" data-name="Group 36321">
      <path id="Path_38312" data-name="Path 38312" d="M99.8,200a4.889,4.889,0,1,0,4.889,4.889A4.894,4.894,0,0,0,99.8,200Zm0,7.2a2.316,2.316,0,1,1,2.316-2.316A2.318,2.318,0,0,1,99.8,207.2Z" transform="translate(-94.912 -200)" fill="#521e81"/>
    </g>
  </g>
  <g id="Group_36324" data-name="Group 36324" transform="translate(36.224 25.729)">
    <g id="Group_36323" data-name="Group 36323">
      <path id="Path_38313" data-name="Path 38313" d="M286.467,200a4.889,4.889,0,1,0,4.889,4.889A4.894,4.894,0,0,0,286.467,200Zm0,7.2a2.316,2.316,0,1,1,2.316-2.316A2.318,2.318,0,0,1,286.467,207.2Z" transform="translate(-281.578 -200)" fill="#521e81"/>
    </g>
  </g>
  <g id="Group_36326" data-name="Group 36326" transform="translate(48.231 25.729)">
    <g id="Group_36325" data-name="Group 36325">
      <path id="Path_38314" data-name="Path 38314" d="M379.8,200a4.889,4.889,0,1,0,4.889,4.889A4.894,4.894,0,0,0,379.8,200Zm0,7.2a2.316,2.316,0,1,1,2.316-2.316A2.318,2.318,0,0,1,379.8,207.2Z" transform="translate(-374.912 -200)" fill="#521e81"/>
    </g>
  </g>
  <g id="Group_36328" data-name="Group 36328" transform="translate(24.217 25.729)">
    <g id="Group_36327" data-name="Group 36327">
      <path id="Path_38315" data-name="Path 38315" d="M193.134,200a4.889,4.889,0,1,0,4.889,4.889A4.894,4.894,0,0,0,193.134,200Zm0,7.2a2.316,2.316,0,1,1,2.316-2.316A2.318,2.318,0,0,1,193.134,207.2Z" transform="translate(-188.245 -200)" fill="#521e81"/>
    </g>
  </g>
  <g id="Group_36330" data-name="Group 36330" transform="translate(6.586 44.859)">
    <g id="Group_36329" data-name="Group 36329">
      <path id="Path_38316" data-name="Path 38316" d="M60.831,349.077a1.287,1.287,0,0,0-1.819,0l-4.189,4.19-1.432-1.432a1.287,1.287,0,1,0-1.819,1.819L53.913,356a1.286,1.286,0,0,0,1.819,0l5.1-5.1A1.287,1.287,0,0,0,60.831,349.077Z" transform="translate(-51.194 -348.7)" fill="#521e81"/>
    </g>
  </g>
</svg>
