<svg xmlns="http://www.w3.org/2000/svg" width="307.705" height="102"><g data-name="Group 23"><path data-name="Path 59" d="M306.705 87.485A13.514 13.514 0 01293.194 101H14.514A13.516 13.516 0 011 87.485V14.514A13.515 13.515 0 0114.514 1h278.679a13.513 13.513 0 0113.511 13.514z" fill="none" stroke="#521e81" stroke-width="2"/><g data-name="Group 19"><path data-name="Path 60" d="M80.72 67.099a49.5 49.5 0 01-4.476 8.358c-2.908 4.426-7.005 9.939-12.082 9.985-4.512.042-5.671-2.937-11.794-2.9s-7.4 2.955-11.915 2.913c-5.077-.047-8.96-5.024-11.868-9.45-8.13-12.376-8.979-26.9-3.966-34.622 3.564-5.488 9.184-8.7 14.47-8.7 5.381 0 8.765 2.952 13.214 2.952 4.316 0 6.947-2.956 13.168-2.956 4.7 0 9.685 2.56 13.236 6.989-11.631 6.373-9.742 22.989 2.013 27.431z" fill="#521e81"/><g data-name="Group 18"><path data-name="Path 61" d="M60.752 27.733a15.1 15.1 0 003.354-11.187 16.315 16.315 0 00-10.534 5.666c-2.289 2.781-4.179 6.905-3.443 10.912 4.031.126 8.201-2.282 10.623-5.391z" fill="#521e81"/></g></g><g data-name="Group 22" fill="#521e81"><g data-name="Group 20"><path data-name="Path 62" d="M105.487 41.195L93.841 75.476h5.333l3.477-10.526h11.276l3.575 10.526h5.48l-11.7-34.281zm2.763 5.636c.393 1.531.818 3.12 1.363 4.837l3.139 9.09h-8.933l3.095-9.149a73.942 73.942 0 001.336-4.778z"/><path data-name="Path 63" d="M138.054 50.081a9.7 9.7 0 00-8.246 3.956l-.207-3.41h-4.744l.029.436c.139 2.124.2 4.462.2 7.819v26.423h5.187V72.974a9.106 9.106 0 007.09 3.047 10.693 10.693 0 007.859-3.342c2.272-2.4 3.47-5.853 3.47-9.976a13.8 13.8 0 00-3.013-9.109 9.869 9.869 0 00-7.625-3.513zm-1.292 4.294c4.624 0 6.693 4.283 6.693 8.528 0 5.474-2.64 8.875-6.89 8.875a6.289 6.289 0 01-6.111-4.813 6.631 6.631 0 01-.184-1.679v-4.171a7.879 7.879 0 01.165-1.28c.026-.142.054-.284.074-.421a6.568 6.568 0 016.252-5.039z"/><path data-name="Path 64" d="M164.763 50.081a9.709 9.709 0 00-8.246 3.956l-.206-3.41h-4.743l.026.436c.141 2.126.2 4.462.2 7.819v26.423h5.187V72.974a9.1 9.1 0 007.088 3.047 10.707 10.707 0 007.863-3.342c2.268-2.4 3.468-5.853 3.468-9.976a13.8 13.8 0 00-3.015-9.109 9.864 9.864 0 00-7.622-3.513zm-1.291 4.294c4.622 0 6.691 4.283 6.691 8.528 0 5.474-2.642 8.875-6.889 8.875a6.287 6.287 0 01-6.11-4.813 6.6 6.6 0 01-.183-1.679v-4.171a7.726 7.726 0 01.165-1.284c.026-.139.052-.279.075-.417a6.564 6.564 0 016.251-5.039z"/><path data-name="Path 65" d="M198.223 55.72c-4.841-1.875-6.391-3.349-6.391-6.072 0-2.293 1.822-4.606 5.9-4.606a11.792 11.792 0 016.089 1.528l.439.271 1.464-4.329-.289-.169a15.036 15.036 0 00-7.553-1.694c-6.614 0-11.234 3.9-11.234 9.494 0 4.507 2.893 7.658 9.1 9.916 4.4 1.645 6.04 3.33 6.04 6.219 0 3.27-2.528 5.3-6.593 5.3a14.2 14.2 0 01-7.476-2.119l-.449-.289-1.392 4.429.255.169a17.766 17.766 0 008.766 2.254c8.914 0 12.075-5.436 12.075-10.09-.003-4.8-2.537-7.759-8.751-10.212z"/><path data-name="Path 66" d="M216.308 44.721l-5.087 1.6v4.309h-3.724v4.145h3.724v12.7c0 3.069.587 5.221 1.8 6.58a6.65 6.65 0 005.018 1.971 12.2 12.2 0 004.009-.619l.291-.1-.249-4.153-.5.153a7.809 7.809 0 01-2.412.279c-2.01 0-2.868-1.272-2.868-4.257V54.772h6.257v-4.145h-6.257z"/><path data-name="Path 67" d="M235.419 50.081c-7.257 0-12.325 5.417-12.325 13.168 0 7.52 4.9 12.772 11.928 12.772h.048c5.937 0 12.325-4.136 12.325-13.218a13.1 13.1 0 00-3.305-9.174 11.542 11.542 0 00-8.671-3.548zm-.149 4.095c4.666 0 6.79 4.549 6.79 8.777 0 5.2-2.9 8.973-6.888 8.973h-.05c-3.934 0-6.789-3.711-6.789-8.823-.001-4.443 2.144-8.927 6.936-8.927z"/><path data-name="Path 68" d="M263.281 50.326l-.311-.079a4.972 4.972 0 00-1.29-.162 7.4 7.4 0 00-6.5 4.176l-.152-3.63h-4.655l.03.436c.138 2.053.2 4.358.2 7.469l-.048 16.944h5.187V62.257a13.408 13.408 0 01.143-2.01c.585-3.175 2.728-5.227 5.457-5.227a13.288 13.288 0 011.392.087l.555.057z"/><path data-name="Path 69" d="M274.942 50.032c-6.905 0-11.728 5.517-11.728 13.417 0 7.606 4.8 12.523 12.224 12.523a19.891 19.891 0 008.212-1.576l.312-.141-1-3.865-.433.175a16.06 16.06 0 01-6.5 1.162c-2.254 0-7.451-.743-7.769-7.52l16.741.05.068-.332a11.6 11.6 0 00.155-2.165c.006-5.41-2.688-11.728-10.282-11.728zm-.346 3.947a5.117 5.117 0 013.807 1.452 7.382 7.382 0 011.787 4.828h-11.831c.483-2.998 2.357-6.281 6.237-6.281z"/></g><g data-name="Group 21"><path data-name="Path 70" d="M93.841 17.776a37.8 37.8 0 014.975-.336c3.344 0 5.725.674 7.3 2a7.1 7.1 0 012.568 5.85 8.211 8.211 0 01-2.595 6.306c-1.712 1.517-4.494 2.336-8 2.336a36.1 36.1 0 01-4.253-.193zm2.354 14.372a16.8 16.8 0 002.354.1c4.975.023 7.676-2.5 7.676-6.885.027-3.876-2.381-6.259-7.3-6.259a14.783 14.783 0 00-2.729.216z"/><path data-name="Path 71" d="M117.029 34.05a5.848 5.848 0 01-6.2-5.994c0-3.9 2.861-6.187 6.418-6.187 3.719 0 6.232 2.431 6.232 5.97 0 4.333-3.343 6.211-6.418 6.211zm.08-1.589c2.247 0 3.932-1.9 3.932-4.55 0-1.974-1.1-4.453-3.879-4.453-2.756 0-3.959 2.311-3.959 4.525 0 2.552 1.6 4.477 3.878 4.477z"/><path data-name="Path 72" d="M127.199 22.134l1.739 5.9c.347 1.3.7 2.527.936 3.731h.08c.294-1.18.722-2.431 1.15-3.707l2.113-5.922h1.98l2.006 5.825a43.47 43.47 0 011.15 3.8h.08a32.3 32.3 0 01.99-3.779l1.845-5.85h2.327l-4.173 11.651h-2.14l-1.979-5.561a38.119 38.119 0 01-1.152-3.852h-.053a32.041 32.041 0 01-1.178 3.876l-2.086 5.537h-2.14l-3.906-11.651z"/><path data-name="Path 73" d="M145.951 25.288c0-1.228-.027-2.191-.108-3.154h2.087l.133 1.9h.054a4.9 4.9 0 014.279-2.167c1.792 0 4.573.962 4.573 4.958v6.957h-2.352v-6.716c0-1.877-.777-3.465-3-3.465a3.357 3.357 0 00-3.156 2.166 2.855 2.855 0 00-.161.987v7.029h-2.353z"/><path data-name="Path 74" d="M160.796 16.694h2.354v17.091h-2.354z"/><path data-name="Path 75" d="M172.326 34.05a5.848 5.848 0 01-6.206-5.994c0-3.9 2.861-6.187 6.419-6.187 3.717 0 6.232 2.431 6.232 5.97 0 4.333-3.344 6.211-6.42 6.211zm.078-1.589c2.247 0 3.933-1.9 3.933-4.55 0-1.974-1.1-4.453-3.878-4.453-2.756 0-3.96 2.311-3.96 4.525 0 2.552 1.6 4.477 3.879 4.477z"/><path data-name="Path 76" d="M190.862 30.993a17.559 17.559 0 00.188 2.792h-2.114l-.214-1.468h-.079a4.977 4.977 0 01-3.959 1.733c-2.621 0-3.959-1.661-3.959-3.346 0-2.816 2.781-4.357 7.783-4.333v-.24c0-.962-.293-2.72-2.941-2.7a6.755 6.755 0 00-3.4.865l-.536-1.42a9.118 9.118 0 014.281-1.011c3.985 0 4.948 2.431 4.948 4.766zm-2.3-3.154c-2.568-.048-5.483.361-5.483 2.624a1.968 1.968 0 002.193 2.022 3.265 3.265 0 003.182-1.95 1.934 1.934 0 00.108-.674z"/><path data-name="Path 77" d="M205.814 16.694v14.081c0 1.035.029 2.214.107 3.01h-2.113l-.106-2.022h-.053a4.845 4.845 0 01-4.387 2.287c-3.13 0-5.564-2.383-5.564-5.922-.027-3.9 2.676-6.258 5.8-6.258a4.452 4.452 0 013.907 1.757h.053v-6.933zm-2.353 10.182a3.521 3.521 0 00-.107-.915 3.4 3.4 0 00-3.4-2.431c-2.435 0-3.879 1.925-3.879 4.477 0 2.383 1.311 4.332 3.825 4.332a3.5 3.5 0 003.45-2.527 3.292 3.292 0 00.107-.914z"/><path data-name="Path 78" d="M220.66 34.05a5.848 5.848 0 01-6.205-5.994c0-3.9 2.864-6.187 6.419-6.187 3.72 0 6.233 2.431 6.233 5.97 0 4.333-3.344 6.211-6.418 6.211zm.081-1.589c2.247 0 3.931-1.9 3.931-4.55 0-1.974-1.095-4.453-3.877-4.453-2.756 0-3.959 2.311-3.959 4.525 0 2.552 1.6 4.477 3.878 4.477z"/><path data-name="Path 79" d="M230.079 25.288c0-1.228-.028-2.191-.108-3.154h2.087l.135 1.9h.052a4.9 4.9 0 014.279-2.167c1.792 0 4.574.962 4.574 4.958v6.957h-2.349v-6.716c0-1.877-.775-3.465-3-3.465a3.361 3.361 0 00-3.156 2.166 2.878 2.878 0 00-.16.987v7.029h-2.353z"/><path data-name="Path 80" d="M253.43 19.346v2.792h3.369v1.608h-3.369v6.283c0 1.444.456 2.263 1.766 2.263a4.87 4.87 0 001.364-.144l.106 1.613a7.073 7.073 0 01-2.086.289 3.563 3.563 0 01-2.542-.891 4.228 4.228 0 01-.909-3.058v-6.355h-2.006v-1.613h2.006v-2.142z"/><path data-name="Path 81" d="M259.449 16.694h2.353v7.27h.055a4 4 0 011.686-1.492 4.973 4.973 0 012.407-.6c1.738 0 4.52.962 4.52 4.983v6.933h-2.35v-6.692c0-1.9-.776-3.467-3-3.467a3.383 3.383 0 00-3.156 2.118 2.336 2.336 0 00-.161 1.011v7.029h-2.353z"/><path data-name="Path 82" d="M275.631 28.32c.055 2.865 2.061 4.045 4.415 4.045a9.8 9.8 0 003.586-.579l.428 1.492a11.563 11.563 0 01-4.334.747c-3.96 0-6.367-2.384-6.367-5.874 0-3.539 2.328-6.307 6.1-6.307 4.228 0 5.323 3.346 5.323 5.489a4.889 4.889 0 01-.079 1.01zm6.876-1.516a3.126 3.126 0 00-3.238-3.443 3.665 3.665 0 00-3.611 3.443z"/></g></g></g></svg>