<svg xmlns="http://www.w3.org/2000/svg" width="1118" height="765"><defs><clipPath id="a"><path data-name="Rectangle 3107" transform="translate(-60.344 2219)" fill="#fff" stroke="#707070" d="M0 0h1118v765H0z"/></clipPath></defs><g data-name="Mask Group 64" transform="translate(60.344 -2219)" clip-path="url(#a)"><path data-name="Path 8121" d="M498.62 2658.586c89.954 60.969 238.726 58.271 332.196 90.432 86.415 29.735 166.158 87.617 206.36 169.686 18.865 38.515 28.563 81.224 30.535 124.066 4.454 96.767-35.721 199.689-118.127 250.622-102.936 63.63-234.728 32.606-355.743 33.213a647.377 647.377 0 00-260.826 56.51c-39 17.498-76.958 39.107-119.03 46.679-58.725 10.566-120.604-8.204-168.365-43.966s-82.193-87.266-104.408-142.641c-33.574-83.706-41.857-178.87-93.974-252.475-29.964-42.325-74.704-78.693-81.524-130.1-2.517-18.973.626-38.399 6.918-56.47 27.953-80.286 109.96-125.586 178.265-176.194a753.751 753.751 0 00156.077-155.877c41.527-55.897 78.964-120.758 142.622-148.97 102.787-45.547 126.98 84.965 143.225 153.427a422.533 422.533 0 0058.332 134.863c12.593 19.078 28.76 34.513 47.467 47.195z" fill="#f4edf8" opacity=".54"/></g></svg>