<svg xmlns="http://www.w3.org/2000/svg" width="779.751" height="650.675"><g data-name="Group 36333"><path data-name="Path 8065" d="M282.292 32.417c-11.8-8.132-13.97-8.132-25.772 0a2.246 2.246 0 01-3.124-3.123c8.132-11.8 8.132-13.972 0-25.774A2.246 2.246 0 01256.52.396c11.8 8.132 13.97 8.132 25.772 0a2.246 2.246 0 013.124 3.124c-8.132 11.8-8.132 13.97 0 25.774a2.245 2.245 0 01-3.124 3.123zM261.978 8.98c2.634 5.411 2.634 9.442 0 14.855 5.413-2.634 9.444-2.632 14.856 0-2.632-5.413-2.634-9.443 0-14.855-5.413 2.634-9.443 2.631-14.856.001z" fill="#fe9595" opacity=".5"/><path data-name="Path 38239" d="M776.23 650.278c-11.8-8.132-13.97-8.132-25.772 0a2.246 2.246 0 01-3.124-3.123c8.132-11.8 8.132-13.972 0-25.774a2.246 2.246 0 013.124-3.124c11.8 8.132 13.97 8.132 25.772 0a2.246 2.246 0 013.124 3.124c-8.132 11.8-8.132 13.97 0 25.774a2.245 2.245 0 01-3.124 3.123zm-20.314-23.437c2.634 5.411 2.634 9.442 0 14.855 5.413-2.634 9.444-2.632 14.856 0-2.632-5.413-2.634-9.443 0-14.855-5.413 2.634-9.443 2.631-14.856.001z" fill="#fe9595" opacity=".5"/><path data-name="Path 8066" d="M683.457 176.033c4.3 15.567 7.291 18.558 22.859 22.858a2.23 2.23 0 010 4.3c-15.569 4.3-18.558 7.289-22.859 22.858a2.229 2.229 0 01-4.3 0c-4.3-15.569-7.291-18.56-22.859-22.858a2.23 2.23 0 010-4.3c15.569-4.3 18.558-7.291 22.859-22.858a2.229 2.229 0 014.3 0zm-2.148 41.909c3.388-9.42 7.485-13.515 16.9-16.9-9.421-3.388-13.515-7.482-16.9-16.9-3.388 9.418-7.484 13.515-16.9 16.9 9.415 3.385 13.511 7.48 16.899 16.9z" fill="#ced3e2" opacity=".5"/><path data-name="Path 38240" d="M28.793 382.95c4.3 15.567 7.291 18.558 22.859 22.858a2.23 2.23 0 010 4.3c-15.569 4.3-18.558 7.289-22.859 22.858a2.229 2.229 0 01-4.3 0c-4.3-15.569-7.291-18.56-22.859-22.858a2.23 2.23 0 010-4.3c15.569-4.3 18.558-7.291 22.859-22.858a2.229 2.229 0 014.3 0zm-2.148 41.909c3.388-9.42 7.485-13.515 16.9-16.9-9.421-3.388-13.515-7.482-16.9-16.9-3.388 9.418-7.484 13.515-16.9 16.9 9.415 3.385 13.511 7.48 16.899 16.9z" fill="#ced3e2" opacity=".5"/></g></svg>