<svg xmlns="http://www.w3.org/2000/svg" width="299.711" height="98.039"><defs><linearGradient id="b" x1=".5" x2=".5" y2="1" gradientUnits="objectBoundingBox"><stop offset="0" stop-color="#006aa2"/><stop offset=".345" stop-color="#2f8da6"/><stop offset=".786" stop-color="#66b6ac"/><stop offset="1" stop-color="#7cc6af"/></linearGradient><linearGradient id="c" y1=".5" x2="1" y2=".5" gradientUnits="objectBoundingBox"><stop offset="0" stop-color="#4ab59d"/><stop offset="1" stop-color="#dfe385"/></linearGradient><linearGradient id="d" x1=".5" x2=".5" y2="1" gradientUnits="objectBoundingBox"><stop offset="0" stop-color="#e4282d"/><stop offset=".316" stop-color="#ba2d4e"/><stop offset=".777" stop-color="#83357b"/><stop offset="1" stop-color="#6e388d"/></linearGradient><linearGradient id="e" x1=".5" x2=".5" y2="1" gradientUnits="objectBoundingBox"><stop offset="0" stop-color="#f07165"/><stop offset=".659" stop-color="#faa460"/><stop offset="1" stop-color="#ffba5e"/></linearGradient><clipPath id="a"><path data-name="Path 34" d="M1569.842 158.515l-13.514-7.8-26.066-15.051c-1.448-.836-2.89-.33-2.89 1.417V198.4c0 1.31 1.031 1.874 2.288 1.148l26.668-15.4 13.514-7.8 12.99-7.5c1.524-.881 1.378-2.088.092-2.78s-13.082-7.553-13.082-7.553z" transform="translate(-1527.371 -135.267)" fill="none"/></clipPath></defs><g data-name="Group 17"><g data-name="Path 29" fill="none"><path d="M299.711 84.789a13.249 13.249 0 01-13.246 13.25H13.249A13.251 13.251 0 010 84.789v-71.54A13.251 13.251 0 0113.249 0h273.216a13.248 13.248 0 0113.246 13.249z"/><path d="M286.465 97.04c3.27 0 6.346-1.275 8.659-3.589a12.172 12.172 0 003.587-8.661V13.25a12.17 12.17 0 00-3.587-8.662A12.163 12.163 0 00286.465 1H13.25a12.169 12.169 0 00-8.66 3.588A12.169 12.169 0 001 13.25v71.54a12.17 12.17 0 003.588 8.662 12.168 12.168 0 008.661 3.588h273.216m0 1H13.25C5.933 98.04 0 92.106 0 84.79V13.25C0 5.933 5.933 0 13.25 0h273.215c7.315 0 13.246 5.933 13.246 13.25v71.54c0 7.316-5.931 13.25-13.246 13.25z" fill="#521e81"/></g><g data-name="Group 12" clip-path="url(#a)" transform="translate(22.481 19.907)"><path data-name="Path 30" d="M1527.371 133.505V199.9l33.479-33.2z" transform="translate(-1527.371 -134.538)" fill="url(#b)"/><path data-name="Path 31" d="M1569.842 157.615l-13.514-7.8-28.956-16.719v.241l33.479 33.2z" transform="translate(-1527.371 -134.367)" fill="url(#c)"/><path data-name="Path 32" d="M1527.371 223.353v.241l28.956-16.72 13.514-7.8-8.991-8.915z" transform="translate(-1527.371 -157.994)" fill="url(#d)"/><path data-name="Path 33" d="M1593.5 174.941l-8.992 8.917 8.991 8.915 15.444-8.916z" transform="translate(-1551.026 -151.694)" fill="url(#e)"/></g><g data-name="Group 13" fill="#521e81"><path data-name="Path 35" d="M233.25 65.05a8.358 8.358 0 01-3.444-.695 6.493 6.493 0 01-2.617-2.141h-.211a26 26 0 01.211 3.206v7.945h-2.923v-27.98h2.378l.4 2.643h.141a6.8 6.8 0 012.626-2.29 7.975 7.975 0 013.434-.7 7.137 7.137 0 015.928 2.625q2.087 2.625 2.088 7.364 0 4.757-2.122 7.391a7.154 7.154 0 01-5.889 2.632zm-.422-17.529a5.182 5.182 0 00-4.281 1.638q-1.321 1.638-1.358 5.215v.652q0 4.07 1.358 5.823a5.159 5.159 0 004.351 1.752 4.525 4.525 0 003.921-2.025 9.611 9.611 0 001.417-5.585 9.253 9.253 0 00-1.417-5.54 4.667 4.667 0 00-3.992-1.93z"/><path data-name="Path 36" d="M248.037 64.697h-2.925V37.285h2.925z"/><path data-name="Path 37" d="M264.85 64.697l-.582-2.749h-.14a8.1 8.1 0 01-2.881 2.458 8.754 8.754 0 01-3.585.643 6.45 6.45 0 01-4.5-1.48 5.393 5.393 0 01-1.63-4.21q0-5.848 9.354-6.131l3.278-.105v-1.2a4.89 4.89 0 00-.979-3.356 4.017 4.017 0 00-3.127-1.084 12.732 12.732 0 00-5.461 1.48l-.9-2.237a13.747 13.747 0 013.128-1.216 13.538 13.538 0 013.409-.441q3.453 0 5.118 1.533t1.664 4.915v13.177zm-6.606-2.061a5.94 5.94 0 004.289-1.5 5.544 5.544 0 001.559-4.194v-1.744l-2.926.122a10.639 10.639 0 00-5.03 1.085 3.268 3.268 0 00-1.541 2.986 3.008 3.008 0 00.96 2.412 3.981 3.981 0 002.689.833z"/><path data-name="Path 38" d="M268.714 45.389h3.134l4.228 11.011a41.98 41.98 0 011.728 5.444h.141q.229-.9.959-3.076t4.782-13.379h3.137l-8.3 21.986a10.96 10.96 0 01-2.881 4.626 6.126 6.126 0 01-4.042 1.364 11.8 11.8 0 01-2.643-.3v-2.343a10.212 10.212 0 002.167.212q3.013 0 4.3-3.383l1.074-2.748z"/></g><g data-name="Group 15" fill="#521e81"><path data-name="Path 39" d="M179.077 47.182a6.808 6.808 0 012.867 5.453c0 2.986-1.7 4.4-3.393 5.734a2.839 2.839 0 00-1.131 1.981 2.215 2.215 0 001.051 1.735l1.454 1.129c1.777 1.495 3.391 2.869 3.391 5.657 0 3.8-3.675 7.631-10.62 7.631-5.857 0-8.682-2.786-8.682-5.776a5.811 5.811 0 013.11-4.927c2.5-1.535 5.9-1.734 7.713-1.858a4.229 4.229 0 01-1.212-2.743 3.649 3.649 0 01.4-1.577c-.446.042-.889.081-1.294.081a6.385 6.385 0 01-6.7-6.339 7.267 7.267 0 012.584-5.412 11.012 11.012 0 017.231-2.222h8.318l-2.585 1.454zm-2.867 17.932a6.277 6.277 0 00-.928-.042 16.142 16.142 0 00-4.242.65c-.887.32-3.474 1.29-3.474 4.158s2.788 4.929 7.11 4.929c3.875 0 5.937-1.861 5.937-4.363 0-2.064-1.333-3.151-4.407-5.332zm1.172-7.674a4.083 4.083 0 001.007-2.949c0-2.907-1.736-7.43-5.086-7.43a3.772 3.772 0 00-2.828 1.333 4.664 4.664 0 00-.889 2.988c0 2.705 1.575 7.188 5.05 7.188a4.137 4.137 0 002.746-1.13z"/><path data-name="Path 40" d="M153.652 64.468a9.515 9.515 0 01-9.837-9.517c0-5.282 4.314-9.8 10.445-9.8a9.426 9.426 0 019.634 9.515 9.852 9.852 0 01-10.242 9.802zm5.04-3.265a7.3 7.3 0 001.211-4.477c0-3.549-1.693-10.322-6.693-10.322a5.615 5.615 0 00-3.628 1.373 6.1 6.1 0 00-1.856 4.92c0 3.989 1.976 10.559 6.856 10.559a5.152 5.152 0 004.11-2.056z"/><path data-name="Path 41" d="M131.8 64.468a9.515 9.515 0 01-9.839-9.517c0-5.282 4.315-9.8 10.444-9.8a9.426 9.426 0 019.635 9.515 9.852 9.852 0 01-10.24 9.802zm5.04-3.265a7.306 7.306 0 001.21-4.477c0-3.549-1.694-10.322-6.694-10.322a5.615 5.615 0 00-3.628 1.373 6.1 6.1 0 00-1.855 4.92c0 3.989 1.975 10.559 6.855 10.559a5.155 5.155 0 004.112-2.056z"/><path data-name="Path 42" d="M118.881 63.837l-5.8 1.338a42.968 42.968 0 01-6.688.687c-11.189 0-15.444-8.229-15.444-14.675 0-7.863 6.039-15.158 16.377-15.158a23.334 23.334 0 016.2.851 15.816 15.816 0 015.352 2.513l-3.366 3.2-1.418.323 1.013-1.622a11.584 11.584 0 00-8.674-3.809c-6.405 0-11.23 4.866-11.23 11.96 0 7.619 5.514 14.794 14.349 14.794a12.071 12.071 0 005.149-1.014V56.7l-6.12.324 3.242-1.745h8.594l-1.053 1.013a.947.947 0 00-.407.647c-.042.366-.08 1.542-.08 1.947z"/><path data-name="Path 43" d="M191.893 62.669c-1.338-.122-1.618-.364-1.618-1.947V37.779c.007-.087.013-.177.021-.261.164-1.418.568-1.661 1.827-2.392h-5.8l-3.041 1.46h3.1v.018-.015 25.026c0 .809-.16.932-1.093 2.147h7.176l1.5-.889c-.695-.086-1.385-.123-2.072-.204z"/><path data-name="Path 44" d="M208.384 63.042c-.441.242-.884.526-1.325.725a9.383 9.383 0 01-3.909.765 8.6 8.6 0 01-5.354-1.57 10.42 10.42 0 01-4.1-8.495 9.124 9.124 0 019.219-9.3 7.83 7.83 0 014.149 1.128 6.664 6.664 0 012.814 3.983l-9.458 3.826-3.1.241c1.005 5.113 4.467 8.089 8.293 8.089a10.4 10.4 0 004.911-1.406zm-3.782-12c.763-.281 1.166-.523 1.166-1.086 0-1.609-1.811-3.462-3.986-3.462-1.612 0-4.629 1.249-4.629 5.6 0 .684.08 1.409.123 2.135z"/><g data-name="Group 14"><path data-name="Path 45" d="M212.271 45.443v2.656h-.323v-2.656h-.879v-.275h2.08v.275z"/><path data-name="Path 46" d="M215.892 48.1v-2.681h-.015l-.819 2.681h-.252l-.826-2.681h-.01V48.1h-.293v-2.932h.5l.747 2.37h.01l.736-2.37h.509V48.1z"/></g></g><g data-name="Group 16" fill="#521e81"><path data-name="Path 47" d="M99.002 28.135h-2.014a13.31 13.31 0 00-.573-2.354h-2.908a12.143 12.143 0 00-.592 2.354H91.02q0-.245 1.47-4.029a31.7 31.7 0 001.47-4.167h2.379a34.772 34.772 0 001.331 4.106 35.973 35.973 0 011.332 4.09zm-2.908-3.556a35.719 35.719 0 01-1.077-3.512h-.1q0 .245-1.115 3.512z"/><path data-name="Path 48" d="M107.118 28.135h-1.554a15.35 15.35 0 00-1.731-2.725 15.011 15.011 0 01-2.064-3.557h-.1a22.217 22.217 0 01.157 2.493q0 1.555.088 3.789h-1.549q.095-1.951.095-4.286 0-2.3-.095-3.909h1.87a11.834 11.834 0 001.554 2.663 15.643 15.643 0 011.9 3.355h.094a23.914 23.914 0 01-.151-2.518q0-1.705-.088-3.5h1.573q-.089 1.561-.088 3.909.001 2.368.089 4.286z"/><path data-name="Path 49" d="M116.242 23.754a4.646 4.646 0 01-1.146 3.123 4 4 0 01-3.21 1.334q-.932 0-2.568-.076.082-1.9.082-4.286 0-2.291-.082-3.909h1.1q.271 0 .806-.019t.7-.019a4.243 4.243 0 013.295 1.133 3.917 3.917 0 011.023 2.719zm-1.719.271a3.033 3.033 0 00-.705-2.036 2.671 2.671 0 00-2.153-.827 6.664 6.664 0 00-.743.056q.063 1.26.063 2.632 0 1.5.063 2.983a4.171 4.171 0 00.819.082 2.377 2.377 0 002-.841 3.242 3.242 0 00.656-2.049z"/><path data-name="Path 50" d="M124.654 28.135h-1.864a12.351 12.351 0 00-1.12-2.751 1.467 1.467 0 00-1.259-.523q-.365 0-.7.006 0 1.618.057 3.267h-1.75q.082-1.9.081-4.286 0-2.291-.081-3.909h1.089c.126 0 .389-.006.79-.019s.771-.019 1.111-.019q2.889 0 2.889 1.976a2.216 2.216 0 01-1.649 2.185v.094a1.966 1.966 0 011.114.991 21.9 21.9 0 011.292 2.988zm-2.361-5.791q0-1.252-1.611-1.252a5.48 5.48 0 00-1.045.088q.069.976.069 2.543.345.012.585.012 2.002 0 2.002-1.391z"/><path data-name="Path 51" d="M133.677 23.887a4.521 4.521 0 01-1.184 3.2 3.84 3.84 0 01-2.927 1.272 3.7 3.7 0 01-2.782-1.168 4.112 4.112 0 01-1.121-2.968 4.522 4.522 0 011.183-3.2 3.839 3.839 0 012.927-1.272 3.7 3.7 0 012.782 1.165 4.108 4.108 0 011.122 2.971zm-1.738.183a3.249 3.249 0 00-.674-2.134 2.073 2.073 0 00-1.662-.818 1.918 1.918 0 00-1.561.824 3.289 3.289 0 00-.642 2.083 3.241 3.241 0 00.676 2.131 2.073 2.073 0 001.659.822 1.916 1.916 0 001.561-.828 3.293 3.293 0 00.644-2.08z"/><path data-name="Path 52" d="M137.236 28.135h-1.781q.082-1.951.082-4.286 0-2.3-.082-3.909h1.781q-.082 1.586-.081 3.909 0 2.373.081 4.286z"/><path data-name="Path 53" d="M146.36 23.754a4.643 4.643 0 01-1.146 3.123 4 4 0 01-3.21 1.334q-.931 0-2.568-.076.082-1.9.082-4.286 0-2.291-.082-3.909h1.1q.271 0 .806-.019t.7-.019a4.244 4.244 0 013.3 1.133 3.918 3.918 0 011.018 2.719zm-1.719.271a3.033 3.033 0 00-.705-2.036 2.672 2.672 0 00-2.153-.827 6.687 6.687 0 00-.743.056q.063 1.26.063 2.632 0 1.5.063 2.983a4.173 4.173 0 00.819.082 2.377 2.377 0 002-.841 3.244 3.244 0 00.657-2.049z"/><path data-name="Path 54" d="M158.467 28.135h-2.014a13.273 13.273 0 00-.573-2.354h-2.913a12.184 12.184 0 00-.591 2.354h-1.895q0-.245 1.47-4.029a31.629 31.629 0 001.47-4.167h2.379a34.726 34.726 0 001.332 4.106 35.949 35.949 0 011.335 4.09zm-2.908-3.556a35.671 35.671 0 01-1.076-3.512h-.1a36.826 36.826 0 01-1.114 3.512z"/><path data-name="Path 55" d="M165.806 22.087a2.454 2.454 0 01-1.118 2.222 4.968 4.968 0 01-2.74.717c-.2 0-.338 0-.422-.012q0 1.184.069 3.122h-1.769q.081-1.819.082-4.286 0-2.267-.082-3.909h1.1c.155 0 .453-.006.893-.019s.822-.019 1.146-.019a3.6 3.6 0 012.02.541 1.83 1.83 0 01.821 1.643zm-1.625.346q0-1.347-1.788-1.347a5.085 5.085 0 00-.944.094q.07 1.189.069 2.694.157.012.365.012 2.298.001 2.298-1.453z"/><path data-name="Path 56" d="M173.355 22.087a2.454 2.454 0 01-1.117 2.222 4.975 4.975 0 01-2.742.717c-.2 0-.338 0-.421-.012q0 1.184.069 3.122h-1.769q.082-1.819.082-4.286 0-2.267-.082-3.909h1.1q.233 0 .894-.019t1.146-.019a3.6 3.6 0 012.021.541 1.83 1.83 0 01.819 1.643zm-1.624.346q0-1.347-1.788-1.347a5.079 5.079 0 00-.944.094q.069 1.189.069 2.694c.1.008.227.012.365.012q2.297.001 2.297-1.453z"/><path data-name="Path 57" d="M185.698 23.887a4.519 4.519 0 01-1.183 3.2 3.84 3.84 0 01-2.927 1.272 3.7 3.7 0 01-2.782-1.168 4.115 4.115 0 01-1.12-2.968 4.519 4.519 0 011.184-3.2 3.839 3.839 0 012.927-1.272 3.706 3.706 0 012.782 1.165 4.11 4.11 0 011.119 2.971zm-1.737.183a3.249 3.249 0 00-.674-2.134 2.073 2.073 0 00-1.662-.818 1.918 1.918 0 00-1.561.824 3.286 3.286 0 00-.642 2.083 3.24 3.24 0 00.677 2.131 2.072 2.072 0 001.658.822 1.915 1.915 0 001.561-.828 3.29 3.29 0 00.643-2.08z"/><path data-name="Path 58" d="M194.227 28.135h-1.554a15.339 15.339 0 00-1.731-2.725 15 15 0 01-2.064-3.557h-.1a22.329 22.329 0 01.157 2.493q0 1.555.088 3.789h-1.549q.094-1.951.095-4.286 0-2.3-.095-3.909h1.869a11.855 11.855 0 001.555 2.663 15.654 15.654 0 011.9 3.355h.094a23.794 23.794 0 01-.151-2.518q0-1.705-.088-3.5h1.573q-.088 1.561-.088 3.909.004 2.368.089 4.286z"/></g></g></svg>