<svg xmlns="http://www.w3.org/2000/svg" width="49.119" height="44.654"><g data-name="calendar (3)"><g data-name="Group 36163"><g data-name="Group 36162"><path data-name="Path 38225" d="M48 18.978a1.055 1.055 0 00-1.116 1.116v12.28a2.239 2.239 0 01-2.233 2.233h-2.23a3.289 3.289 0 00-3.349 3.349v2.231a2.239 2.239 0 01-2.233 2.233H3.349a1.055 1.055 0 01-1.116-1.116v-21.21a1.055 1.055 0 00-1.116-1.116A1.055 1.055 0 000 20.094v21.211a3.289 3.289 0 003.349 3.349h34.942a5.236 5.236 0 003.907-1.675l5.247-5.247a5.685 5.685 0 001.675-3.907V20.094A1.055 1.055 0 0048 18.978zM41.19 40.97c0-.223.112-.447.112-.781v-2.233a1.055 1.055 0 011.116-1.116h2.233a2.178 2.178 0 00.781-.112z" fill="#fff"/></g></g><g data-name="Group 36165"><g data-name="Group 36164"><path data-name="Path 38226" d="M45.77 3.349h-7.814V1.116a1.117 1.117 0 10-2.233 0v2.233H13.4V1.116A1.055 1.055 0 0012.284 0a1.055 1.055 0 00-1.116 1.116v2.233H3.349A3.289 3.289 0 000 6.698v8.929a1.055 1.055 0 001.116 1.116H48a1.055 1.055 0 001.119-1.116V6.698a3.289 3.289 0 00-3.349-3.349zm1.116 11.163H2.233V6.698a1.055 1.055 0 011.116-1.116h7.815V8.15a2.161 2.161 0 00-1.116 1.9 2.233 2.233 0 104.465 0 2.161 2.161 0 00-1.116-1.9V5.582h22.326V8.15a2.161 2.161 0 00-1.116 1.9 2.233 2.233 0 104.465 0 2.161 2.161 0 00-1.116-1.9V5.582h7.815a1.055 1.055 0 011.116 1.116v7.814z" fill="#fff"/></g></g><g data-name="Group 36167"><g data-name="Group 36166"><circle data-name="Ellipse 823" cx="2.233" cy="2.233" r="2.233" fill="#fff" transform="translate(17.862 21.211)"/></g></g><g data-name="Group 36169"><g data-name="Group 36168"><circle data-name="Ellipse 824" cx="2.233" cy="2.233" r="2.233" fill="#fff" transform="translate(26.792 21.211)"/></g></g><g data-name="Group 36171"><g data-name="Group 36170"><circle data-name="Ellipse 825" cx="2.233" cy="2.233" r="2.233" fill="#fff" transform="translate(35.723 21.211)"/></g></g><g data-name="Group 36173"><g data-name="Group 36172"><circle data-name="Ellipse 826" cx="2.233" cy="2.233" r="2.233" fill="#fff" transform="translate(8.931 31.258)"/></g></g><g data-name="Group 36175"><g data-name="Group 36174"><circle data-name="Ellipse 827" cx="2.233" cy="2.233" r="2.233" fill="#fff" transform="translate(17.862 31.258)"/></g></g><g data-name="Group 36177"><g data-name="Group 36176"><circle data-name="Ellipse 828" cx="2.233" cy="2.233" r="2.233" fill="#fff" transform="translate(26.792 31.258)"/></g></g></g></svg>