<svg xmlns="http://www.w3.org/2000/svg" width="13.123" height="13.147"><path data-name="Icon feather-phone" d="M12.623 9.594v1.828a1.219 1.219 0 01-1.329 1.219 12.062 12.062 0 01-5.261-1.871 11.885 11.885 0 01-3.656-3.657A12.062 12.062 0 01.506 1.829 1.219 1.219 0 011.719.5h1.828a1.219 1.219 0 011.219 1.048 7.826 7.826 0 00.427 1.713 1.219 1.219 0 01-.274 1.286l-.774.774a9.752 9.752 0 003.657 3.657l.774-.774a1.219 1.219 0 011.286-.274 7.826 7.826 0 001.713.427 1.219 1.219 0 011.048 1.237z" fill="none" stroke="#707070" stroke-linecap="round" stroke-linejoin="round"/></svg>