<svg xmlns="http://www.w3.org/2000/svg" width="40.356" height="40.357" viewBox="0 0 40.356 40.357">
  <g id="clock_1_" data-name="clock (1)" transform="translate(0.498 0.5)">
    <path id="Path_38304" data-name="Path 38304" d="M19.68,0A19.679,19.679,0,1,0,39.358,19.678,19.7,19.7,0,0,0,19.68,0Zm0,36.536A16.858,16.858,0,1,1,36.537,19.678,16.877,16.877,0,0,1,19.68,36.536Z" fill="#ea3878" stroke="#ea3878" stroke-width="1"/>
    <path id="Path_38305" data-name="Path 38305" d="M106.34,53.153H97.092V43.044a1.41,1.41,0,1,0-2.821,0V54.563a1.41,1.41,0,0,0,1.41,1.41H106.34a1.41,1.41,0,1,0,0-2.821Z" transform="translate(-76.541 -33.804)" fill="#ea3878" stroke="#ea3878" stroke-width="1"/>
  </g>
</svg>
