<svg xmlns="http://www.w3.org/2000/svg" width="16.976" height="25.693"><g data-name="Group 3193"><path data-name="Path 5071" d="M8.432 25.194c-.04-.311-.073-.623-.123-.932a14.036 14.036 0 00-.823-2.928 21.257 21.257 0 00-3.363-5.673c-.507-.62-1.048-1.212-1.581-1.81A7.667 7.667 0 01.635 9.969a7.826 7.826 0 011.789-6.661 7.908 7.908 0 014.5-2.642 7.538 7.538 0 014.555.462 7.683 7.683 0 014.83 5.9 7.667 7.667 0 01-1.7 6.6c-.464.568-.986 1.089-1.458 1.65a21.057 21.057 0 00-4.129 7.327 12.159 12.159 0 00-.462 2.169c-.017.143-.054.283-.082.425zm3.189-16.671a4.989 4.989 0 00-.06-.776 3.079 3.079 0 00-1.56-2.035 3.135 3.135 0 00-3.918.733A2.748 2.748 0 005.4 7.767a11.8 11.8 0 00-.026 1.356.7.7 0 00.029.2 3.267 3.267 0 001.122 1.717 3.183 3.183 0 002.8.535 3.043 3.043 0 002.18-2.056 3.127 3.127 0 00.116-.996z" fill="none" stroke="#e73d7d"/></g></svg>