<svg xmlns="http://www.w3.org/2000/svg" width="22.29" height="18.615" viewBox="0 0 22.29 18.615">
  <g id="left-quote" transform="translate(0 -7.858)">
    <g id="Group_36282" data-name="Group 36282" transform="translate(0 7.858)">
      <path id="Path_38295" data-name="Path 38295" d="M7.134,16.294A5.906,5.906,0,0,0,5.5,16.056a5.129,5.129,0,0,0-2.046.419c.514-1.883,1.75-5.132,4.212-5.5a.585.585,0,0,0,.477-.421l.538-1.924A.585.585,0,0,0,8.2,7.9a4.086,4.086,0,0,0-.55-.037c-2.955,0-5.881,3.084-7.116,7.5-.725,2.591-.937,6.485.848,8.937a5.33,5.33,0,0,0,4.332,2.177h.023a5.186,5.186,0,0,0,1.4-10.179Z" transform="translate(0 -7.858)" fill="#ea3878"/>
      <path id="Path_38296" data-name="Path 38296" d="M58.878,18.743a5.2,5.2,0,0,0-3.118-2.449,5.906,5.906,0,0,0-1.632-.238,5.13,5.13,0,0,0-2.047.419c.514-1.883,1.75-5.132,4.212-5.5a.585.585,0,0,0,.477-.421l.538-1.924a.585.585,0,0,0-.484-.737,4.081,4.081,0,0,0-.55-.037c-2.955,0-5.881,3.084-7.116,7.5-.725,2.591-.937,6.485.849,8.937a5.33,5.33,0,0,0,4.332,2.177h.023a5.186,5.186,0,0,0,4.515-7.73Z" transform="translate(-37.257 -7.858)" fill="#ea3878"/>
    </g>
  </g>
</svg>
