<svg xmlns="http://www.w3.org/2000/svg" width="250.622" height="17.52"><g data-name="Group 6632"><path data-name="Path 8118" d="M224.608 17.52a16.6 16.6 0 01-1.737-.089 1.662 1.662 0 11.348-3.305 13.919 13.919 0 002.107.052 1.662 1.662 0 11.171 3.319q-.431.023-.889.023zm-198.179 0c-.459 0-.917-.018-1.361-.054a1.662 1.662 0 01.268-3.313 14.081 14.081 0 002.109.006 1.662 1.662 0 11.246 3.314c-.408.031-.833.047-1.258.047zm149.522-.026a1.662 1.662 0 01-.094-3.321 11.717 11.717 0 002.048-.3 1.662 1.662 0 01.773 3.233 15.092 15.092 0 01-2.63.381.388.388 0 01-.093.012zm-101.288-.03c-.048 0-.1 0-.145-.006a14.686 14.686 0 01-2.626-.466 1.662 1.662 0 01.885-3.2 11.307 11.307 0 002.029.359 1.662 1.662 0 01-.142 3.317zm54.164-.328a1.662 1.662 0 01-.4-3.276 10.3 10.3 0 001.919-.68 1.662 1.662 0 011.416 3.008 13.665 13.665 0 01-2.537.9 1.657 1.657 0 01-.394.048zm-7.024-.1a1.664 1.664 0 01-.453-.063 13.688 13.688 0 01-2.505-.985 1.662 1.662 0 011.515-2.958 10.186 10.186 0 001.895.745 1.662 1.662 0 01-.451 3.261zm-40.217-.719a1.662 1.662 0 01-.719-3.161 11.384 11.384 0 001.774-1.063 1.662 1.662 0 111.95 2.691 14.632 14.632 0 01-2.289 1.37 1.65 1.65 0 01-.712.159zm87.486-.185a1.65 1.65 0 01-.766-.189 15.119 15.119 0 01-2.235-1.433 1.662 1.662 0 012.022-2.638 11.906 11.906 0 001.748 1.123 1.662 1.662 0 01-.769 3.136zm62.974-.882a1.662 1.662 0 01-.953-3.024 15.331 15.331 0 001.658-1.352 1.662 1.662 0 012.26 2.437 18.673 18.673 0 01-2.017 1.64 1.654 1.654 0 01-.944.295zm-197.9-.2a1.662 1.662 0 01-.984-3 16.429 16.429 0 001.642-1.392 1.662 1.662 0 112.3 2.4 19.633 19.633 0 01-1.975 1.671 1.653 1.653 0 01-.983.32zm-15.494-.051a1.655 1.655 0 01-.989-.328 19.843 19.843 0 01-1.965-1.679 1.662 1.662 0 012.307-2.393 16.672 16.672 0 001.639 1.4 1.662 1.662 0 01-.992 3zm197.908-.2a1.656 1.656 0 01-1.019-.349 21.186 21.186 0 01-1.923-1.7 1.662 1.662 0 012.339-2.361 17.957 17.957 0 001.623 1.44 1.662 1.662 0 01-1.021 2.974zm-32.157-1.107a1.662 1.662 0 01-1.136-2.875c.486-.455.983-.964 1.565-1.6a1.662 1.662 0 112.457 2.239c-.643.706-1.2 1.274-1.75 1.791a1.657 1.657 0 01-1.131.44zm-118.071-.29a1.655 1.655 0 01-1.157-.47 35.796 35.796 0 01-1.715-1.8 1.662 1.662 0 112.473-2.22 32.881 32.881 0 001.558 1.637 1.662 1.662 0 01-1.158 2.854zm70.241-1.471a1.662 1.662 0 01-1.23-2.779c.442-.487.875-.983 1.308-1.479l.242-.277a1.662 1.662 0 112.5 2.187l-.24.275c-.448.514-.9 1.026-1.353 1.529a1.659 1.659 0 01-1.227.539zm-22.387-.3a1.657 1.657 0 01-1.239-.554c-.358-.4-.712-.805-1.066-1.211l-.512-.586a1.663 1.663 0 012.5-2.193l.52.594c.344.395.688.789 1.037 1.179a1.661 1.661 0 01-1.238 2.77zm-25.532-1.537a1.662 1.662 0 01-1.251-2.756c.6-.682 1.1-1.251 1.633-1.813a1.662 1.662 0 112.416 2.283 58.197 58.197 0 00-1.546 1.717 1.661 1.661 0 01-1.252.559zm73.455-.311a1.659 1.659 0 01-1.249-.565 48.55 48.55 0 00-1.546-1.692 1.662 1.662 0 012.386-2.314c.611.63 1.18 1.269 1.657 1.811a1.662 1.662 0 01-1.247 2.759zm76.6-1.263a1.662 1.662 0 01-1.215-2.8 27.888 27.888 0 011.793-1.774 1.662 1.662 0 112.217 2.476c-.493.442-1.01.953-1.579 1.564a1.657 1.657 0 01-1.217.524zM40.761 8.271a1.662 1.662 0 01-1.205-2.806 25.589 25.589 0 011.827-1.759 1.662 1.662 0 012.173 2.516c-.5.434-1.023.935-1.59 1.532a1.656 1.656 0 01-1.208.508zm-28.712-.072a1.655 1.655 0 01-1.2-.515 21.969 21.969 0 00-1.592-1.523 1.662 1.662 0 112.161-2.525 25.1 25.1 0 011.836 1.754 1.662 1.662 0 01-1.2 2.809zm197.943-.241a1.659 1.659 0 01-1.189-.5 20.053 20.053 0 00-1.6-1.49 1.662 1.662 0 112.112-2.566 23.234 23.234 0 011.871 1.735 1.662 1.662 0 01-1.189 2.823zm-19.084-1.179a1.662 1.662 0 01-1.1-2.906 17.414 17.414 0 012.076-1.592 1.662 1.662 0 111.81 2.787 14.066 14.066 0 00-1.681 1.293 1.658 1.658 0 01-1.105.418zm-131.1-.276a1.652 1.652 0 01-1.073-.394 13.186 13.186 0 00-1.7-1.236 1.662 1.662 0 011.72-2.844 16.355 16.355 0 012.131 1.545 1.662 1.662 0 01-1.075 2.93zm83.508-1.214a1.662 1.662 0 01-.9-3.062A14.1 14.1 0 01144.8 1a1.662 1.662 0 111.228 3.089 10.6 10.6 0 00-1.82.939 1.657 1.657 0 01-.89.261zm-35.951-.216a1.655 1.655 0 01-.849-.235 10.46 10.46 0 00-1.846-.875 1.662 1.662 0 111.121-3.128 13.884 13.884 0 012.428 1.149 1.662 1.662 0 01-.853 3.09zm-11.416-.9a1.662 1.662 0 01-.6-3.211 13.868 13.868 0 012.586-.724 1.662 1.662 0 01.586 3.271 10.548 10.548 0 00-1.965.55 1.658 1.658 0 01-.605.117zm58.749-.142a1.66 1.66 0 01-.549-.094 10.769 10.769 0 00-1.988-.485 1.662 1.662 0 01.483-3.288 14.082 14.082 0 012.6.637 1.662 1.662 0 01-.549 3.23zm91.908-.446a1.662 1.662 0 01-.325-3.291 15.532 15.532 0 012.632-.29 1.662 1.662 0 11.09 3.322 12.292 12.292 0 00-2.068.227 1.685 1.685 0 01-.327.035zM48.759 3.523a1.662 1.662 0 01-.281-3.3 16 16 0 012.63-.226 1.662 1.662 0 11.018 3.324 12.64 12.64 0 00-2.082.177 1.662 1.662 0 01-.284.028zm-44.74-.015a1.681 1.681 0 01-.274-.023A12.808 12.808 0 001.66 3.32a1.662 1.662 0 110-3.324 16.1 16.1 0 012.628.21 1.662 1.662 0 01-.27 3.3zm197.845-.051a1.679 1.679 0 01-.232-.016 13.467 13.467 0 00-2.1-.117 1.662 1.662 0 11-.07-3.323 16.688 16.688 0 012.627.149 1.662 1.662 0 01-.228 3.307z" fill="#ee3586"/></g></svg>