<svg xmlns="http://www.w3.org/2000/svg" width="325.768" height="79.5"><defs><linearGradient id="a" x1="-.061" y1="-.051" x2=".519" y2=".519" gradientUnits="objectBoundingBox"><stop offset="0" stop-color="#ec3f80"/><stop offset=".331" stop-color="#eb3b7b"/><stop offset=".726" stop-color="#e72e6c"/><stop offset="1" stop-color="#e3215e"/></linearGradient><linearGradient id="b" x1="-.168" y1=".157" x2=".555" y2=".528" gradientUnits="objectBoundingBox"><stop offset=".009" stop-color="#ec3f80" stop-opacity="0"/><stop offset=".273" stop-color="#e73779" stop-opacity=".29"/><stop offset=".673" stop-color="#da2267" stop-opacity=".725"/><stop offset=".922" stop-color="#cf1258"/></linearGradient><linearGradient id="c" x1="1.036" y1=".204" x2=".054" y2=".746" gradientUnits="objectBoundingBox"><stop offset="0" stop-color="#ec3f80"/><stop offset="1" stop-color="#e3215e"/></linearGradient></defs><g data-name="Group 6571"><g data-name="Group 4772"><g data-name="Group 4771"><g data-name="Group 4770"><g data-name="Group 4767"><path data-name="Path 8032" d="M51.478 79.505c-16.721-.436-30.883-7.031-42.173-20.371a26.747 26.747 0 01-1.512-1.966c-.756-1.09-.979-2.229.09-3.237 1.191-1.125 2.28-.761 3.249.413a62.744 62.744 0 008.568 8.828c21.892 17.85 52.119 14.834 70.649-7.056.533-.63 1.041-1.282 1.572-1.915.879-1.051 1.925-1.389 2.989-.434a2.247 2.247 0 01.3 3.237 56.608 56.608 0 01-4.044 4.911 54.793 54.793 0 01-39.688 17.59z" fill="#ec3f80"/></g><g data-name="Group 4768"><path data-name="Path 8033" d="M9.43 48.142a7.275 7.275 0 014.012 1.2A7.32 7.32 0 103.308 59.475a7.318 7.318 0 016.121-11.332z" fill="#ec3f80"/></g><g data-name="Group 4769"><path data-name="Path 8034" d="M94.079 48.142a7.272 7.272 0 00-4.011 1.2 7.319 7.319 0 1110.133 10.133 7.319 7.319 0 00-6.122-11.332z" fill="#ec3f80"/></g></g></g><path data-name="Path 8035" d="M1576.083 399.894a22.1 22.1 0 000-31.253l-19.8-19.8a22.1 22.1 0 00-31.253 0 22.1 22.1 0 000 31.253l19.8 19.8a22.1 22.1 0 0031.253 0z" transform="translate(-1510.6 -341.95)" fill="url(#a)"/><path data-name="Path 8036" d="M1576.083 399.894a22.1 22.1 0 000-31.253l-19.8-19.8a22.1 22.1 0 00-31.253 0 22.1 22.1 0 000 31.253l19.8 19.8a22.1 22.1 0 0031.253 0z" transform="translate(-1510.6 -341.95)" fill="url(#b)"/><path data-name="Path 8037" d="M1614.318 398.1a22.1 22.1 0 0031.253 0l19.8-19.8a22.1 22.1 0 000-31.253 22.1 22.1 0 00-31.253 0l-19.8 19.8a22.1 22.1 0 000 31.253z" transform="translate(-1579.186 -340.575)" fill="url(#c)"/><path data-name="Path 8038" d="M70.578 33.617c-.888.053-1.773.1-2.662.148l-1.33.067-1.332.063-2.662.118q-1.331.059-2.661.107l.469-.332-.377 1.19-.383 1.189-.767 2.377a.675.675 0 01-1.292-.023l-.014-.049-.867-3.177q-.435-1.589-.858-3.179c-.283-1.06-.573-2.119-.851-3.181l-.842-3.184 2.022.012q-.668 2.932-1.354 5.86t-1.382 5.853l-1.4 5.848-.712 2.922-.717 2.919a1.36 1.36 0 01-2.664-.109v-.016l-.621-3.917-.612-3.919q-.609-3.92-1.2-7.842t-1.161-7.847c-.378-2.618-.757-5.234-1.121-7.854l2.453-.037-.394 2.845-.4 2.845-.406 2.843L44.067 29a1011.43 1011.43 0 01-.842 5.684l-.432 2.841-.441 2.838-.006.044a.716.716 0 01-1.394.09l-.339-1.155-.337-1.157-.67-2.314.526.38-2.973-.116-2.973-.13-2.973-.144q-1.486-.073-2.973-.165 1.486-.09 2.973-.165l2.973-.144 2.973-.13 2.973-.116a.522.522 0 01.51.341l.014.039.832 2.261.415 1.129.412 1.132-1.4.137.261-2.862.272-2.859c.179-1.906.371-3.812.561-5.718l.29-2.857.3-2.857.3-2.857.308-2.855a1.236 1.236 0 012.446-.074l.006.037q.661 3.913 1.3 7.826t1.257 7.833q.62 3.916 1.22 7.837l.6 3.921.587 3.924-2.666-.125.753-2.91.759-2.91 1.535-5.816q.773-2.9 1.558-5.809t1.584-5.8l.014-.046a1.034 1.034 0 012.008.058l.694 3.219c.231 1.074.457 2.147.684 3.221s.454 2.147.677 3.223l.668 3.225-1.306-.074.932-2.316.466-1.157.471-1.157.014-.037a.473.473 0 01.457-.294c.888.035 1.774.067 2.662.107l2.662.118 1.331.063 1.331.067c.897.046 1.781.094 2.667.148z" fill="#fff"/></g><g data-name="Group 4780"><g data-name="Group 4779"><g data-name="Group 4774"><g data-name="Group 4773" fill="#521e81"><path data-name="Path 8039" d="M145.493 21.43c-.189.755-.432 1.737-.722 2.945s-.617 2.538-.969 3.986-.713 2.979-1.082 4.6-.751 3.2-1.141 4.736-.781 3.008-1.166 4.409-.742 2.618-1.065 3.654a1.152 1.152 0 01-.73.587 5.722 5.722 0 01-1.845.214 15.109 15.109 0 01-1.657-.092 6.634 6.634 0 01-1.611-.378 4.709 4.709 0 01-1.334-.755 3.42 3.42 0 01-.923-1.179q-.907-2.4-1.787-5.349t-1.745-6.012q-.868-3.065-1.7-6.012t-1.644-5.349q.057.661.138 2.261t.214 3.725c.084 1.414.172 2.941.26 4.573s.181 3.23.277 4.787.185 3 .264 4.338.156 2.429.222 3.276a5.661 5.661 0 01-.016 1.791.537.537 0 01-.558.378h-2.593a5.759 5.759 0 01-3.88-1.061 4.5 4.5 0 01-1.368-3.134c-.029-.378-.059-1.015-.088-1.909s-.042-1.955-.051-3.18-.016-2.568-.025-4.032-.017-2.945-.012-4.455q-.02-3.065-.022-5.114c0-1.368-.012-2.5-.021-3.419s-.017-1.649-.017-2.215-.008-1.07-.029-1.51-.038-.856-.055-1.25-.05-.889-.1-1.485a.527.527 0 01.24-.541.984.984 0 01.5-.164h6.6a7.111 7.111 0 013.067.587 5.367 5.367 0 012.081 1.816 12.156 12.156 0 011.49 3.18q.629 1.957 1.254 4.644t1.41 6.2q.787 3.511 1.947 7.9.516-2.92.873-4.854t.6-3.23c.164-.864.3-1.577.411-2.144s.209-1.091.294-1.577.185-1.015.294-1.577.239-1.271.39-2.123.336-1.909.562-3.18.508-2.882.851-4.833a1.357 1.357 0 01.286-.541 1.045 1.045 0 01.826-.26h7.354a8.083 8.083 0 012.454.306 3.729 3.729 0 011.51.873 3.328 3.328 0 01.822 1.389 9.029 9.029 0 01.348 1.909q.089 1.083.172 3.511t.122 5.466q.037 3.04.1 6.293t.076 6.033l.034 4.715c.012 1.288.012 2.043 0 2.261a.988.988 0 01-.143.541c-.083.109-.268.164-.553.164h-2.593a5.761 5.761 0 01-3.881-1.061 3.976 3.976 0 01-1.334-2.756q-.044-.516-.038-1.888t.042-3.205q.038-1.838.092-4.032c.038-1.46.059-2.916.063-4.359s.008-2.853 0-4.22-.02-2.577-.042-3.613z"/><path data-name="Path 8040" d="M170.378 47.024a14.355 14.355 0 01-5.474-.919 9.581 9.581 0 01-3.625-2.521 10.6 10.6 0 01-2.1-3.746 20.125 20.125 0 01-.9-4.6 22.112 22.112 0 01.227-5.538 11.8 11.8 0 011.934-4.833 10.571 10.571 0 014.078-3.419 14.923 14.923 0 016.658-1.3q5.941 0 8.747 2.9a12.784 12.784 0 013.24 8.13 27.011 27.011 0 01.053 3.23 16.421 16.421 0 01-.511 3.511 15.39 15.39 0 01-1.322 3.394 10.3 10.3 0 01-2.328 2.924 10.84 10.84 0 01-3.579 2.026 15.287 15.287 0 01-5.098.761zm.512-20.6a3.92 3.92 0 00-2.778.919 5.284 5.284 0 00-1.417 2.215 9.618 9.618 0 00-.483 2.735 23.378 23.378 0 00.034 2.429 8.846 8.846 0 001.367 4.573 3.522 3.522 0 002.949 1.46 3.429 3.429 0 002.626-1.036 6.433 6.433 0 001.444-2.5 12.094 12.094 0 00.55-3.062 20.965 20.965 0 00-.009-2.685 7.193 7.193 0 00-1.179-3.7 3.586 3.586 0 00-3.103-1.346z"/><path data-name="Path 8041" d="M198.8 47.024a13.57 13.57 0 01-5.84-1.061 8.877 8.877 0 01-5.08-6.129 24.19 24.19 0 01-.567-3.419c-.033-.407-.063-1.208-.08-2.4s-.033-2.576-.038-4.149-.017-3.243-.037-5.022-.034-3.457-.039-5.043-.021-3-.042-4.22-.054-2.072-.092-2.547a2.647 2.647 0 01.042-1.2c.084-.109.366-.164.835-.164h1.837a7.386 7.386 0 012.383.331 4.385 4.385 0 011.582.894 3.673 3.673 0 01.91 1.3 5.356 5.356 0 01.365 1.577c.047.533.075 1.573.092 3.113s.034 3.348.047 5.42a7.988 7.988 0 012.521-3.134 6.99 6.99 0 014.019-1.015 8.661 8.661 0 016.809 2.828q2.516 2.832 2.982 8.437a27.006 27.006 0 01.054 3.205 18.291 18.291 0 01-.47 3.465 14.532 14.532 0 01-1.233 3.348 9.2 9.2 0 01-2.287 2.853 11.406 11.406 0 01-3.583 1.98 15.017 15.017 0 01-5.09.752zm.42-20.6a3.5 3.5 0 00-2.589.894 5.314 5.314 0 00-1.3 2.169 9.213 9.213 0 00-.437 2.71c-.016.961.009 1.8.067 2.521a9.484 9.484 0 001.28 4.644 3.265 3.265 0 002.8 1.389 3.147 3.147 0 002.575-1.061 6.4 6.4 0 001.255-2.521 12.269 12.269 0 00.391-2.97 27.96 27.96 0 00-.054-2.358 8.759 8.759 0 00-1.132-4.032 3.185 3.185 0 00-2.856-1.383z"/><path data-name="Path 8042" d="M215.161 15.066a3.3 3.3 0 011.12-2.97 5.387 5.387 0 013.587-1.082 4.617 4.617 0 013.012.826 3.056 3.056 0 011.1 2.194 3.426 3.426 0 01-1.057 2.9 5.163 5.163 0 01-3.7 1.154q-3.814-.005-4.062-3.022zm5.945 31.489a7.883 7.883 0 01-2.4-.306 3.9 3.9 0 01-1.531-.873 3.376 3.376 0 01-.868-1.389 7.86 7.86 0 01-.369-1.909c-.038-.47-.072-1.137-.1-2.005s-.038-2.06-.038-3.583-.012-3.457-.029-5.8-.046-5.24-.08-8.7a2.27 2.27 0 01.134-1.225c.089-.1.332-.142.743-.142h1.837a8.7 8.7 0 012.4.281 3.7 3.7 0 011.532.847 3.493 3.493 0 01.868 1.368 7.309 7.309 0 01.361 1.791c.038.47.067 1.179.08 2.123s.033 2.223.059 3.843.042 3.629.05 6.033.013 5.3.013 8.7a1.183 1.183 0 01-.172.755 1.113 1.113 0 01-.785.189z"/></g></g><g data-name="Group 4776"><g data-name="Group 4775" fill="#521e81"><path data-name="Path 8043" d="M261.321 21.429c-.189.755-.433 1.737-.722 2.945s-.617 2.538-.969 3.986-.712 2.979-1.082 4.6-.75 3.2-1.141 4.736-.78 3.008-1.166 4.409-.742 2.618-1.066 3.654a1.15 1.15 0 01-.729.587 5.73 5.73 0 01-1.847.214 15.129 15.129 0 01-1.658-.092 6.64 6.64 0 01-1.61-.378 4.71 4.71 0 01-1.334-.755 3.422 3.422 0 01-.923-1.179q-.906-2.4-1.787-5.349t-1.745-6.012q-.869-3.065-1.7-6.012t-1.644-5.349q.057.661.138 2.261t.214 3.725c.083 1.414.172 2.941.26 4.573s.18 3.23.276 4.787.185 3 .264 4.338.156 2.429.223 3.276a5.619 5.619 0 01-.017 1.791.537.537 0 01-.558.378h-2.593a5.761 5.761 0 01-3.88-1.061 4.5 4.5 0 01-1.367-3.134c-.03-.378-.059-1.015-.088-1.909s-.042-1.955-.05-3.18-.017-2.568-.025-4.032-.018-2.945-.013-4.455q-.019-3.065-.021-5.114c0-1.368-.012-2.5-.021-3.419s-.016-1.649-.016-2.215-.009-1.07-.03-1.51-.038-.856-.055-1.25-.05-.889-.1-1.485a.528.528 0 01.239-.541.985.985 0 01.5-.164h6.6a7.115 7.115 0 013.067.587 5.362 5.362 0 012.08 1.816 12.163 12.163 0 011.49 3.18q.63 1.957 1.254 4.644t1.41 6.2q.787 3.511 1.947 7.9.516-2.92.873-4.854t.6-3.23c.164-.864.3-1.577.411-2.144s.21-1.091.294-1.577.185-1.015.293-1.577.24-1.271.39-2.123.336-1.909.563-3.18.507-2.882.852-4.833a1.347 1.347 0 01.285-.541 1.046 1.046 0 01.827-.26h7.354a8.079 8.079 0 012.454.306 3.723 3.723 0 011.511.873 3.333 3.333 0 01.823 1.389 9.06 9.06 0 01.348 1.909q.087 1.083.172 3.511t.122 5.466q.038 3.04.1 6.293t.076 6.033q.018 2.781.033 4.715c.012 1.288.012 2.043 0 2.261a.993.993 0 01-.143.541c-.084.109-.268.164-.554.164h-2.593a5.76 5.76 0 01-3.88-1.061 3.98 3.98 0 01-1.334-2.756q-.044-.516-.038-1.888c.005-.91.017-1.98.042-3.205s.055-2.568.092-4.032.059-2.916.063-4.359.008-2.853 0-4.22-.018-2.577-.041-3.613z"/><path data-name="Path 8044" d="M281.215 46.554a5.872 5.872 0 01-3.861-1.033 4.17 4.17 0 01-1.376-2.97c-.05-.629-.093-1.7-.126-3.23s-.049-3.26-.054-5.211-.016-4.006-.038-6.175-.033-4.212-.033-6.129-.013-3.6-.039-5.043-.058-2.433-.1-2.97c-.037-.47.193-.709.7-.709h16.593a1.019 1.019 0 01.528.143.614.614 0 01.277.52l.042 2.781a3.784 3.784 0 01-.588 2.286q-.609.875-2.731.873h-6.506l.075 6.645h6.7a1.024 1.024 0 01.529.143.61.61 0 01.276.52l.042 2.781a3.806 3.806 0 01-.588 2.286q-.609.875-2.73.873h-4.1l.063 7.023h10.371a.96.96 0 01.533.164.614.614 0 01.277.5l.042 2.781a3.793 3.793 0 01-.587 2.286q-.61.875-2.731.873z"/><path data-name="Path 8045" d="M299.157 13.79a.645.645 0 01.261-.541.869.869 0 01.483-.164q3.2 0 6-.214t4.387-.214a24.81 24.81 0 016.784.8 11.056 11.056 0 014.589 2.5 10.654 10.654 0 012.744 4.384 26.567 26.567 0 011.242 6.456 35.441 35.441 0 01-.158 7.472 16.6 16.6 0 01-2.178 6.482 12.521 12.521 0 01-4.833 4.547 16.792 16.792 0 01-8.13 1.72c-1.54 0-2.949-.034-4.229-.092a12.372 12.372 0 01-3.322-.566 5.037 5.037 0 01-2.236-1.414 4.364 4.364 0 01-.97-2.593 36.953 36.953 0 01-.079-1.837 288.55 288.55 0 01-.079-6.67v-4.313q-.007-4.669-.026-7.447t-.075-4.359c-.038-1.053-.075-1.846-.1-2.379s-.061-1.055-.075-1.558zm10.9 25.788a6.165 6.165 0 006.314-4.006 11.745 11.745 0 00.813-3.818 27.979 27.979 0 00-.042-3.914 21.163 21.163 0 00-.545-3.465 7.289 7.289 0 00-1.1-2.475 4.4 4.4 0 00-1.893-1.485 7.355 7.355 0 00-2.87-.5c-.348 0-.784.017-1.317.046s-1.17.08-1.922.143q.051 1.743.105 4.124t.1 5c.034 1.745.059 3.5.084 5.278s.029 3.419.029 4.925c.479.063.906.1 1.284.117s.709.029.96.029z"/></g></g><g data-name="Group 4778"><g data-name="Group 4777" fill="#521e81"><path data-name="Path 8046" d="M143.781 60.789c0-1.091.39-2.63 1.095-2.63a.552.552 0 01.6.734 6.183 6.183 0 00-.411 1.88c0 2.148 1.8 3.4 4.51 3.4h4.413c.2 0 .294-.088.294-.269V53.326a.593.593 0 01.646-.663.6.6 0 01.646.663v11.272a.642.642 0 01-.7.7h-5.253c-3.533-.003-5.84-1.719-5.84-4.509zm4.279-1.485a.49.49 0 01.528-.449h1.934c.369 0 .566-.143.566-.378 0-.159-.1-.231-.566-.231h-.919c-1.036 0-1.544-.357-1.544-1.128s.546-1.145 1.544-1.145h1.913a.46.46 0 110 .915h-1.913c-.507 0-.566.038-.566.231s.038.231.566.231h.919c1 0 1.544.394 1.544 1.128 0 .768-.625 1.271-1.544 1.271h-1.934a.49.49 0 01-.528-.445z"/><path data-name="Path 8047" d="M168.256 64.171V65.3h-10c-.47 0-.722-.214-.722-.571s.252-.554.722-.554h6.7a.288.288 0 00.294-.323l.038-3.1a3.46 3.46 0 00-3.6-3.365h-1.837c-.47 0-.722-.214-.722-.591s.252-.591.722-.591h1.837a4.59 4.59 0 014.841 4.543v3.419z"/><path data-name="Path 8048" d="M171.83 64.17v1.129h-3.965V64.17z"/><path data-name="Path 8049" d="M175.405 64.17v1.129h-3.964V64.17z"/><path data-name="Path 8050" d="M178.979 64.17v1.129h-3.965V64.17z"/><path data-name="Path 8051" d="M183.803 56.85v7.749a.642.642 0 01-.706.7h-4.51V64.17h3.927v-7.316a.593.593 0 01.646-.663.6.6 0 01.643.659zm-2.363 10.073a.783.783 0 11-.78-.717.731.731 0 01.78.716zm2.3 0a.783.783 0 11-.781-.717.731.731 0 01.785.716z"/><path data-name="Path 8052" d="M185.759 64.741V53.326a.6.6 0 01.647-.663.59.59 0 01.646.663v11.415a.592.592 0 01-.646.663.6.6 0 01-.647-.663z"/><path data-name="Path 8053" d="M191.929 60.894a.6.6 0 01.646-.663.591.591 0 01.647.663v2.521a3.124 3.124 0 003.1 3.293c3.184 0 3.3-1 3.3-6.314 0-2.542.839-4.187 3.418-4.187 2.656 0 3.419 1.754 3.419 4.438v3.579h1.465v1.074h-2.052a.646.646 0 01-.7-.7v-3.95c0-1.984-.256-3.293-2.127-3.293s-2.127 1.3-2.127 3.293c0 5.852-.646 7.211-4.589 7.211a4.253 4.253 0 01-4.392-4.438v-2.525zm2.459 8.587a.783.783 0 11.78.718.731.731 0 01-.78-.717zm2.307 0a.783.783 0 11.78.718.731.731 0 01-.78-.717z"/><path data-name="Path 8054" d="M207.534 64.17h1.544v-3.4a4.5 4.5 0 119 0v3.612a.937.937 0 01-.994.915h-9.552zm9.276 0l.021-3.4a3.264 3.264 0 10-6.507 0v3.4zm-4.023-9.573a.783.783 0 11.781.717.731.731 0 01-.781-.717z"/><path data-name="Path 8055" d="M236.52 64.17v1.129h-7.714c-3.537 0-5.841-1.716-5.841-4.51 0-1.091.391-2.63 1.095-2.63a.553.553 0 01.6.734 6.166 6.166 0 00-.411 1.88c0 2.148 1.8 3.4 4.509 3.4h4.414c.2 0 .294-.088.294-.269V53.326a.592.592 0 01.646-.663.6.6 0 01.647.663v10.841h1.757zm-6.255-5.693c0-.159-.1-.231-.567-.231h-.918c-1.037 0-1.543-.357-1.543-1.128s.545-1.145 1.543-1.145h1.913a.46.46 0 110 .915h-1.913c-.508 0-.567.038-.567.231s.037.231.567.231h.918c1 0 1.544.394 1.544 1.128 0 .768-.625 1.271-1.544 1.271h-1.933a.455.455 0 110-.9h1.934c.373.004.566-.137.566-.372z"/><path data-name="Path 8056" d="M240.094 64.17v1.129h-3.964V64.17z"/><path data-name="Path 8057" d="M243.669 64.17v1.129h-3.965V64.17z"/><path data-name="Path 8058" d="M247.242 64.17v1.129h-3.965V64.17z"/><path data-name="Path 8059" d="M250.812 64.17v1.129h-3.964V64.17z"/><path data-name="Path 8060" d="M254.392 64.17v1.129h-3.964V64.17z"/><path data-name="Path 8061" d="M259.351 64.171V65.3h-5.354v-1.129h2.639v-7.316a.593.593 0 01.646-.663.6.6 0 01.646.663v7.316zm-4-9.59a.783.783 0 11.78.717.73.73 0 01-.782-.718zm2.3 0a.783.783 0 11.781.717.731.731 0 01-.781-.718z"/><path data-name="Path 8062" d="M271.6 64.171v1.128h-12.636v-1.128h9.569a.289.289 0 00.294-.323l.038-3.1a3.447 3.447 0 00-3.6-3.364h-4.023c-.47 0-.721-.214-.721-.592s.255-.591.721-.591h4.023a4.593 4.593 0 014.845 4.543v3.419h1.486z"/><path data-name="Path 8063" d="M275.175 64.17v1.129h-3.965V64.17z"/><path data-name="Path 8064" d="M274.784 64.171h1.817v-8.533a.593.593 0 01.646-.663c.647 0 .647.34.647 1.234h6.385a4.589 4.589 0 014.84 4.543v3.65c0 .608-.272.894-.9.894h-13.435zm12.556 0c.507-.055.507-.269.507-3.419a3.46 3.46 0 00-3.6-3.365h-6.367v6.779h9.456z"/></g></g></g></g></g></svg>