<svg xmlns="http://www.w3.org/2000/svg" width="16.976" height="25.693" viewBox="0 0 16.976 25.693">
  <g id="map" transform="translate(0.502 0.501)">
    <g id="Group_3193" data-name="Group 3193" transform="translate(0 0)">
      <path id="Path_5071" data-name="Path 5071" d="M1001.167-575.952c-.04-.311-.073-.623-.123-.932a14.036,14.036,0,0,0-.823-2.928,21.257,21.257,0,0,0-3.363-5.673c-.507-.62-1.048-1.212-1.581-1.81a7.667,7.667,0,0,1-1.907-3.882,7.826,7.826,0,0,1,1.789-6.661,7.908,7.908,0,0,1,4.5-2.642,7.538,7.538,0,0,1,4.555.462,7.683,7.683,0,0,1,4.83,5.9,7.667,7.667,0,0,1-1.7,6.6c-.464.568-.986,1.089-1.458,1.65a21.057,21.057,0,0,0-4.129,7.327,12.159,12.159,0,0,0-.462,2.169c-.017.143-.054.283-.082.425Zm3.189-16.671a4.989,4.989,0,0,0-.06-.776,3.079,3.079,0,0,0-1.56-2.035,3.135,3.135,0,0,0-3.918.733,2.748,2.748,0,0,0-.683,1.322,11.8,11.8,0,0,0-.026,1.356.7.7,0,0,0,.029.2,3.267,3.267,0,0,0,1.122,1.717,3.183,3.183,0,0,0,2.8.535,3.043,3.043,0,0,0,2.18-2.056A3.127,3.127,0,0,0,1004.356-592.623Z" transform="translate(-993.237 600.645)" fill="none" stroke="#e73d7d" stroke-width="1"/>
    </g>
  </g>
</svg>
