<svg id="microscope" xmlns="http://www.w3.org/2000/svg" width="24.975" height="37.791" viewBox="0 0 24.975 37.791">
  <path id="Path_7114" data-name="Path 7114" d="M90.216,118.169l-.968-.559a.255.255,0,0,1-.093-.348l1.226-2.124a.255.255,0,0,1,.348-.093l.968.559a.255.255,0,0,1,.093.348l-1.226,2.124A.255.255,0,0,1,90.216,118.169Z" transform="translate(-82.595 -98.107)" fill="#fff"/>
  <path id="Path_7115" data-name="Path 7115" d="M111.508,130.462l-.968-.559a.255.255,0,0,1-.093-.348l1.226-2.124a.255.255,0,0,1,.348-.093l.968.559a.255.255,0,0,1,.093.348l-1.226,2.124A.255.255,0,0,1,111.508,130.462Z" transform="translate(-100.622 -108.515)" fill="#fff"/>
  <path id="Path_7116" data-name="Path 7116" d="M95.529,111.376l.478-.827a.382.382,0,0,0-.14-.522l-6.84-3.949a.382.382,0,0,0-.522.14l-.478.827a.382.382,0,0,0,.14.522l6.84,3.949A.382.382,0,0,0,95.529,111.376Z" transform="translate(-81.626 -90.501)" fill="#fff"/>
  <path id="Path_7117" data-name="Path 7117" d="M112.074,19.768,104.089,33.6,98.32,30.268l7.985-13.831a.637.637,0,0,1,.87-.233l4.666,2.694a.637.637,0,0,1,.233.87Z" transform="translate(-90.384 -14.382)" fill="#fff"/>
  <path id="Path_7118" data-name="Path 7118" d="M162.543,10.772l.825-1.429a.637.637,0,0,0-.233-.87L160.377,6.88a.637.637,0,0,0-.87.233l-.825,1.429Z" transform="translate(-141.489 -6.488)" fill="#fff"/>
  <path id="Path_7126" data-name="Path 7126" d="M3,0A3,3,0,1,1,0,3,3,3,0,0,1,3,0Z" transform="translate(13.951 10.476)" fill="#fff"/>
  <circle id="Ellipse_103" data-name="Ellipse 103" cx="1.341" cy="1.341" r="1.341" transform="translate(15.608 12.133)" fill="#fff"/>
  <path id="Path_7119" data-name="Path 7119" d="M100.281,90.763c.009.1.015.191.015.289a2.993,2.993,0,0,1-1.436,2.555,6.915,6.915,0,1,1-8.179,11.143H86.466a10.074,10.074,0,1,0,13.815-13.987Z" transform="translate(-80.348 -77.578)" fill="#fff"/>
  <path id="Path_7120" data-name="Path 7120" d="M60.62,174.724H48.977a.4.4,0,0,1-.4-.4v-.88a.4.4,0,0,1,.4-.4H60.62a.4.4,0,0,1,.4.4v.88A.4.4,0,0,1,60.62,174.724Z" transform="translate(-48.27 -147.239)" fill="#fff"/>
  <path id="Path_7121" data-name="Path 7121" d="M116.728,184v9.115H124.7l-2.741-8.625a.7.7,0,0,0-.67-.49Z" transform="translate(-105.969 -156.519)" fill="#fff"/>
  <circle id="Ellipse_104" data-name="Ellipse 104" cx="1.292" cy="1.292" r="1.292" transform="translate(12.631 30.01)" fill="#fff"/>
  <path id="Path_7122" data-name="Path 7122" d="M117.423,239.442H107.211a.4.4,0,0,1-.4-.4v-.968a.4.4,0,0,1,.4-.4h10.212a.4.4,0,0,1,.4.4v.968A.4.4,0,0,1,117.423,239.442Z" transform="translate(-97.573 -201.957)" fill="#fff"/>
  <g id="Group_4448" data-name="Group 4448">
    <path id="Path_7123" data-name="Path 7123" d="M149.643,83.551A1.648,1.648,0,1,0,148,85.2,1.649,1.649,0,0,0,149.643,83.551ZM148,84.585a1.034,1.034,0,1,1,1.034-1.034A1.035,1.035,0,0,1,148,84.585Z" transform="translate(-131.046 -70.077)" fill="#fff"/>
    <path id="Path_7124" data-name="Path 7124" d="M128.531,198.47a1.6,1.6,0,1,0,1.6,1.6A1.6,1.6,0,0,0,128.531,198.47Zm0,2.584a.985.985,0,1,1,.985-.985A.987.987,0,0,1,128.531,201.054Z" transform="translate(-114.608 -168.766)" fill="#fff"/>
    <path id="Path_7125" data-name="Path 7125" d="M71.552,26.52A10.327,10.327,0,0,0,66.794,17.8a3.3,3.3,0,0,0-1.309-2.186l3.048-5.278a.945.945,0,0,0-.345-1.289h0l-.136-.079L68.722,7.8a.945.945,0,0,0-.345-1.289L65.619,4.921a.943.943,0,0,0-1.289.345l-.672,1.163-.137-.079a.945.945,0,0,0-1.289.346L54.4,20.261l-.27-.156a.69.69,0,0,0-.941.252l-.478.827a.69.69,0,0,0,.252.941l.653.377L52.87,23.8a.562.562,0,0,0,.206.767c1.057.61,1.055.635,1.248.635a.561.561,0,0,0,.487-.281l.746-1.293,1.325.765-.746,1.293a.561.561,0,0,0,.206.767l.968.559a.561.561,0,0,0,.767-.206l.746-1.293.981.566a.688.688,0,0,0,.941-.252L61.223,25a.689.689,0,0,0-.252-.941L60.7,23.9l1.5-2.6a3.286,3.286,0,0,0,2.864-.106,6.6,6.6,0,0,1-2.141,11.7l-.069-.217a1.007,1.007,0,0,0-.963-.7H59.624a.7.7,0,0,0,.01-.094V31a.708.708,0,0,0-.707-.707H47.284a.708.708,0,0,0-.707.707v.88a.708.708,0,0,0,.707.707h5.465a10.389,10.389,0,0,0,4.28,3.454V40.2h-.814a.708.708,0,0,0-.707.707v.968a.708.708,0,0,0,.707.707H66.427a.708.708,0,0,0,.707-.707V40.91a.708.708,0,0,0-.707-.707H65.25L64.07,36.49a10.374,10.374,0,0,0,7.483-9.97ZM64.861,5.573a.33.33,0,0,1,.451-.121L68.07,7.044a.331.331,0,0,1,.121.451l-.672,1.163-3.33-1.922ZM55.026,23.316l-.72,1.248-.878-.507.72-1.248.84.485ZM58.292,25.2l-.72,1.248-.878-.507.72-1.248.283.163Zm2.4-.513-.478.827a.075.075,0,0,1-.1.027l-6.84-3.949a.076.076,0,0,1-.028-.1l.478-.827a.076.076,0,0,1,.065-.038.075.075,0,0,1,.038.01l6.84,3.949a.074.074,0,0,1,.035.046A.075.075,0,0,1,60.691,24.689ZM61.666,21l-1.5,2.593-5.238-3.024L62.764,7a.33.33,0,0,1,.451-.121L67.88,9.575a.331.331,0,0,1,.121.451L64.96,15.293a3.348,3.348,0,0,0-1.434-.33A3.3,3.3,0,0,0,61.666,21Zm-.831-2.731a2.691,2.691,0,1,1,2.691,2.691A2.694,2.694,0,0,1,60.835,18.268ZM68.4,26.52a7.227,7.227,0,0,0-2.783-5.693,3.287,3.287,0,0,0,1.2-2.247c0-.009,0-.018,0-.027a9.769,9.769,0,0,1-2.935,17.354l-.179-.564-.593-1.865A7.188,7.188,0,0,0,68.4,26.52Zm-21.2,5.358V31a.094.094,0,0,1,.094-.094H58.926A.094.094,0,0,1,59.02,31v.88a.094.094,0,0,1-.094.094H47.284A.094.094,0,0,1,47.19,31.879Zm6.326.707h3.513v2.783A9.774,9.774,0,0,1,53.516,32.586ZM66.521,40.91v.968a.094.094,0,0,1-.094.094H56.216a.094.094,0,0,1-.094-.094V40.91a.094.094,0,0,1,.094-.094H66.428A.094.094,0,0,1,66.521,40.91ZM57.643,40.2V32.586H61.9a.4.4,0,0,1,.378.276l.156.492h0l.693,2.181L64.606,40.2Z" transform="translate(-46.577 -4.794)" fill="none"/>
  </g>
</svg>
