<svg id="microscope-secondary" xmlns="http://www.w3.org/2000/svg" xmlns:xlink="http://www.w3.org/1999/xlink" width="28.418" height="43" viewBox="0 0 28.418 43">
  <defs>
    <linearGradient id="linear-gradient" x1="0.5" x2="0.5" y2="1" gradientUnits="objectBoundingBox">
      <stop offset="0" stop-color="#ec3f80"/>
      <stop offset="0.331" stop-color="#eb3b7b"/>
      <stop offset="0.726" stop-color="#e72e6c"/>
      <stop offset="1" stop-color="#e3215e"/>
    </linearGradient>
  </defs>
  <path id="Path_7114" data-name="Path 7114" d="M90.367,118.6l-1.1-.636a.29.29,0,0,1-.106-.4l1.4-2.416a.29.29,0,0,1,.4-.106l1.1.636a.29.29,0,0,1,.106.4L90.763,118.5A.29.29,0,0,1,90.367,118.6Z" transform="translate(-81.696 -95.777)" fill="url(#linear-gradient)"/>
  <path id="Path_7115" data-name="Path 7115" d="M111.659,130.9l-1.1-.636a.29.29,0,0,1-.106-.4l1.395-2.416a.29.29,0,0,1,.4-.106l1.1.636a.29.29,0,0,1,.106.4l-1.395,2.416A.29.29,0,0,1,111.659,130.9Z" transform="translate(-99.272 -105.925)" fill="url(#linear-gradient)"/>
  <path id="Path_7116" data-name="Path 7116" d="M96.57,112.114l.544-.941a.435.435,0,0,0-.159-.594l-7.782-4.493a.435.435,0,0,0-.594.159l-.544.941a.435.435,0,0,0,.159.594l7.782,4.493A.435.435,0,0,0,96.57,112.114Z" transform="translate(-80.751 -88.361)" fill="url(#linear-gradient)"/>
  <path id="Path_7117" data-name="Path 7117" d="M113.97,20.271l-9.086,15.737-6.564-3.79,9.086-15.737a.725.725,0,0,1,.99-.265l5.309,3.065a.724.724,0,0,1,.265.99Z" transform="translate(-89.291 -14.143)" fill="url(#linear-gradient)"/>
  <path id="Path_7118" data-name="Path 7118" d="M163.075,11.32l.939-1.626a.725.725,0,0,0-.265-.99l-3.138-1.812a.725.725,0,0,0-.99.265l-.939,1.626Z" transform="translate(-139.119 -6.446)" fill="url(#linear-gradient)"/>
  <path id="Path_7126" data-name="Path 7126" d="M3.411,0A3.411,3.411,0,1,1,0,3.411,3.411,3.411,0,0,1,3.411,0Z" transform="translate(15.874 11.919)" fill="url(#linear-gradient)"/>
  <circle id="Ellipse_103" data-name="Ellipse 103" cx="1.526" cy="1.526" r="1.526" transform="translate(17.76 13.805)" fill="url(#linear-gradient)"/>
  <path id="Path_7119" data-name="Path 7119" d="M102.185,90.763c.01.108.017.218.017.328A3.406,3.406,0,0,1,100.568,94a7.868,7.868,0,1,1-9.306,12.679h-4.8a11.463,11.463,0,1,0,15.719-15.915Z" transform="translate(-79.505 -75.761)" fill="url(#linear-gradient)"/>
  <path id="Path_7120" data-name="Path 7120" d="M62.28,174.956H49.033a.456.456,0,0,1-.456-.456v-1a.456.456,0,0,1,.456-.456H62.28a.456.456,0,0,1,.456.456v1A.456.456,0,0,1,62.28,174.956Z" transform="translate(-48.228 -143.683)" fill="url(#linear-gradient)"/>
  <path id="Path_7121" data-name="Path 7121" d="M116.728,184v10.372H125.8l-3.119-9.814a.8.8,0,0,0-.763-.558Z" transform="translate(-104.486 -152.731)" fill="url(#linear-gradient)"/>
  <circle id="Ellipse_104" data-name="Ellipse 104" cx="1.47" cy="1.47" r="1.47" transform="translate(14.371 34.146)" fill="url(#linear-gradient)"/>
  <path id="Path_7122" data-name="Path 7122" d="M118.886,239.685H107.267a.456.456,0,0,1-.456-.456v-1.1a.456.456,0,0,1,.456-.456h11.619a.456.456,0,0,1,.456.456v1.1A.456.456,0,0,1,118.886,239.685Z" transform="translate(-96.3 -197.034)" fill="url(#linear-gradient)"/>
  <g id="Group_4448" data-name="Group 4448">
    <path id="Path_7123" data-name="Path 7123" d="M150.1,83.778a1.875,1.875,0,1,0-1.875,1.875A1.877,1.877,0,0,0,150.1,83.778Zm-1.875,1.177a1.177,1.177,0,1,1,1.177-1.177A1.178,1.178,0,0,1,148.223,84.954Z" transform="translate(-128.937 -68.447)" fill="url(#linear-gradient)"/>
    <path id="Path_7124" data-name="Path 7124" d="M128.751,198.47a1.819,1.819,0,1,0,1.819,1.819A1.821,1.821,0,0,0,128.751,198.47Zm0,2.94a1.121,1.121,0,1,1,1.121-1.121A1.123,1.123,0,0,1,128.751,201.41Z" transform="translate(-112.91 -164.672)" fill="url(#linear-gradient)"/>
    <path id="Path_7125" data-name="Path 7125" d="M74.995,29.515A11.75,11.75,0,0,0,69.58,19.59,3.757,3.757,0,0,0,68.091,17.1L71.559,11.1a1.075,1.075,0,0,0-.393-1.467h0l-.155-.09.764-1.324a1.075,1.075,0,0,0-.393-1.467L68.243,4.938a1.073,1.073,0,0,0-1.467.393l-.764,1.324-.155-.09a1.075,1.075,0,0,0-1.467.393L55.479,22.393l-.307-.177A.785.785,0,0,0,54.1,22.5l-.544.941a.785.785,0,0,0,.287,1.071l.743.429-.849,1.471a.64.64,0,0,0,.234.873c1.2.694,1.2.722,1.42.722a.638.638,0,0,0,.554-.32l.849-1.471,1.507.87-.849,1.471a.639.639,0,0,0,.234.873l1.1.636a.638.638,0,0,0,.873-.234l.849-1.471,1.116.644a.783.783,0,0,0,1.071-.287l.543-.941a.783.783,0,0,0-.287-1.071l-.307-.177,1.711-2.963a3.738,3.738,0,0,0,3.259-.12A7.514,7.514,0,0,1,65.18,36.766l-.078-.247a1.145,1.145,0,0,0-1.1-.8H61.423a.8.8,0,0,0,.011-.107v-1a.806.806,0,0,0-.8-.8H47.382a.806.806,0,0,0-.8.8v1a.805.805,0,0,0,.8.8H53.6a11.82,11.82,0,0,0,4.87,3.93v4.737h-.926a.806.806,0,0,0-.8.8v1.1a.806.806,0,0,0,.8.8H69.163a.806.806,0,0,0,.8-.8v-1.1a.806.806,0,0,0-.8-.8h-1.34l-1.343-4.225a11.8,11.8,0,0,0,8.514-11.344ZM67.381,5.68a.375.375,0,0,1,.513-.137l3.138,1.812a.376.376,0,0,1,.138.513l-.764,1.324L66.617,7ZM56.191,25.869l-.82,1.42-1-.577.82-1.42.955.552Zm3.716,2.145-.82,1.42-1-.577.819-1.42.322.186Zm2.73-.584-.544.941a.085.085,0,0,1-.117.031L54.193,23.91a.086.086,0,0,1-.032-.117l.544-.941a.086.086,0,0,1,.075-.043.085.085,0,0,1,.043.012l7.783,4.493a.084.084,0,0,1,.04.052A.085.085,0,0,1,62.637,27.431Zm1.11-4.2-1.7,2.951-5.959-3.441L64.994,7.307a.376.376,0,0,1,.513-.138l5.308,3.065a.377.377,0,0,1,.138.513l-3.46,5.992a3.81,3.81,0,0,0-1.632-.376,3.76,3.76,0,0,0-2.116,6.868ZM62.8,20.125a3.062,3.062,0,1,1,3.062,3.062A3.066,3.066,0,0,1,62.8,20.125Zm8.6,9.39a8.223,8.223,0,0,0-3.166-6.477A3.741,3.741,0,0,0,69.6,20.481c0-.01,0-.021,0-.031A11.115,11.115,0,0,1,66.27,40.195l-.2-.641-.674-2.122A8.179,8.179,0,0,0,71.4,29.515Zm-24.128,6.1v-1a.107.107,0,0,1,.107-.107H60.629a.107.107,0,0,1,.107.107v1a.107.107,0,0,1-.107.107H47.382A.107.107,0,0,1,47.275,35.611Zm7.2.8h4v3.166A11.121,11.121,0,0,1,54.472,36.416Zm14.8,9.472v1.1a.107.107,0,0,1-.107.107H57.544a.107.107,0,0,1-.107-.107v-1.1a.107.107,0,0,1,.107-.107H69.163A.107.107,0,0,1,69.27,45.888Zm-10.1-.8V36.416h4.839a.449.449,0,0,1,.43.314l.178.559h0l.789,2.481,1.688,5.312Z" transform="translate(-46.577 -4.794)" fill="none"/>
  </g>
</svg>
