<svg xmlns="http://www.w3.org/2000/svg" xmlns:xlink="http://www.w3.org/1999/xlink" width="60.396" height="60.4" viewBox="0 0 60.396 60.4">
  <defs>
    <linearGradient id="linear-gradient" x1="0.5" x2="0.5" y2="1" gradientUnits="objectBoundingBox">
      <stop offset="0" stop-color="#ec3f80"/>
      <stop offset="1" stop-color="#e3215e"/>
    </linearGradient>
  </defs>
  <g id="pills" transform="translate(-0.016)">
    <path id="Path_38496" data-name="Path 38496" d="M32.494,43.956l8.929-8.929V23.036a5.316,5.316,0,0,0-5.353-4.987h-2.2V14.038H35.04a3.61,3.61,0,0,0,3.552-3.482V3.707A3.781,3.781,0,0,0,35.04,0H30.434V10.5H26.895V0H22.548V10.5H19.009V0H14.377V10.5H10.838V0H6.517A3.781,3.781,0,0,0,2.965,3.707v6.849a3.61,3.61,0,0,0,3.552,3.482h.931v4.011H5.605c-2.76,0-5.589,2.275-5.589,4.987V55.207c0,2.621,2.769,5.193,5.589,5.193H32.888L32.494,60A11.361,11.361,0,0,1,32.494,43.956Zm-9.946-2.962v5.913a1.77,1.77,0,0,1-3.539,0V40.994H13.1a1.77,1.77,0,1,1,0-3.539h5.913V31.542a1.77,1.77,0,1,1,3.539,0v5.913h5.913a1.77,1.77,0,0,1,0,3.539Z" fill="#ea3686" opacity="0.7"/>
    <path id="Path_38497" data-name="Path 38497" d="M372.911,280.058l-.61-.61a7.819,7.819,0,0,0-11.044,0l-4.358,4.358,11.654,11.654,4.357-4.357A7.818,7.818,0,0,0,372.911,280.058Z" transform="translate(-314.783 -244.468)" opacity="0.7" fill="url(#linear-gradient)"/>
    <path id="Path_38498" data-name="Path 38498" d="M279.461,359.289a7.818,7.818,0,0,0,0,11.044l.61.61a7.818,7.818,0,0,0,11.044,0l4.618-4.619L284.08,354.671Z" transform="translate(-244.465 -312.831)" fill="url(#linear-gradient)"/>
  </g>
</svg>
