<svg xmlns="http://www.w3.org/2000/svg" width="23.686" height="29.99" viewBox="0 0 23.686 29.99">
  <g id="pin" transform="translate(0.25 0.25)">
    <g id="Group_36158" data-name="Group 36158" transform="translate(0)">
      <g id="Group_36157" data-name="Group 36157">
        <path id="Path_38210" data-name="Path 38210" d="M59.673,0C53.28,0,48.08,4.887,48.08,10.894a11.948,11.948,0,0,0,.983,4.194,17.245,17.245,0,0,0,1.34,2.355L58.352,28.76a1.561,1.561,0,0,0,2.642,0l7.949-11.318a17.173,17.173,0,0,0,1.34-2.355,11.945,11.945,0,0,0,.983-4.194C71.266,4.887,66.065,0,59.673,0Zm9.353,14.59A15.8,15.8,0,0,1,67.8,16.737L59.855,28.055c-.157.224-.207.224-.363,0L51.542,16.737a15.807,15.807,0,0,1-1.221-2.147,10.847,10.847,0,0,1-.877-3.7c0-5.3,4.589-9.612,10.229-9.612S69.9,5.594,69.9,10.894A10.855,10.855,0,0,1,69.026,14.59Z" transform="translate(-48.08)" fill="#ea3878" stroke="#ea3878" stroke-width="0.5"/>
        <path id="Path_38211" data-name="Path 38211" d="M118.217,64.008a5.778,5.778,0,1,0,6.137,5.767A5.968,5.968,0,0,0,118.217,64.008Zm0,10.253a4.494,4.494,0,1,1,4.774-4.486A4.642,4.642,0,0,1,118.217,74.261Z" transform="translate(-106.624 -58.881)" fill="#ea3878" stroke="#ea3878" stroke-width="0.5"/>
      </g>
    </g>
  </g>
</svg>
