<svg id="radiology" xmlns="http://www.w3.org/2000/svg" width="23.863" height="27.834" viewBox="0 0 23.863 27.834">
  <path id="Path_7127" data-name="Path 7127" d="M129.988,36.97c.96,0,1.988-1.75,1.988-2.982a1.988,1.988,0,0,0-3.976,0C128,35.22,129.028,36.97,129.988,36.97Z" transform="translate(-122.036 -32)" fill="#fff"/>
  <path id="Path_7129" data-name="Path 7129" d="M184,403.976a.994.994,0,0,0,1.988,0V400H184Z" transform="translate(-174.556 -377.136)" fill="#fff"/>
  <path id="Path_7130" data-name="Path 7130" d="M104,403.976a.994.994,0,0,0,1.988,0V400H104Z" transform="translate(-99.527 -377.136)" fill="#fff"/>
  <path id="Path_7131" data-name="Path 7131" d="M74.2,128H67.24a2.489,2.489,0,0,0-2.435,1.988H76.634A2.489,2.489,0,0,0,74.2,128Z" transform="translate(-62.767 -122.036)" fill="#fff"/>
  <path id="Path_7133" data-name="Path 7133" d="M47.905,176H32v12.923H47.905Zm-2.982,5.467a.5.5,0,0,1-.461-.311,19.384,19.384,0,0,0-3.846-.186H40.45v1.491h.032c2.192,0,3.267.014,3.722.468a.732.732,0,0,1,.223.527.5.5,0,0,1-.968.158,14.088,14.088,0,0,0-2.974-.159H40.45v1.492h1.491a.5.5,0,0,1,.5.5,2.485,2.485,0,0,1-4.97,0,.5.5,0,0,1,.5-.5h1.491v-1.492h-.034a14.109,14.109,0,0,0-2.974.159.5.5,0,0,1-.968-.158.732.732,0,0,1,.223-.527c.455-.454,1.529-.473,3.722-.468h.032V180.97H39.29a19.368,19.368,0,0,0-3.846.186.5.5,0,0,1-.958-.186.706.706,0,0,1,.213-.5c.48-.48,1.756-.5,4.593-.493h.164v-1.491h-.034a14.124,14.124,0,0,0-2.974.159.5.5,0,0,1-.968-.158.732.732,0,0,1,.223-.527c.455-.454,1.529-.473,3.722-.468h.032a.5.5,0,1,1,.994,0h.032c2.192,0,3.267.014,3.722.468a.732.732,0,0,1,.223.527.5.5,0,0,1-.968.158,14.113,14.113,0,0,0-2.974-.159H40.45v1.491h.164c2.839,0,4.113.014,4.593.493a.706.706,0,0,1,.213.5A.5.5,0,0,1,44.923,181.467Z" transform="translate(-32 -167.053)" fill="#fff"/>
  <path id="Path_7134" data-name="Path 7134" d="M400.5,440h0a.5.5,0,1,0,.5.5A.5.5,0,0,0,400.5,440Z" transform="translate(-377.136 -414.651)" fill="#fff"/>
  <path id="Path_7135" data-name="Path 7135" d="M400.5,408h0a.5.5,0,1,0,.5.5A.5.5,0,0,0,400.5,408Z" transform="translate(-377.136 -384.639)" fill="#fff"/>
  <path id="Path_7136" data-name="Path 7136" d="M400.5,376h0a.5.5,0,1,0,.5.5A.5.5,0,0,0,400.5,376Z" transform="translate(-377.136 -354.627)" fill="#fff"/>
  <path id="Path_7137" data-name="Path 7137" d="M400.5,344h0a.5.5,0,1,0,.5.5A.5.5,0,0,0,400.5,344Z" transform="translate(-377.136 -324.615)" fill="#fff"/>
  <path id="Path_7138" data-name="Path 7138" d="M400.5,312h0a.5.5,0,1,0,.5.5A.5.5,0,0,0,400.5,312Z" transform="translate(-377.136 -294.604)" fill="#fff"/>
  <path id="Path_7139" data-name="Path 7139" d="M400.5,280h0a.5.5,0,1,0,.5.5A.5.5,0,0,0,400.5,280Z" transform="translate(-377.136 -264.592)" fill="#fff"/>
  <path id="Path_7140" data-name="Path 7140" d="M400.5,248h0a.5.5,0,1,0,.5.5A.5.5,0,0,0,400.5,248Z" transform="translate(-377.136 -234.58)" fill="#fff"/>
  <path id="Path_7141" data-name="Path 7141" d="M400.5,216h0a.5.5,0,1,0,.5.5A.5.5,0,0,0,400.5,216Z" transform="translate(-377.136 -204.568)" fill="#fff"/>
  <path id="Path_7142" data-name="Path 7142" d="M400.5,56h0a.5.5,0,1,0,.5.5A.5.5,0,0,0,400.5,56Z" transform="translate(-377.136 -54.509)" fill="#fff"/>
  <path id="Path_7143" data-name="Path 7143" d="M400.5,184h0a.5.5,0,1,0,.5.5A.5.5,0,0,0,400.5,184Z" transform="translate(-377.136 -174.556)" fill="#fff"/>
  <path id="Path_7144" data-name="Path 7144" d="M400.5,152h0a.5.5,0,1,0,.5.5A.5.5,0,0,0,400.5,152Z" transform="translate(-377.136 -144.544)" fill="#fff"/>
  <path id="Path_7145" data-name="Path 7145" d="M400.5,120h0a.5.5,0,1,0,.5.5A.5.5,0,0,0,400.5,120Z" transform="translate(-377.136 -114.533)" fill="#fff"/>
  <path id="Path_7146" data-name="Path 7146" d="M400.5,88h0a.5.5,0,1,0,.5.5A.5.5,0,0,0,400.5,88Z" transform="translate(-377.136 -84.521)" fill="#fff"/>
  <path id="Path_7147" data-name="Path 7147" d="M233.941,80.355V56.5a.5.5,0,0,0-.5-.5H224.5a.5.5,0,1,0,0,.994h8.45V79.858h-5.467a.5.5,0,0,0,0,.994h5.964A.5.5,0,0,0,233.941,80.355Z" transform="translate(-212.071 -54.509)" fill="#fff"/>
</svg>
