<svg xmlns="http://www.w3.org/2000/svg" width="18" height="20" viewBox="0 0 18 20">
  <g id="remove-ico" opacity="0.4">
    <path id="remove-ico-2" data-name="remove-ico" d="M17.287,3.243A.723.723,0,0,1,18,3.977v.38a.73.73,0,0,1-.713.734H.714A.73.73,0,0,1,0,4.357v-.38a.723.723,0,0,1,.714-.734H3.63A1.282,1.282,0,0,0,4.871,2.228l.153-.682A1.988,1.988,0,0,1,6.935,0h4.129a1.986,1.986,0,0,1,1.9,1.5l.163.73a1.281,1.281,0,0,0,1.241,1.016ZM15.806,17.134c.3-2.837.837-9.577.837-9.645a.746.746,0,0,0-.181-.558.726.726,0,0,0-.523-.234H2.069a.706.706,0,0,0-.523.234.791.791,0,0,0-.191.558c0,.012.021.25.053.647.142,1.763.538,6.674.793,9a2.917,2.917,0,0,0,2.931,2.827C6.388,19.99,7.681,20,9,20c1.246,0,2.511-.01,3.806-.039A2.917,2.917,0,0,0,15.806,17.134Z" fill="#030229" fill-rule="evenodd"/>
  </g>
</svg>
