<svg id="left-quote" xmlns="http://www.w3.org/2000/svg" width="22.291" height="18.615" viewBox="0 0 22.291 18.615">
  <g id="Group_36282" data-name="Group 36282" transform="translate(0 0)">
    <path id="Path_38295" data-name="Path 38295" d="M3.787,16.294a5.907,5.907,0,0,1,1.632-.238,5.129,5.129,0,0,1,2.046.419c-.514-1.883-1.75-5.132-4.212-5.5a.585.585,0,0,1-.477-.421L2.239,8.632A.585.585,0,0,1,2.722,7.9a4.087,4.087,0,0,1,.55-.037c2.955,0,5.881,3.084,7.116,7.5.725,2.591.937,6.485-.848,8.937a5.331,5.331,0,0,1-4.333,2.177H5.185a5.186,5.186,0,0,1-1.4-10.178Z" transform="translate(11.37 -7.858)" fill="#ea3878"/>
    <path id="Path_38296" data-name="Path 38296" d="M49.3,18.743a5.2,5.2,0,0,1,3.118-2.449,5.906,5.906,0,0,1,1.632-.238,5.13,5.13,0,0,1,2.047.419c-.514-1.883-1.75-5.132-4.212-5.5a.585.585,0,0,1-.477-.421l-.538-1.924a.585.585,0,0,1,.484-.737,4.082,4.082,0,0,1,.55-.037c2.955,0,5.881,3.084,7.116,7.5.725,2.591.937,6.485-.849,8.937a5.33,5.33,0,0,1-4.332,2.177h-.023a5.186,5.186,0,0,1-4.515-7.73Z" transform="translate(-48.626 -7.858)" fill="#ea3878"/>
  </g>
</svg>
