<svg xmlns="http://www.w3.org/2000/svg" width="161.544" height="168.784" viewBox="0 0 161.544 168.784">
  <g id="success" transform="translate(-501.97 -434.049)">
    <path id="Path_38317" data-name="Path 38317" d="M932.286,434.1c-3.344-2.586-79.163,89.837-79.163,89.837l-24.732-30.813c-3.676-4.612-17.21,13.877-13.687,19.124l7.31,10.888,20.417,30.41.07.11a13,13,0,0,0,21.7-.292l69.851-109.083A7.686,7.686,0,0,0,932.286,434.1Z" transform="translate(-271.732)" fill="#ea3878"/>
    <path id="Path_38318" data-name="Path 38318" d="M638.558,560.508a62.556,62.556,0,1,1-23.576-27.038q6.1-7.163,11.324-13.173a79.765,79.765,0,1,0,22.852,23.657Z" transform="translate(0 -63.146)" fill="#ea3878"/>
  </g>
</svg>
