<svg xmlns="http://www.w3.org/2000/svg" width="27.118" height="22.077"><g data-name="Group 3233" fill="#e73d7d"><path data-name="Path 5413" d="M6.712 16.048l-.74-1.6q-1.919-4.2-3.842-8.4a.407.407 0 01.117-.562 10.247 10.247 0 016.381-2.913c1.685-.112 3.378-.108 5.068-.131A15.586 15.586 0 0020.732.836c.5-.256.982-.545 1.5-.837.187.409.37.807.549 1.206 1.391 3.089 2.777 6.181 4.18 9.264.136.3.082.43-.177.6a13 13 0 01-6.324 2.258c-1.795.125-3.6.111-5.4.16a15.9 15.9 0 00-5.269.84 12.041 12.041 0 00-2.684 1.429zm10.217-4.389c.657 0 1.6.058 2.534-.016.963-.077 1.915-.285 2.872-.429a.364.364 0 00.332-.347 5.919 5.919 0 011.2-2.66.38.38 0 00.068-.446q-.621-1.391-1.216-2.793a.4.4 0 00-.362-.269 5.976 5.976 0 01-2.919-1.249.493.493 0 00-.383-.076 20.021 20.021 0 01-5.237.674c-1.448.031-2.9-.014-4.342.093a26.37 26.37 0 00-2.953.537c-.2.038-.267.155-.294.368a5.878 5.878 0 01-1.181 2.978.438.438 0 00-.032.375c.277.637.594 1.258.865 1.9a.91.91 0 00.849.687 5.444 5.444 0 012.758 1.284.633.633 0 00.6.115 19.334 19.334 0 012.524-.507c1.336-.129 2.686-.144 4.317-.219z"/><path data-name="Path 5414" d="M5.028 22.077l-1.3-2.875Q1.9 15.16.067 11.12c-.091-.2-.1-.338.07-.49.474-.414.94-.837 1.42-1.265l4.263 9.38.757-.527a15.084 15.084 0 016.078-2.67 27.981 27.981 0 013.357-.307c1.148-.052 2.3 0 3.45-.025a16.29 16.29 0 006.759-1.534c.058-.027.121-.046.222-.084.232.544.466 1.076.675 1.618.021.053-.1.2-.181.247a13.021 13.021 0 01-3.811 1.39 21.75 21.75 0 01-4.15.352c-1.194.008-2.388.013-3.58.056a13.968 13.968 0 00-9.294 3.8c-.349.325-.691.654-1.074 1.016z"/><path data-name="Path 5415" d="M15.199 10.771a4.321 4.321 0 01-3.882-2.593 2.42 2.42 0 012-3.477 4.355 4.355 0 014.459 2.853 2.427 2.427 0 01-2.577 3.217zm.449-1.143c-.148-.275-.017-.409.207-.551a.671.671 0 00.253-.845 1.23 1.23 0 00-.88-.78c-.3-.094-.625-.134-.93-.226a1.1 1.1 0 01-.3-.22 1.076 1.076 0 01.344-.185 7.248 7.248 0 01.782-.009c-.042-.731-.055-.745-.723-.748a.418.418 0 01-.132 0 .349.349 0 01-.154-.093c-.2-.261-.373-.282-.7-.07l.076.261a3.142 3.142 0 00-.459.591.93.93 0 00.637 1.177c.356.133.75.162 1.119.265.116.033.206.156.308.238-.118.066-.232.178-.354.189-.3.028-.608.009-.915.009-.074.648.013.753.649.774a2.121 2.121 0 01.265.006c.06.009.15.031.169.073.173.402.448.232.738.144z"/></g></svg>