<svg xmlns="http://www.w3.org/2000/svg" width="76.329" height="71.773"><g fill="#fff"><path data-name="Path 38218" d="M42.416 12.561a21.361 21.361 0 103.565 31.292l3.03 2.203a5.575 5.575 0 002.064 6.086l4.948 3.597a5.566 5.566 0 106.544-9.003l-4.948-3.597a5.575 5.575 0 00-6.427-.084l-3.03-2.202a21.39 21.39 0 00-5.749-28.288zM19.479 44.118a17.651 17.651 0 1124.656-3.9 17.671 17.671 0 01-24.656 3.9zm40.904 5.621a1.855 1.855 0 01-2.181 3.001l-4.948-3.596a1.855 1.855 0 012.181-3.001z"/><path data-name="Path 38219" d="M41.409 31.78l-4.259-3.095 3.094-4.257a1.855 1.855 0 00-.41-2.591l-5.447-3.96a1.855 1.855 0 00-2.59.41l-3.095 4.258-4.257-3.094a1.855 1.855 0 00-2.591.41l-3.96 5.447a1.855 1.855 0 00.41 2.592l4.258 3.094-3.095 4.258a1.855 1.855 0 00.41 2.592l5.448 3.96a1.855 1.855 0 002.591-.41l3.095-4.258 4.258 3.094a1.855 1.855 0 002.591-.41l3.96-5.448a1.855 1.855 0 00-.411-2.592zm-7.94-1.184l4.258 3.095-1.779 2.447-4.257-3.094a1.855 1.855 0 00-2.591.41l-3.095 4.258-2.447-1.779 3.094-4.258a1.855 1.855 0 00-.41-2.59l-4.256-3.095 1.778-2.447 4.258 3.094a1.855 1.855 0 002.591-.41l3.095-4.256 2.447 1.778-3.094 4.257a1.855 1.855 0 00.409 2.591z"/></g></svg>