<svg xmlns="http://www.w3.org/2000/svg" width="20.969" height="22.2"><g data-name="doctor (1)"><g data-name="Group 36159"><path data-name="Path 38212" d="M20.85 20.973l-1.036-5.7a1.66 1.66 0 00-1.21-1.287l-2.791-.786a2.838 2.838 0 00-.8-1.726 3.143 3.143 0 00-1.358-.816c.088-.092.17-.184.246-.274a4.954 4.954 0 001.111-2.265h.216a.988.988 0 001.017-.955V6.67a.955.955 0 00-.527-.835V4.657a.344.344 0 00-.686 0v1.322a2.218 2.218 0 00-.461.121.356.356 0 00-.048.02 1.56 1.56 0 00-.11.051v-2.6a1.346 1.346 0 00-1.384-1.3h-.946a1.48 1.48 0 00-.9.3l-.093.071a1.006 1.006 0 01-1.212 0l-.093-.071a1.48 1.48 0 00-.9-.3h-.946a1.346 1.346 0 00-1.384 1.3v2.6c-.037-.019-.074-.035-.11-.051a.355.355 0 00-.047-.02 2.219 2.219 0 00-.456-.124v-3.34A1.958 1.958 0 017.956.744h5.057a1.958 1.958 0 012.013 1.892v.506a.344.344 0 00.686 0v-.506A2.624 2.624 0 0013.013.1H7.956a2.624 2.624 0 00-2.7 2.536v3.2a.955.955 0 00-.527.835v.49a.988.988 0 001.017.955h.216a4.954 4.954 0 001.111 2.265c.075.09.157.182.245.274A2.983 2.983 0 005.156 13.2l-2.794.792a1.66 1.66 0 00-1.212 1.284L.729 17.59a.325.325 0 00.28.372.341.341 0 00.4-.263l.421-2.314a1 1 0 01.732-.779l2.584-.733v.637a1.693 1.693 0 00-1.3 1.014 1.55 1.55 0 00-.1.438l-.25 3.012a.791.791 0 00.229.62.9.9 0 00.64.263h.427a.323.323 0 100-.644h-.427a.192.192 0 01-.136-.056.169.169 0 01-.049-.132l.25-3.012a.938.938 0 01.062-.265 1.038 1.038 0 01.97-.621h.064a1.033 1.033 0 01.957.577.94.94 0 01.08.309l.25 3.012a.169.169 0 01-.049.132.192.192 0 01-.136.056h-.427a.323.323 0 100 .644h.427a.9.9 0 00.64-.263.791.791 0 00.229-.62l-.25-3.012a1.551 1.551 0 00-.133-.511 1.683 1.683 0 00-1.278-.943v-.83l1.179-.334c.107.212.32.671.741 1.659s.951 2.276 1.457 3.519a.314.314 0 00.012.031c.337.83.665 1.642.945 2.344a.351.351 0 00.642 0c.28-.7.607-1.514.945-2.344a.308.308 0 00.012-.031c.505-1.242 1.032-2.52 1.456-3.517s.634-1.449.741-1.661l1.179.334v1.9a1.7 1.7 0 00-1.435 1.636 1.777 1.777 0 003.548 0 1.7 1.7 0 00-1.427-1.635v-1.71l2.584.733a1 1 0 01.732.779l1.036 5.7a.3.3 0 01-.075.26.344.344 0 01-.26.114H1.128a.344.344 0 01-.26-.114.3.3 0 01-.075-.26l.342-1.88a.325.325 0 00-.28-.372.341.341 0 00-.4.263l-.342 1.88a.922.922 0 00.227.784 1.052 1.052 0 00.784.342H19.84a1.052 1.052 0 00.784-.342.922.922 0 00.226-.783zM15.031 6.635a1.561 1.561 0 01.331-.042.369.369 0 00.168-.037.289.289 0 01.024.114v.49a.322.322 0 01-.331.311h-.192zm-9.092.835H5.75a.322.322 0 01-.331-.311V6.67a.29.29 0 01.024-.114.368.368 0 00.168.037 1.622 1.622 0 01.331.042zm.686.361v-.846a.508.508 0 00.322-.016.452.452 0 00.3-.417V3.578a.679.679 0 01.7-.656h.946a.765.765 0 01.464.156l.093.071a1.726 1.726 0 002.08 0l.093-.071a.764.764 0 01.464-.156h.946a.679.679 0 01.7.656v2.974a.452.452 0 00.3.417.508.508 0 00.322.016v.846a4.037 4.037 0 01-.987 2.15 4.4 4.4 0 01-.822.765l-.031.022a3.514 3.514 0 01-4.042 0l-.03-.022a4.4 4.4 0 01-.822-.765 4.037 4.037 0 01-.997-2.149zm6.107 5.205l-2.246 1.578-2.246-1.578a1.471 1.471 0 00.348-.912v-.519a4.255 4.255 0 003.8 0v.519a1.471 1.471 0 00.342.913zm-5.064-.36a.994.994 0 00-.578-.027l-.025.006-1.184.336a2.376 2.376 0 012.021-1.805v.938a.825.825 0 01-.236.553zm.931 2.586h0l-.052-.122-.009-.022-.049-.117v-.008l-.147-.345-.01-.024-.04-.094-.014-.034-.038-.088-.011-.026-.079-.157-.018-.041-.025-.058-.027-.061-.01-.023-.008-.018-.113-.256h0l-.056-.124-.027-.061 1.932 1.357-.807.322h0l-.341.138zm.818 1.973l-.2-.5q-.16-.389-.307-.741l.128-.051.523.571zm1.076 2.618a.318.318 0 00-.035-.054l-.569-1.407.32-1.647h.555l.32 1.647c-.234.562-.434 1.069-.593 1.462zm.397-3.753h-.812l-.384-.42.79-.316.79.316zm.868.637l-.2.5-.14-.718.523-.571.128.051q-.15.351-.311.74zm1.313-3.1l-.053.117-.007.016-.055.123v.009l-.05.113-.009.021-.012.027-.023.052-.028.065-.009.021-.073.17-.012.027-.038.088-.015.035-.04.093-.011.026-.145.341v.012l-.049.116-.009.022-.052.123h0l-.057.136-.337-.135h0l-.808-.322 1.932-1.357zm.834-.987h0a.994.994 0 00-.6.021.825.825 0 01-.234-.553v-.938a2.357 2.357 0 012.023 1.806zm2.661 4.562a1.09 1.09 0 11-1.088-1.012 1.058 1.058 0 011.088 1.018z" fill="#521e81" stroke="#521e81" stroke-width=".2"/></g></g></svg>