<svg xmlns="http://www.w3.org/2000/svg" width="24.778" height="29.308"><g fill="#e73d7d"><path data-name="Path 5411" d="M24.188 13.507a4.018 4.018 0 00-4.011-1.882 4.013 4.013 0 00-3.384 3.292 4.024 4.024 0 001.982 4.189c.045.026.091.05.137.074a7.082 7.082 0 001.135.5v.033c0 .72.018 1.439-.006 2.158a6.956 6.956 0 01-.151 1.315 6.03 6.03 0 01-6.919 4.61 6.069 6.069 0 01-4.872-4.679 7.832 7.832 0 01-.136-1.574v-1.369a.825.825 0 000-.109v-3.746c.457-.128.9-.214 1.316-.374a6.187 6.187 0 003.6-3.729.926.926 0 000-.516.589.589 0 010-.35 38.809 38.809 0 001.384-5.352V5.98c.04-.2.074-.388.1-.565v-.024c0-.015 0-.029.006-.043.025-.167.045-.324.061-.469l.013-.083.015-.164a.361.361 0 00.013-.16c0-.043.006-.085.008-.124h.011v-.58A3.029 3.029 0 0012.364.824a6.059 6.059 0 00-1.992-.31A.29.29 0 0110.1.38a.851.851 0 00-.688-.37.826.826 0 00-.114-.008.813.813 0 00-.67.353.932.932 0 00.127 1.289.943.943 0 001.358-.157c.043-.056.116-.128.176-.128a5 5 0 011.761.246 2.148 2.148 0 011.534 1.661 3.3 3.3 0 01.054.989c-.108.851-.239 1.7-.4 2.544a34.307 34.307 0 01-1.165 4.3c-.024.071-.063.163-.121.19a.889.889 0 00-.44.519 4.941 4.941 0 01-1.857 2.349 4.156 4.156 0 01-4.486.188 4.84 4.84 0 01-2.161-2.527.981.981 0 00-.366-.492.5.5 0 01-.2-.233 36.889 36.889 0 01-1.3-4.927 10.863 10.863 0 01-.29-2.318 2.255 2.255 0 011.75-2.289 5.807 5.807 0 011.529-.2.283.283 0 01.275.132.91.91 0 001.049.328.938.938 0 00.63-.868.939.939 0 00-.623-.891.912.912 0 00-1.061.335.28.28 0 01-.241.121 10.926 10.926 0 00-1.551.178 3.094 3.094 0 00-2.6 3.293 12.262 12.262 0 00.2 1.755 36.877 36.877 0 001.45 5.705.283.283 0 01-.008.187.8.8 0 000 .644 6.886 6.886 0 00.865 1.579 5.859 5.859 0 003.727 2.38c.3.057.3.058.3.356v5.334a7.256 7.256 0 001.225 4.033 7.456 7.456 0 007.778 3.2 7.45 7.45 0 005.917-7.113c.013-.762.008-1.524 0-2.287 0-.146.043-.2.184-.229a3.9 3.9 0 002.342-1.523 4.013 4.013 0 00.199-4.501zM20.797 18.2a2.6 2.6 0 01-2.64-2.58 2.6 2.6 0 012.587-2.618 2.6 2.6 0 012.6 2.6 2.6 2.6 0 01-2.546 2.598z"/><path data-name="Path 5412" d="M20.749 14.002a1.6 1.6 0 101.6 1.591 1.593 1.593 0 00-1.6-1.591z"/></g></svg>