<svg xmlns="http://www.w3.org/2000/svg" width="22.29" height="18.615"><g data-name="Group 36282" fill="#ea3878"><path data-name="Path 38295" d="M7.134 8.436A5.906 5.906 0 005.5 8.198a5.129 5.129 0 00-2.046.419c.514-1.883 1.75-5.132 4.212-5.5a.585.585 0 00.477-.421L8.681.772A.585.585 0 008.2.042a4.086 4.086 0 00-.55-.037c-2.955 0-5.881 3.084-7.116 7.5-.725 2.591-.937 6.485.848 8.937a5.33 5.33 0 004.332 2.177h.023a5.186 5.186 0 001.4-10.179z"/><path data-name="Path 38296" d="M21.621 10.885a5.2 5.2 0 00-3.118-2.449 5.906 5.906 0 00-1.632-.238 5.13 5.13 0 00-2.047.419c.514-1.883 1.75-5.132 4.212-5.5a.585.585 0 00.477-.421l.538-1.924a.585.585 0 00-.484-.737 4.081 4.081 0 00-.55-.037c-2.955 0-5.881 3.084-7.116 7.5-.725 2.591-.937 6.485.849 8.937a5.33 5.33 0 004.332 2.177h.023a5.186 5.186 0 004.515-7.73z"/></g></svg>