<svg xmlns="http://www.w3.org/2000/svg" width="30.379" height="29.025"><defs><linearGradient id="a" x1=".5" x2=".5" y2="1" gradientUnits="objectBoundingBox"><stop offset="0" stop-color="#ec3f80"/><stop offset="1" stop-color="#e3215e"/></linearGradient><linearGradient id="b" x1=".5" x2=".5" y2="1" gradientUnits="objectBoundingBox"><stop offset="0" stop-color="#551c85"/><stop offset="1" stop-color="#ea3686"/></linearGradient><linearGradient id="c" x1=".5" x2=".5" y2="1" gradientUnits="objectBoundingBox"><stop offset="0" stop-color="#ec3f80"/><stop offset=".331" stop-color="#eb3b7b"/><stop offset=".726" stop-color="#e72e6c"/><stop offset="1" stop-color="#e3215e"/></linearGradient></defs><path data-name="Path 7110" d="M19.216 1.546a5.279 5.279 0 10-7.465 7.465l4.808 4.808 7.465-7.465z" fill="#551c85"/><path data-name="Path 7111" d="M50.432 16.363a.394.394 0 01-.278-.672 3.02 3.02 0 014.266 0 .394.394 0 01-.557.557 2.232 2.232 0 00-3.152 0 .392.392 0 01-.279.115z" transform="translate(-36.802 -12.545)" fill="url(#a)"/><path data-name="Path 7112" d="M77.086 37.8l-4.808-4.808-7.465 7.468 4.808 4.808a5.279 5.279 0 107.465-7.468z" transform="translate(-48.253 -26.641)" fill="url(#a)"/><circle data-name="Ellipse 101" cx="6.263" cy="6.263" r="6.263" transform="rotate(-57.788 20.248 11.175)" fill="url(#b)"/><path data-name="Path 7113" d="M16.426 87.949a.394.394 0 01-.278-.672l5.314-5.314a.394.394 0 01.557.557L16.7 87.833a.393.393 0 01-.278.115z" transform="translate(-10.445 -64.505)" fill="url(#c)"/></svg>