<svg xmlns="http://www.w3.org/2000/svg" width="60.396" height="60.4"><defs><linearGradient id="a" x1=".5" x2=".5" y2="1" gradientUnits="objectBoundingBox"><stop offset="0" stop-color="#ec3f80"/><stop offset="1" stop-color="#e3215e"/></linearGradient></defs><path data-name="Path 38496" d="M32.478 43.956l8.929-8.929V23.036a5.316 5.316 0 00-5.353-4.987h-2.2v-4.011h1.17a3.61 3.61 0 003.552-3.482V3.707A3.781 3.781 0 0035.024 0h-4.606v10.5h-3.539V0h-4.347v10.5h-3.539V0h-4.632v10.5h-3.539V0H6.501a3.781 3.781 0 00-3.552 3.707v6.849a3.61 3.61 0 003.552 3.482h.931v4.011H5.589C2.829 18.049 0 20.324 0 23.036v32.171C0 57.828 2.769 60.4 5.589 60.4h27.283l-.394-.4a11.361 11.361 0 010-16.044zm-9.946-2.962v5.913a1.77 1.77 0 01-3.539 0v-5.913h-5.909a1.77 1.77 0 110-3.539h5.913v-5.913a1.77 1.77 0 113.539 0v5.913h5.913a1.77 1.77 0 010 3.539z" fill="#ea3686" opacity=".7"/><path data-name="Path 38497" d="M372.911 280.058l-.61-.61a7.819 7.819 0 00-11.044 0l-4.358 4.358 11.654 11.654 4.357-4.357a7.818 7.818 0 00.001-11.045z" transform="translate(-314.799 -244.468)" opacity=".7" fill="url(#a)"/><path data-name="Path 38498" d="M279.461 359.289a7.818 7.818 0 000 11.044l.61.61a7.818 7.818 0 0011.044 0l4.618-4.619-11.653-11.653z" transform="translate(-244.481 -312.831)" fill="url(#a)"/></svg>