<svg xmlns="http://www.w3.org/2000/svg" width="23.686" height="29.99"><g data-name="Group 36158"><g data-name="Group 36157" fill="#ea3878" stroke="#ea3878" stroke-width=".5"><path data-name="Path 38210" d="M11.843.25C5.45.25.25 5.137.25 11.144a11.948 11.948 0 00.983 4.194 17.245 17.245 0 001.34 2.355l7.949 11.317a1.561 1.561 0 002.642 0l7.949-11.318a17.173 17.173 0 001.34-2.355 11.945 11.945 0 00.983-4.194C23.436 5.137 18.235.25 11.843.25zm9.353 14.59a15.8 15.8 0 01-1.226 2.147l-7.945 11.318c-.157.224-.207.224-.363 0l-7.95-11.318a15.807 15.807 0 01-1.221-2.147 10.847 10.847 0 01-.877-3.7c0-5.3 4.589-9.612 10.229-9.612S22.07 5.844 22.07 11.144a10.855 10.855 0 01-.874 3.696z"/><path data-name="Path 38211" d="M11.843 5.377a5.778 5.778 0 106.137 5.767 5.968 5.968 0 00-6.137-5.767zm0 10.253a4.494 4.494 0 114.774-4.486 4.642 4.642 0 01-4.774 4.486z"/></g></g></svg>