<svg xmlns="http://www.w3.org/2000/svg" width="23.863" height="27.834"><path data-name="Path 7127" d="M7.952 4.97c.96 0 1.988-1.75 1.988-2.982a1.988 1.988 0 00-3.976 0c0 1.232 1.028 2.982 1.988 2.982z" fill="#fff"/><path data-name="Path 7129" d="M9.444 26.84a.994.994 0 001.988 0v-3.976H9.444z" fill="#fff"/><path data-name="Path 7130" d="M4.473 26.84a.994.994 0 001.988 0v-3.976H4.473z" fill="#fff"/><path data-name="Path 7131" d="M11.433 5.964h-6.96a2.489 2.489 0 00-2.435 1.988h11.829a2.489 2.489 0 00-2.434-1.988z" fill="#fff"/><path data-name="Path 7133" d="M15.905 8.947H0V21.87h15.905zm-2.982 5.467a.5.5 0 01-.461-.311 19.384 19.384 0 00-3.846-.186H8.45v1.491h.032c2.192 0 3.267.014 3.722.468a.732.732 0 01.223.527.5.5 0 01-.968.158 14.088 14.088 0 00-2.974-.159H8.45v1.492h1.491a.5.5 0 01.5.5 2.485 2.485 0 01-4.97 0 .5.5 0 01.5-.5h1.491v-1.492h-.034a14.109 14.109 0 00-2.974.159.5.5 0 01-.968-.158.732.732 0 01.223-.527c.455-.454 1.529-.473 3.722-.468h.032v-1.491H7.29a19.368 19.368 0 00-3.846.186.5.5 0 01-.958-.186.706.706 0 01.213-.5c.48-.48 1.756-.5 4.593-.493h.164v-1.491h-.034a14.124 14.124 0 00-2.974.159.5.5 0 01-.968-.158.732.732 0 01.223-.527c.455-.454 1.529-.473 3.722-.468h.032a.5.5 0 11.994 0h.032c2.192 0 3.267.014 3.722.468a.732.732 0 01.223.527.5.5 0 01-.968.158 14.113 14.113 0 00-2.974-.159H8.45v1.491h.164c2.839 0 4.113.014 4.593.493a.706.706 0 01.213.5.5.5 0 01-.497.497z" fill="#fff"/><path data-name="Path 7134" d="M23.364 25.349a.5.5 0 10.5.5.5.5 0 00-.5-.5z" fill="#fff"/><path data-name="Path 7135" d="M23.364 23.361a.5.5 0 10.5.5.5.5 0 00-.5-.5z" fill="#fff"/><path data-name="Path 7136" d="M23.364 21.373a.5.5 0 10.5.5.5.5 0 00-.5-.5z" fill="#fff"/><path data-name="Path 7137" d="M23.364 19.385a.5.5 0 10.5.5.5.5 0 00-.5-.5z" fill="#fff"/><path data-name="Path 7138" d="M23.364 17.396a.5.5 0 10.5.5.5.5 0 00-.5-.5z" fill="#fff"/><path data-name="Path 7139" d="M23.364 15.408a.5.5 0 10.5.5.5.5 0 00-.5-.5z" fill="#fff"/><path data-name="Path 7140" d="M23.364 13.42a.5.5 0 10.5.5.5.5 0 00-.5-.5z" fill="#fff"/><path data-name="Path 7141" d="M23.364 11.432a.5.5 0 10.5.5.5.5 0 00-.5-.5z" fill="#fff"/><path data-name="Path 7142" d="M23.364 1.491a.5.5 0 10.5.5.5.5 0 00-.5-.5z" fill="#fff"/><path data-name="Path 7143" d="M23.364 9.444a.5.5 0 10.5.5.5.5 0 00-.5-.5z" fill="#fff"/><path data-name="Path 7144" d="M23.364 7.456a.5.5 0 10.5.5.5.5 0 00-.5-.5z" fill="#fff"/><path data-name="Path 7145" d="M23.364 5.467a.5.5 0 10.5.5.5.5 0 00-.5-.5z" fill="#fff"/><path data-name="Path 7146" d="M23.364 3.479a.5.5 0 10.5.5.5.5 0 00-.5-.5z" fill="#fff"/><path data-name="Path 7147" d="M21.87 25.846V1.991a.5.5 0 00-.5-.5h-8.941a.5.5 0 100 .994h8.45v22.864h-5.467a.5.5 0 000 .994h5.964a.5.5 0 00.494-.497z" fill="#fff"/></svg>