<svg xmlns="http://www.w3.org/2000/svg" width="18" height="20"><path data-name="remove-ico" d="M17.287 3.243a.723.723 0 01.713.734v.38a.73.73 0 01-.713.734H.714A.73.73 0 010 4.357v-.38a.723.723 0 01.714-.734H3.63a1.282 1.282 0 001.241-1.015l.153-.682A1.988 1.988 0 016.935 0h4.129a1.986 1.986 0 011.9 1.5l.163.73a1.281 1.281 0 001.241 1.016zm-1.481 13.891c.3-2.837.837-9.577.837-9.645a.746.746 0 00-.181-.558.726.726 0 00-.523-.234H2.069a.706.706 0 00-.523.234.791.791 0 00-.191.558l.053.647c.142 1.763.538 6.674.793 9a2.917 2.917 0 002.931 2.827C6.388 19.99 7.681 20 9 20c1.246 0 2.511-.01 3.806-.039a2.917 2.917 0 003-2.827z" fill="#030229" fill-rule="evenodd" opacity=".4"/></svg>