<svg xmlns="http://www.w3.org/2000/svg" width="22.291" height="18.615"><g data-name="Group 36282" fill="#ea3878"><path data-name="Path 38295" d="M15.157 8.436a5.907 5.907 0 011.632-.238 5.129 5.129 0 012.046.419c-.514-1.883-1.75-5.132-4.212-5.5a.585.585 0 01-.477-.421L13.609.774a.585.585 0 01.483-.732 4.087 4.087 0 01.55-.037c2.955 0 5.881 3.084 7.116 7.5.725 2.591.937 6.485-.848 8.937a5.331 5.331 0 01-4.333 2.177h-.022a5.186 5.186 0 01-1.4-10.178z"/><path data-name="Path 38296" d="M.674 10.885a5.2 5.2 0 013.118-2.449 5.906 5.906 0 011.632-.238 5.13 5.13 0 012.047.419c-.514-1.883-1.75-5.132-4.212-5.5a.585.585 0 01-.477-.421L2.244.772a.585.585 0 01.484-.737 4.082 4.082 0 01.55-.037c2.955 0 5.881 3.084 7.116 7.5.725 2.591.937 6.485-.849 8.937a5.33 5.33 0 01-4.332 2.177H5.19a5.186 5.186 0 01-4.515-7.73z"/></g></svg>